<svg width="17" height="16" viewBox="0 0 17 16" fill="none" xmlns="http://www.w3.org/2000/svg">
<path d="M5.77187 7.01231C6.40478 7.01231 7.02346 6.82463 7.5497 6.47301C8.07594 6.12139 8.48609 5.62162 8.72829 5.03689C8.97049 4.45217 9.03386 3.80876 8.91039 3.18802C8.78692 2.56728 8.48215 1.99709 8.03462 1.54956C7.58709 1.10204 7.0169 0.797266 6.39616 0.673793C5.77542 0.550321 5.13201 0.613691 4.54729 0.855892C3.96256 1.09809 3.46279 1.50824 3.11117 2.03448C2.75955 2.56072 2.57188 3.17941 2.57188 3.81231C2.57188 4.661 2.90902 5.47493 3.50913 6.07505C4.10925 6.67516 4.92318 7.01231 5.77187 7.01231ZM12.1719 8.61231C12.6466 8.61231 13.1106 8.47155 13.5052 8.20783C13.8999 7.94412 14.2075 7.56929 14.3892 7.13075C14.5708 6.6922 14.6184 6.20964 14.5258 5.74409C14.4332 5.27854 14.2046 4.8509 13.8689 4.51525C13.5333 4.1796 13.1056 3.95103 12.6401 3.85842C12.1745 3.76582 11.692 3.81335 11.2534 3.995C10.8149 4.17665 10.4401 4.48426 10.1763 4.87894C9.91263 5.27362 9.77188 5.73763 9.77188 6.21231C9.77188 6.84883 10.0247 7.45928 10.4748 7.90936C10.9249 8.35945 11.5354 8.61231 12.1719 8.61231ZM15.3719 14.2123C15.584 14.2123 15.7875 14.128 15.9376 13.978C16.0876 13.828 16.1719 13.6245 16.1719 13.4123C16.1712 12.6646 15.961 11.9321 15.5652 11.2978C15.1693 10.6635 14.6035 10.1529 13.9322 9.82388C13.2608 9.49485 12.5106 9.36058 11.7667 9.43631C11.0229 9.51203 10.3152 9.79472 9.72388 10.2523C8.94028 9.47179 7.94312 8.94078 6.85813 8.72625C5.77315 8.51171 4.64893 8.62326 3.62726 9.04681C2.60558 9.47037 1.73221 10.187 1.11727 11.1063C0.502331 12.0255 0.173371 13.1063 0.171875 14.2123C0.171875 14.4245 0.25616 14.628 0.40619 14.778C0.556219 14.928 0.759702 15.0123 0.971875 15.0123H10.5719C10.784 15.0123 10.9875 14.928 11.1376 14.778C11.2876 14.628 11.3719 14.4245 11.3719 14.2123" fill="white"/>
</svg>
