<svg width="29" height="32" viewBox="0 0 29 32" fill="none" xmlns="http://www.w3.org/2000/svg">
<path d="M14.5 0C9.64587 0 5.6977 4.01423 5.6977 8.94958C5.6977 13.8849 9.64587 17.8992 14.5 17.8992C19.3541 17.8992 23.3023 13.8849 23.3023 8.94958C23.3023 4.01423 19.3541 0 14.5 0ZM13.936 2.14287L13.1388 4.56931L16.6695 4.19322L16.3184 2.99143L17.3085 3.27018V4.60346L18.8552 4.70604L18.5527 3.50954L19.3657 3.03081C21.0279 4.44402 22.0835 6.56879 22.0835 8.94958C22.0835 10.0971 21.8381 11.185 21.398 12.1626L19.6287 12.467V14.6341C19.2912 14.949 18.9263 15.2321 18.5386 15.4802L17.7792 14.279L16.2996 14.6893L16.7153 16.3268C15.9971 16.5484 15.2506 16.6606 14.5 16.66C12.4001 16.66 10.5026 15.797 9.1308 14.4002L10.4823 14.2107L11.3903 12.3986L8.49825 10.9285L10.5495 9.1506L8.7674 7.64639L6.94648 8.26343C7.15719 5.82308 8.48031 3.7127 10.3993 2.45873L10.785 5.59494L13.936 2.14287ZM16.5685 6.56376L14.1195 8.15927L16.2595 10.0933L17.8051 9.63395L17.6624 11.5196L20.492 10.7944L19.4219 8.32855L17.71 8.35271L19.2318 7.02308L16.5686 6.56376H16.5685ZM14.0245 9.34385L12.7167 9.92399L13.6439 10.6251L14.0245 9.34385ZM10.953 9.56098L10.0452 10.6549L12.5604 12.4522L10.953 9.56098ZM14.9994 10.1658L14.0721 11.9307L16.3072 13.4779L15.5224 12.3415L16.4973 11.157L14.9994 10.1658ZM1.24035 12.0517C0.643286 12.0423 0.0322033 12.8154 0.0286823 14.7973C0.023401 17.8369 -0.266263 18.6949 1.11726 22.1326C2.13175 24.6535 2.5867 26.5911 5.83312 28.1568C6.21771 29.5351 6.06422 29.8593 5.80333 31.0372C5.55984 32.1369 8.0664 32.339 9.90209 31.4126C11.8718 30.3202 11.7066 27.3125 11.3547 25.2729C10.9454 22.901 9.65786 22.408 8.54179 21.3948C7.38294 19.7099 7.11325 16.6575 5.23375 15.4262C4.84124 15.1691 2.83885 14.908 5.59004 21.8934C1.96275 20.98 2.62346 16.7458 2.36116 13.6109C2.28302 12.6774 1.76714 12.0599 1.24035 12.0516V12.0517ZM27.7596 12.0517C27.2329 12.06 26.717 12.6774 26.6388 13.611C26.3765 16.7458 27.0372 20.98 23.41 21.8934C26.1612 14.9079 24.1588 15.1691 23.7662 15.4262C21.8868 16.6575 21.6171 19.7099 20.4582 21.3949C19.3422 22.408 18.0545 22.901 17.6453 25.2729C17.2934 27.3125 17.1282 30.3202 19.0979 31.4126C20.9336 32.3389 23.4402 32.1369 23.1966 31.0372C22.9358 29.8593 22.7823 29.5351 23.1669 28.1568C26.4133 26.5911 26.8682 24.6535 27.8827 22.1326C29.2663 18.6949 28.9766 17.8369 28.9713 14.7974C28.9678 12.8154 28.3567 12.0423 27.7596 12.0517Z" fill="white"/>
</svg>
