<svg width="48" height="48" viewBox="0 0 48 48" fill="none" xmlns="http://www.w3.org/2000/svg">
<circle cx="24" cy="24" r="23.5" stroke="#FFB257"/>
<path d="M35.3131 33.032V36L32.7677 34.362L25.9939 21.762C26.9223 21.474 27.7797 20.9971 28.5111 20.362M28.2424 15C28.2424 16.1139 27.7955 17.1822 26.9998 17.9698C26.2042 18.7575 25.1252 19.2 24 19.2C23.7928 19.2138 23.585 19.2138 23.3778 19.2L15.2323 34.362L12.6869 36V33.032L20.8747 17.8C20.3308 17.198 19.9737 16.4535 19.8463 15.6557C19.7189 14.8579 19.8266 14.0407 20.1564 13.3019C20.4863 12.5631 21.0243 11.9342 21.706 11.4905C22.3877 11.0467 23.1842 10.807 24 10.8V8C24.3751 8 24.7347 8.1475 24.9999 8.41005C25.2652 8.6726 25.4141 9.0287 25.4141 9.4V11.052C26.2394 11.3408 26.9541 11.8753 27.4605 12.5821C27.9668 13.2889 28.24 14.1335 28.2424 15ZM25.4141 15C25.4141 14.7231 25.3312 14.4524 25.1758 14.2222C25.0204 13.992 24.7996 13.8125 24.5412 13.7066C24.2828 13.6006 23.9984 13.5729 23.7241 13.6269C23.4498 13.6809 23.1978 13.8143 23.0001 14.0101C22.8023 14.2058 22.6676 14.4553 22.613 14.7269C22.5585 14.9984 22.5865 15.2799 22.6935 15.5358C22.8005 15.7916 22.9818 16.0102 23.2143 16.1641C23.4469 16.3179 23.7203 16.4 24 16.4C24.3751 16.4 24.7347 16.2525 24.9999 15.9899C25.2652 15.7274 25.4141 15.3713 25.4141 15ZM12.998 19.2L15.5152 21.72L13.4788 25.584L10 22.14M24 30.064L21.8788 27.95L19.7576 31.8L24 36L28.2424 31.8L26.1636 27.922M35.002 19.2L32.4848 21.72L34.6061 25.584L38 22.14L35.002 19.2Z" fill="#FFB257"/>
</svg>
