<svg width="32" height="34" viewBox="0 0 32 34" fill="none" xmlns="http://www.w3.org/2000/svg">
<path d="M30 14.3374C29.572 11.2292 28.1434 8.3492 25.9341 6.14109C23.7249 3.93298 20.8576 2.51924 17.7739 2.11765C14.6903 1.71606 11.5613 2.34891 8.8691 3.91869C6.17687 5.48848 4.07069 7.90812 2.875 10.8049M2 3.73987V10.8049H9M2 17.8699C2.5017 21.523 4.38271 24.839 7.25 27.1251M14.25 21.4025H17.75C18.2141 21.4025 18.6592 21.5885 18.9874 21.9198C19.3156 22.251 19.5 22.7003 19.5 23.1687V24.935C19.5 25.4034 19.3156 25.8527 18.9874 26.1839C18.6592 26.5151 18.2141 26.7012 17.75 26.7012H16C15.5359 26.7012 15.0908 26.8873 14.7626 27.2185C14.4344 27.5498 14.25 27.999 14.25 28.4675V30.2337C14.25 30.7022 14.4344 31.1514 14.7626 31.4827C15.0908 31.8139 15.5359 32 16 32H19.5M24.75 21.4025V24.935C24.75 25.4034 24.9344 25.8527 25.2626 26.1839C25.5908 26.5151 26.0359 26.7012 26.5 26.7012H28.25M30 21.4025V32" stroke="white" stroke-width="4" stroke-linecap="round" stroke-linejoin="round"/>
</svg>
