<svg width="32" height="32" viewBox="0 0 32 32" fill="none" xmlns="http://www.w3.org/2000/svg">
<path d="M26 25H14.5V24H16C16.2652 24 16.5196 23.8946 16.7071 23.7071C16.8946 23.5196 17 23.2652 17 23C17 22.7348 16.8946 22.4804 16.7071 22.2929C16.5196 22.1054 16.2652 22 16 22H6C5.73478 22 5.48043 22.1054 5.29289 22.2929C5.10536 22.4804 5 22.7348 5 23C5 23.2652 5.10536 23.5196 5.29289 23.7071C5.48043 23.8946 5.73478 24 6 24H7.5V25H6C5.73478 25 5.48043 25.1054 5.29289 25.2929C5.10536 25.4804 5 25.7348 5 26V28C5 28.7956 5.31607 29.5587 5.87868 30.1213C6.44129 30.6839 7.20435 31 8 31H24C24.7956 31 25.5587 30.6839 26.1213 30.1213C26.6839 29.5587 27 28.7956 27 28V26C27 25.7348 26.8946 25.4804 26.7071 25.2929C26.5196 25.1054 26.2652 25 26 25ZM9.5 24H12.5V25H9.5V24ZM14 2.5C14 1.5 13 1 11 1C9 1 8 1.52 8 2.5V3H14V2.5ZM15.82 15C15.9364 14.6793 15.9973 14.3411 16 14V6C16 5.73478 15.8946 5.48043 15.7071 5.29289C15.5196 5.10536 15.2652 5 15 5H9C8.20435 5 7.44129 5.31607 6.87868 5.87868C6.31607 6.44129 6 7.20435 6 8V14C6.0027 14.3411 6.06358 14.6793 6.18 15H15.82ZM11 20C13 20 14 19.48 14 18.5V17H8V18.5C8 19.48 9 20 11 20ZM18 5.39V11.81C18.9112 12.3361 19.6681 13.0925 20.1946 14.0035C20.7212 14.9144 20.9989 15.9478 21 17V23H27V17C26.998 14.3412 26.1131 11.7583 24.4841 9.65694C22.8551 7.55557 20.5744 6.0547 18 5.39Z" fill="white"/>
</svg>
