<svg width="35" height="36" viewBox="0 0 35 36" fill="none" xmlns="http://www.w3.org/2000/svg">
<path fill-rule="evenodd" clip-rule="evenodd" d="M13.125 24.2172C12.4381 23.3052 12.0312 22.1729 12.0312 20.9456C12.0312 17.9347 14.4812 15.4911 17.5 15.4911C20.5188 15.4911 22.9688 17.9347 22.9688 20.9456C22.9688 22.1729 22.5619 23.3052 21.875 24.2172V31.8547C21.875 32.2125 21.6989 32.5474 21.4047 32.7514C21.1094 32.9554 20.7331 33.0012 20.3973 32.8758L17.5 31.7914L14.6027 32.8758C14.2669 33.0012 13.8906 32.9554 13.5953 32.7514C13.3011 32.5474 13.125 32.2125 13.125 31.8547V24.2172ZM15.3125 25.9452V30.2805L17.1161 29.6052C17.3633 29.5125 17.6367 29.5125 17.8839 29.6052L19.6875 30.2805V25.9452C19.017 26.2376 18.2777 26.4001 17.5 26.4001C16.7223 26.4001 15.983 26.2376 15.3125 25.9452ZM10.9375 28.582H9.84375C8.97312 28.582 8.1386 28.2372 7.52391 27.6231C6.90813 27.01 6.5625 26.1765 6.5625 25.3092V5.67287C6.5625 4.80451 6.90813 3.97214 7.52391 3.35905C8.1386 2.74487 8.97312 2.40015 9.84375 2.40015C13.6314 2.40015 21.3686 2.40015 25.1562 2.40015C26.0269 2.40015 26.8614 2.74487 27.4761 3.35905C28.0919 3.97214 28.4375 4.80451 28.4375 5.67287C28.4375 10.2361 28.4375 20.7449 28.4375 25.3092C28.4375 26.1765 28.0919 27.01 27.4761 27.6231C26.8614 28.2372 26.0269 28.582 25.1562 28.582H24.0625V24.8761C24.757 23.7285 25.1562 22.3834 25.1562 20.9456C25.1562 16.7303 21.7252 13.3092 17.5 13.3092C13.2748 13.3092 9.84375 16.7303 9.84375 20.9456C9.84375 22.3834 10.243 23.7285 10.9375 24.8761V28.582ZM12.0312 11.1274H22.9688C23.5725 11.1274 24.0625 10.6387 24.0625 10.0365C24.0625 9.43433 23.5725 8.9456 22.9688 8.9456H12.0312C11.4275 8.9456 10.9375 9.43433 10.9375 10.0365C10.9375 10.6387 11.4275 11.1274 12.0312 11.1274ZM14.2188 6.76378H20.7812C21.385 6.76378 21.875 6.27506 21.875 5.67287C21.875 5.07069 21.385 4.58196 20.7812 4.58196H14.2188C13.615 4.58196 13.125 5.07069 13.125 5.67287C13.125 6.27506 13.615 6.76378 14.2188 6.76378Z" fill="white"/>
</svg>
