<svg width="48" height="48" viewBox="0 0 48 48" fill="none" xmlns="http://www.w3.org/2000/svg">
<circle cx="24" cy="24" r="23.5" stroke="#FFB257"/>
<path d="M30.8454 20.1864L32.7295 16.1364L27.5797 15.6455C28.3333 16.2591 28.9614 16.9955 29.4638 17.9773C29.8406 18.7136 30.0918 19.3273 30.343 20.0636C29.715 19.9409 28.9614 19.8182 28.2077 19.8182H27.7053C26.7005 17.6091 24.5652 16.1364 21.9275 16.1364C18.4106 16.1364 15.6473 18.8364 15.6473 22.2727C15.6473 24.85 17.1546 26.9364 19.4155 27.9182V28.4091C19.4155 33.1955 23.3092 37 28.2077 37C33.1063 37 37 33.1955 37 28.4091C37 24.6045 34.3623 21.2909 30.8454 20.1864ZM28.2077 34.5455C24.6908 34.5455 21.9275 31.8455 21.9275 28.4091C21.9275 24.9727 24.6908 22.2727 28.2077 22.2727C31.7246 22.2727 34.4879 24.9727 34.4879 28.4091C34.4879 31.8455 31.7246 34.5455 28.2077 34.5455ZM28.8357 28.6545L32.4783 30.7409L31.4734 32.2136L26.9517 29.6364V23.5H28.8357V28.6545ZM21.9275 13.6818C20.9227 13.6818 19.9179 13.9273 18.913 14.1727L21.9275 10L24.942 14.1727C23.9372 13.9273 22.9324 13.6818 21.9275 13.6818ZM14.2657 26.5682C14.7681 27.4273 15.5217 28.2864 16.2754 28.9L11.1256 28.4091L13.3865 23.7455C13.5121 24.7273 13.7633 25.7091 14.2657 26.5682ZM13.2609 20.8L11 16.1364L16.2754 15.7682C15.5217 16.3818 14.8937 17.1182 14.2657 17.9773C13.7633 18.8364 13.3865 19.8182 13.2609 20.8Z" fill="#FFB257"/>
</svg>
