<svg width="48" height="48" viewBox="0 0 48 48" fill="none" xmlns="http://www.w3.org/2000/svg">
<circle cx="24" cy="24" r="23.5" stroke="#FFB257"/>
<path d="M34.7 25.8H18.6C16.07 25.8 14 27.87 14 30.4C14 32.93 16.07 35 18.6 35H34.7C35.965 35 37 33.965 37 32.7V28.1C37 26.835 35.965 25.8 34.7 25.8ZM18.6 32.7C17.335 32.7 16.3 31.665 16.3 30.4C16.3 29.135 17.335 28.1 18.6 28.1C19.865 28.1 20.9 29.135 20.9 30.4C20.9 31.665 19.865 32.7 18.6 32.7ZM18.945 23.5L26.65 15.795C27.57 14.875 28.95 14.875 29.87 15.795L33.09 19.015C34.01 19.935 34.01 21.315 33.09 22.235L32.055 23.5H18.945ZM14 25.225V14.3C14 13.035 15.035 12 16.3 12H20.9C22.165 12 23.2 13.035 23.2 14.3V16.025L14 25.225Z" fill="#FFB257"/>
</svg>
