<svg width="47" height="47" viewBox="0 0 47 47" fill="none" xmlns="http://www.w3.org/2000/svg">
<g clip-path="url(#clip0_370_149)">
<path fill-rule="evenodd" clip-rule="evenodd" d="M18.9979 32.3498C18.9979 32.3719 18.9985 33.5526 18.9997 34.18H27.9994C28.0001 33.5602 28.0005 32.3678 28.0005 32.3498C28.0005 25.182 32.6312 27.7377 32.6312 20.6569C32.6312 15.6134 28.5426 11.5249 23.4992 11.5249C18.4557 11.5249 14.3672 15.6134 14.3672 20.6569C14.3672 27.7377 18.9979 25.182 18.9979 32.3498ZM29.4476 19.6292C29.4476 19.9198 29.6832 20.1553 29.9737 20.1553C30.2643 20.1553 30.4999 19.9198 30.4999 19.6292C30.4999 17.9294 29.8108 16.3904 28.6969 15.2764C27.5829 14.1625 26.0439 13.4734 24.3441 13.4734C24.0536 13.4734 23.818 13.709 23.818 13.9996C23.818 14.2901 24.0536 14.5257 24.3441 14.5257C25.7534 14.5257 27.0293 15.0969 27.9529 16.0204C28.8764 16.944 29.4476 18.2199 29.4476 19.6292Z" fill="white"/>
<path d="M19.3717 34.7064C19.0811 34.7064 18.8455 34.942 18.8455 35.2325C18.8455 35.5231 19.0811 35.7587 19.3717 35.7587H27.5215C27.8121 35.7587 28.0477 35.5231 28.0477 35.2325C28.0477 34.942 27.8121 34.7064 27.5215 34.7064H19.3717ZM9.33867 19.6769C9.04809 19.6769 8.8125 19.9125 8.8125 20.2031C8.8125 20.4937 9.04809 20.7292 9.33867 20.7292H11.6859C11.9764 20.7292 12.212 20.4937 12.212 20.2031C12.212 19.9125 11.9764 19.6769 11.6859 19.6769H9.33867ZM11.6776 12.7169C11.4267 12.5716 11.1056 12.6572 10.9603 12.908C10.815 13.1589 10.9006 13.4801 11.1514 13.6254L13.1841 14.7989C13.435 14.9442 13.7561 14.8586 13.9014 14.6078C14.0467 14.357 13.9612 14.0358 13.7103 13.8905L11.6776 12.7169ZM17.1824 7.85609C17.0371 7.60521 16.7159 7.51965 16.4651 7.66492C16.2142 7.81023 16.1287 8.13138 16.2739 8.38223L17.4475 10.4149C17.5928 10.6658 17.914 10.7513 18.1648 10.6061C18.4157 10.4608 18.5013 10.1396 18.356 9.88879L17.1824 7.85609ZM24.382 6.4009C24.382 6.11034 24.1465 5.87476 23.8559 5.87476C23.5653 5.87476 23.3298 6.11034 23.3298 6.4009V8.74808C23.3298 9.03864 23.5653 9.27423 23.8559 9.27423C24.1465 9.27423 24.382 9.03864 24.382 8.74808V6.4009ZM31.3421 8.73984C31.4874 8.489 31.4018 8.16784 31.1509 8.02253C30.9001 7.87726 30.5789 7.96282 30.4336 8.2137L29.26 10.2464C29.1148 10.4972 29.2003 10.8184 29.4512 10.9636C29.7021 11.1089 30.0232 11.0234 30.1685 10.7725L31.3421 8.73984ZM36.2028 14.2446C36.4537 14.0993 36.5392 13.7781 36.394 13.5273C36.2487 13.2764 35.9275 13.1908 35.6767 13.3361L33.6439 14.5097C33.3931 14.655 33.3075 14.9762 33.4528 15.227C33.5981 15.4779 33.9192 15.5634 34.1701 15.4182L36.2028 14.2446ZM37.658 21.4442C37.9486 21.4442 38.1842 21.2086 38.1842 20.9181C38.1842 20.6275 37.9486 20.3919 37.658 20.3919H35.3109C35.0203 20.3919 34.7847 20.6275 34.7847 20.9181C34.7847 21.2086 35.0203 21.4442 35.3109 21.4442H37.658ZM19.3717 37.3371C19.0811 37.3371 18.8455 37.1016 18.8455 36.811C18.8455 36.5204 19.0811 36.2848 19.3717 36.2848H27.5215C27.8121 36.2848 28.0477 36.5204 28.0477 36.811C28.0477 37.1016 27.8121 37.3371 27.5215 37.3371H19.3717ZM19.3717 37.8633C19.0811 37.8633 18.8455 38.0989 18.8455 38.3895C18.8455 38.68 19.0811 38.9156 19.3717 38.9156H27.5215C27.8121 38.9156 28.0477 38.68 28.0477 38.3895C28.0477 38.0989 27.8121 37.8633 27.5215 37.8633H19.3717Z" fill="white"/>
<path fill-rule="evenodd" clip-rule="evenodd" d="M25.7979 39.4419H21.0938C21.2544 40.3918 22.2461 41.1232 23.4458 41.1232C24.6455 41.1232 25.6373 40.3918 25.7979 39.4419Z" fill="white"/>
</g>
<defs>
<clipPath id="clip0_370_149">
<rect width="47" height="47" fill="white"/>
</clipPath>
</defs>
</svg>
