<svg width="32" height="32" viewBox="0 0 32 32" fill="none" xmlns="http://www.w3.org/2000/svg">
<g clip-path="url(#clip0_421_450)">
<path d="M14.4 32V29.28L14.416 28.896L24.112 19.2H28.816C30.576 19.2 32 20.624 32 22.4V28.8C32 29.6487 31.6629 30.4626 31.0627 31.0627C30.4626 31.6629 29.6487 32 28.8 32H14.4ZM14.4 26.656V8.544L17.728 5.232C18.0238 4.93497 18.3754 4.69928 18.7625 4.53845C19.1497 4.37763 19.5648 4.29485 19.984 4.29485C20.4032 4.29485 20.8183 4.37763 21.2055 4.53845C21.5926 4.69928 21.9442 4.93497 22.24 5.232L26.768 9.76C27.364 10.3596 27.6985 11.1706 27.6985 12.016C27.6985 12.8614 27.364 13.6724 26.768 14.272L14.4 26.656ZM0 3.184C0 1.44 1.424 0 3.2 0H9.6C10.4487 0 11.2626 0.337142 11.8627 0.937258C12.4629 1.53737 12.8 2.35131 12.8 3.2V28.8C12.8 29.6487 12.4629 30.4626 11.8627 31.0627C11.2626 31.6629 10.4487 32 9.6 32H3.2C2.35131 32 1.53737 31.6629 0.937258 31.0627C0.337142 30.4626 0 29.6487 0 28.8V3.2V3.184ZM6.4 27.2C6.82435 27.2 7.23131 27.0314 7.53137 26.7314C7.83143 26.4313 8 26.0243 8 25.6C8 25.1757 7.83143 24.7687 7.53137 24.4686C7.23131 24.1686 6.82435 24 6.4 24C5.97565 24 5.56869 24.1686 5.26863 24.4686C4.96857 24.7687 4.8 25.1757 4.8 25.6C4.8 26.0243 4.96857 26.4313 5.26863 26.7314C5.56869 27.0314 5.97565 27.2 6.4 27.2Z" fill="white"/>
</g>
<defs>
<clipPath id="clip0_421_450">
<rect width="32" height="32" fill="white"/>
</clipPath>
</defs>
</svg>
