<svg width="48" height="48" viewBox="0 0 48 48" fill="none" xmlns="http://www.w3.org/2000/svg">
<circle cx="24" cy="24" r="23.5" stroke="#FFB257"/>
<path d="M17.1003 37H30.8991C32.1366 37 33.1209 35.9819 32.9878 34.8088C32.1284 27.25 26.9997 27.375 26.9997 24C26.9997 20.625 32.1941 20.8125 32.9872 13.1912C33.1122 12.0175 32.1366 11 30.8991 11H17.1003C15.8628 11 14.8897 12.0175 15.0122 13.1912C15.8053 20.8125 20.9997 20.5625 20.9997 24C20.9997 27.4375 15.8709 27.25 15.0122 34.8088C14.8784 35.9819 15.8628 37 17.1003 37Z" stroke="#FFB257" stroke-width="2" stroke-linecap="round" stroke-linejoin="round"/>
<path d="M29.4572 35H18.5716C17.5966 35 17.3216 33.875 18.0053 33.1775C19.6603 31.5 23.001 30.2987 23.001 28.375V22C23.001 20.7594 20.626 19.8125 19.1566 17.8C18.9141 17.4681 18.9385 17 19.5547 17H28.4753C29.001 17 29.1147 17.4644 28.8753 17.7969C27.4272 19.8125 25.001 20.7531 25.001 22V28.375C25.001 30.2831 28.4828 31.3125 30.026 33.1794C30.6478 33.9319 30.4303 35 29.4572 35Z" fill="#FFB257"/>
</svg>
