<svg width="36" height="34" viewBox="0 0 36 34" fill="none" xmlns="http://www.w3.org/2000/svg">
<path d="M5.14286 0H30.8571C33.6934 0 36 2.34575 36 5.23021V20.9208C36 23.8053 33.6934 26.151 30.8571 26.151H14.4514C15.5616 25.1787 16.4531 23.9749 17.0654 22.6212C17.6777 21.2675 17.9964 19.7957 18 18.3057C17.9964 16.8157 17.6777 15.3439 17.0654 13.9903C16.4531 12.6366 15.5616 11.4327 14.4514 10.4604H27C27.341 10.4604 27.668 10.3227 27.9091 10.0774C28.1503 9.83223 28.2857 9.49965 28.2857 9.15287C28.2857 8.80608 28.1503 8.4735 27.9091 8.22829C27.668 7.98307 27.341 7.84531 27 7.84531H7.71429C6.24916 7.84896 4.80195 8.17312 3.4709 8.79581C2.13984 9.4185 0.956092 10.3251 0 11.4542V5.23021C0 2.34575 2.30657 0 5.14286 0ZM21.8571 18.3057H27C27.341 18.3057 27.668 18.168 27.9091 17.9228C28.1503 17.6775 28.2857 17.345 28.2857 16.9982C28.2857 16.6514 28.1503 16.3188 27.9091 16.0736C27.668 15.8284 27.341 15.6906 27 15.6906H21.8571C21.5161 15.6906 21.1891 15.8284 20.948 16.0736C20.7069 16.3188 20.5714 16.6514 20.5714 16.9982C20.5714 17.345 20.7069 17.6775 20.948 17.9228C21.1891 18.168 21.5161 18.3057 21.8571 18.3057ZM7.71429 26.151C9.76024 26.151 11.7224 25.3245 13.1691 23.8532C14.6158 22.3819 15.4286 20.3864 15.4286 18.3057C15.4286 16.225 14.6158 14.2295 13.1691 12.7583C11.7224 11.287 9.76024 10.4604 7.71429 10.4604C5.66833 10.4604 3.70617 11.287 2.25946 12.7583C0.812753 14.2295 0 16.225 0 18.3057C0 20.3864 0.812753 22.3819 2.25946 23.8532C3.70617 25.3245 5.66833 26.151 7.71429 26.151ZM2.57143 32.6888V27.3095C4.12803 28.2508 5.90335 28.7527 7.71429 28.7635C9.59657 28.7635 11.3374 28.2091 12.8571 27.3095V32.6862C12.8559 32.9226 12.7922 33.1544 12.6728 33.3572C12.5534 33.5601 12.3826 33.7266 12.1783 33.8395C11.9732 33.9507 11.7424 34.0037 11.5102 33.9926C11.278 33.9816 11.0531 33.907 10.8591 33.7767L7.71429 31.6428L4.56943 33.7741C4.37659 33.9078 4.15141 33.9853 3.91833 33.9981C3.68526 34.0109 3.45318 33.9586 3.24729 33.8467C3.0414 33.7349 2.86956 33.5678 2.75041 33.3637C2.63127 33.1596 2.56937 32.9262 2.57143 32.6888Z" fill="white"/>
</svg>
