<svg width="48" height="48" viewBox="0 0 48 48" fill="none" xmlns="http://www.w3.org/2000/svg">
<circle cx="24" cy="24" r="23.5" stroke="#FFB257"/>
<path d="M35 34H21.8V31.7895H35V34ZM13 34V31.7895H20.7V34H13ZM30.6 29.5789V20.7368H35V29.5789H30.6ZM30.6 13H35V19.6316H30.6V13ZM13 29.5789V13H28.4V29.5789H13ZM20.7 25.7768C21.5752 25.7768 22.4146 25.4275 23.0335 24.8057C23.6523 24.1838 24 23.3405 24 22.4611C24 20.2505 20.7 16.5258 20.7 16.5258C20.7 16.5258 17.4 20.2505 17.4 22.4611C17.4 23.3405 17.7477 24.1838 18.3665 24.8057C18.9854 25.4275 19.8248 25.7768 20.7 25.7768Z" fill="#FFB257"/>
</svg>
