<svg width="36" height="36" viewBox="0 0 36 36" fill="none" xmlns="http://www.w3.org/2000/svg">
<g clip-path="url(#clip0_370_154)">
<path d="M18.5059 23.8782C18.8434 24.4688 19.3496 24.9469 19.9121 25.2844C20.2496 25.4813 20.6152 25.65 21.009 25.7344C21.3184 25.8188 21.6559 25.8469 22.0215 25.8469C22.359 25.8469 22.6965 25.7907 23.034 25.7344C23.4277 25.65 23.7934 25.4813 24.1309 25.2844C24.7215 24.9469 25.1996 24.4407 25.5371 23.8782C25.734 23.5407 25.9027 23.175 25.9871 22.7813C26.0715 22.4719 26.0996 22.1344 26.0996 21.7688C26.0996 21.4313 26.0434 21.0938 25.9871 20.7563C25.9027 20.3625 25.734 19.9969 25.5371 19.6594C25.1996 19.0688 24.6934 18.5907 24.1309 18.2532C23.7934 18.0563 23.4277 17.8875 23.034 17.8032C22.7246 17.7188 22.3871 17.6907 22.0215 17.6907C21.684 17.6907 21.3465 17.7469 21.009 17.8032C20.6152 17.8875 20.2496 18.0563 19.9121 18.2532C19.3215 18.5907 18.8434 19.0969 18.5059 19.6594C18.309 19.9969 18.1402 20.3625 18.0559 20.7563C17.9715 21.0657 17.9434 21.4032 17.9434 21.7688C17.9434 22.1063 17.9996 22.4438 18.0559 22.7813C18.1402 23.175 18.309 23.5407 18.5059 23.8782Z" fill="white"/>
<path d="M33.6375 19.9687H32.8219C32.5406 18.3093 31.8937 16.7625 30.9375 15.4406L31.5 14.8781C32.2031 14.175 32.2031 13.0218 31.5 12.2906C30.7969 11.5875 29.6156 11.5875 28.9125 12.2906L28.35 12.8531C27.0563 11.8968 25.5094 11.25 23.85 10.9687V10.1531C23.85 9.14058 23.0344 8.32495 22.0219 8.32495C21.4875 8.32495 21.0094 8.54995 20.6719 8.9437C20.8969 9.33745 21.0094 9.78745 21.0094 10.2656C21.0094 11.5593 20.0812 12.6562 18.8719 12.9375C18.7031 13.5281 18.4781 14.0906 18.1687 14.5968C18.3094 14.7937 18.3937 15.0187 18.4781 15.2437C19.0125 14.9625 19.6031 14.7093 20.1938 14.5687C20.7844 14.4281 21.4031 14.3437 22.0219 14.3437C22.6406 14.3437 23.2594 14.4281 23.85 14.5687C24.5531 14.7375 25.2281 15.0187 25.8188 15.3843C26.8875 16.0031 27.7594 16.9031 28.4062 17.9718C28.7719 18.5906 29.0531 19.2375 29.2219 19.9406C29.3625 20.5312 29.4469 21.15 29.4469 21.7687C29.4469 22.3875 29.3625 23.0062 29.2219 23.5968C29.0531 24.3 28.7719 24.975 28.4062 25.5656C27.7875 26.6343 26.8875 27.5062 25.8188 28.1531C25.2 28.5187 24.5531 28.8 23.85 28.9687C23.2594 29.1093 22.6406 29.1937 22.0219 29.1937C21.4031 29.1937 20.7844 29.1093 20.1938 28.9687C19.4906 28.8 18.8156 28.5187 18.225 28.1531C17.1563 27.5343 16.2844 26.6343 15.6375 25.5656C15.2719 24.9468 14.9906 24.3 14.8219 23.5968C14.6813 23.0062 14.5969 22.3875 14.5969 21.7687C14.5969 21.15 14.6813 20.5312 14.8219 19.9406C14.9344 19.5187 15.075 19.0968 15.2438 18.7031C14.9344 18.6187 14.6531 18.5062 14.4 18.3375C13.8656 18.6187 13.3031 18.8437 12.7406 19.0406C12.4875 20.2781 11.3906 21.1781 10.0687 21.1781C9.61875 21.1781 9.19687 21.0656 8.80312 20.8687C8.6625 21.1218 8.57812 21.4312 8.57812 21.7406C8.57812 22.7531 9.39375 23.5687 10.4062 23.5687H11.2219C11.5031 25.2281 12.15 26.775 13.1062 28.0968L12.5437 28.6593C11.8406 29.3625 11.8406 30.5156 12.5437 31.2468C12.9094 31.6125 13.3594 31.7812 13.8375 31.7812C14.3156 31.7812 14.7656 31.6125 15.1312 31.2468L15.6937 30.6843C17.0156 31.6125 18.5625 32.2875 20.2219 32.5687V33.3843C20.2219 34.3968 21.0375 35.2125 22.05 35.2125C23.0625 35.2125 23.8781 34.3968 23.8781 33.3843V32.5687C25.5375 32.2875 27.0844 31.6406 28.4062 30.6843L28.9688 31.2468C29.3344 31.6125 29.7844 31.7812 30.2625 31.7812C30.7406 31.7812 31.1906 31.6125 31.5562 31.2468C32.2594 30.5437 32.2594 29.3625 31.5562 28.6593L30.9937 28.0968C31.9219 26.775 32.5969 25.2281 32.8781 23.5687H33.6938C34.7063 23.5687 35.5219 22.7531 35.5219 21.7406C35.4656 20.7843 34.65 19.9687 33.6375 19.9687Z" fill="white"/>
<path d="M8.74687 18.478C8.74687 19.1812 9.3375 19.7718 10.0406 19.7718C10.7438 19.7718 11.3344 19.1812 11.3344 18.478V17.9155C12.5156 17.7187 13.6125 17.2687 14.5406 16.5937L14.9344 16.9874C15.1875 17.2405 15.525 17.353 15.8344 17.353C16.1719 17.353 16.4812 17.2405 16.7344 16.9874C17.2406 16.4812 17.2406 15.6655 16.7344 15.1593L16.3406 14.7655C17.0156 13.8374 17.4656 12.7405 17.6625 11.5593H18.225C18.9281 11.5593 19.5188 10.9687 19.5188 10.2655C19.5188 9.5624 18.9281 8.97178 18.225 8.97178H17.6625C17.4656 7.79053 16.9875 6.69365 16.3406 5.76553L16.7344 5.37178C17.2406 4.86553 17.2406 4.0499 16.7344 3.54365C16.2281 3.0374 15.4125 3.0374 14.9062 3.54365L14.5406 3.9374C13.6125 3.2624 12.5156 2.8124 11.3344 2.61553V2.05303C11.3344 1.3499 10.7438 0.759277 10.0406 0.759277C9.3375 0.759277 8.74687 1.3499 8.74687 2.05303V2.61553C7.59375 2.8124 6.49687 3.29053 5.56875 3.9374L5.175 3.54365C4.66875 3.0374 3.85312 3.0374 3.34687 3.54365C2.84062 4.0499 2.84062 4.86553 3.34687 5.37178L3.74063 5.76553C3.06562 6.69365 2.61563 7.79053 2.41875 8.97178H1.85625C1.15312 8.97178 0.5625 9.5624 0.5625 10.2655C0.5625 10.9687 1.15312 11.5593 1.85625 11.5593H2.41875C2.61563 12.7405 3.06562 13.8374 3.74063 14.7655L3.34687 15.1593C2.84062 15.6655 2.84062 16.4812 3.34687 16.9874C3.6 17.2405 3.9375 17.353 4.24688 17.353C4.58437 17.353 4.92188 17.2405 5.14687 16.9874L5.54063 16.5937C6.46875 17.2687 7.56563 17.7187 8.74687 17.9155V18.478ZM7.90313 13.8655C7.3125 13.4999 6.80625 13.0218 6.44062 12.403C6.24375 12.0655 6.075 11.6999 5.99062 11.278C5.90625 10.9405 5.85 10.603 5.85 10.2655C5.85 9.8999 5.90625 9.5624 5.99062 9.25303C6.10312 8.85928 6.24375 8.49365 6.44062 8.12803C6.80625 7.5374 7.28438 7.03115 7.90313 6.66553C8.24062 6.46865 8.60625 6.2999 9.02812 6.21553C9.36562 6.13115 9.70312 6.0749 10.0406 6.0749C10.4062 6.0749 10.7437 6.13115 11.0531 6.21553C11.4469 6.32803 11.8125 6.46865 12.1781 6.66553C12.7688 7.03115 13.275 7.50928 13.6406 8.12803C13.8375 8.46553 14.0062 8.83115 14.0906 9.25303C14.175 9.59053 14.2312 9.92803 14.2312 10.2655C14.2312 10.6312 14.175 10.9687 14.0906 11.278C13.9781 11.6718 13.8375 12.0374 13.6406 12.403C13.275 12.9937 12.7969 13.4999 12.1781 13.8655C11.8406 14.0624 11.475 14.2312 11.0531 14.3155C10.7156 14.3999 10.3781 14.4562 10.0406 14.4562C9.675 14.4562 9.3375 14.3999 9.02812 14.3155C8.63437 14.2312 8.26875 14.0624 7.90313 13.8655Z" fill="white"/>
</g>
<defs>
<clipPath id="clip0_370_154">
<rect width="36" height="36" fill="white"/>
</clipPath>
</defs>
</svg>
