<svg width="36" height="36" viewBox="0 0 36 36" fill="none" xmlns="http://www.w3.org/2000/svg">
<path fill-rule="evenodd" clip-rule="evenodd" d="M15.8804 3.15C16.4114 2.61971 17.1218 2.30768 17.8716 2.27547C18.6213 2.24326 19.3559 2.49321 19.9304 2.976L20.1224 3.1515L22.9724 6H27.0014C27.758 6.00014 28.4866 6.28616 29.0413 6.80076C29.5959 7.31536 29.9357 8.02053 29.9924 8.775L30.0014 9V13.029L32.8514 15.879C33.3821 16.4101 33.6944 17.1208 33.7266 17.8709C33.7589 18.621 33.5086 19.3559 33.0254 19.9305L32.8499 20.121L29.9999 22.971V27C30.0002 27.7569 29.7143 28.4859 29.1997 29.0408C28.685 29.5958 27.9797 29.9357 27.2249 29.9925L27.0014 30H22.9739L20.1239 32.85C19.5929 33.3807 18.8821 33.693 18.132 33.7252C17.3819 33.7574 16.647 33.5072 16.0724 33.024L15.8819 32.85L13.0319 30H9.00142C8.24456 30.0002 7.51557 29.7144 6.9606 29.1998C6.40563 28.6851 6.06569 27.9797 6.00892 27.225L6.00142 27V22.971L3.15142 20.121C2.62071 19.5899 2.30842 18.8792 2.2762 18.1291C2.24399 17.379 2.4942 16.6441 2.97742 16.0695L3.15142 15.879L6.00142 13.029V9C6.00156 8.2434 6.28758 7.51478 6.80218 6.96013C7.31677 6.40548 8.02195 6.06575 8.77642 6.009L9.00142 6H13.0304L15.8804 3.15ZM22.6199 13.4745L16.2539 19.8405L13.6019 17.1885C13.3205 16.9072 12.9388 16.7493 12.5409 16.7494C12.143 16.7496 11.7614 16.9078 11.4802 17.1893C11.1989 17.4707 11.041 17.8524 11.0411 18.2503C11.0413 18.6482 11.1995 19.0297 11.4809 19.311L15.0869 22.917C15.2401 23.0703 15.4221 23.1919 15.6223 23.2749C15.8226 23.3578 16.0372 23.4006 16.2539 23.4006C16.4707 23.4006 16.6853 23.3578 16.8855 23.2749C17.0858 23.1919 17.2677 23.0703 17.4209 22.917L24.7409 15.5955C25.0142 15.3126 25.1653 14.9337 25.1619 14.5404C25.1585 14.1471 25.0008 13.7709 24.7226 13.4928C24.4445 13.2147 24.0683 13.0569 23.675 13.0535C23.2817 13.0501 22.9028 13.2013 22.6199 13.4745Z" fill="white"/>
</svg>
