<svg width="20" height="20" viewBox="0 0 20 20" fill="none" xmlns="http://www.w3.org/2000/svg">
<path d="M8 0.387695H12C12.5304 0.387695 13.0391 0.598409 13.4142 0.973482C13.7893 1.34855 14 1.85726 14 2.3877V4.3877H18C18.5304 4.3877 19.0391 4.59841 19.4142 4.97348C19.7893 5.34855 20 5.85726 20 6.3877V17.3877C20 17.9181 19.7893 18.4268 19.4142 18.8019C19.0391 19.177 18.5304 19.3877 18 19.3877H2C1.46957 19.3877 0.960859 19.177 0.585786 18.8019C0.210714 18.4268 0 17.9181 0 17.3877V6.3877C0 5.2777 0.89 4.3877 2 4.3877H6V2.3877C6 1.2777 6.89 0.387695 8 0.387695ZM12 4.3877V2.3877H8V4.3877H12Z" fill="white"/>
</svg>
