<svg width="25" height="20" viewBox="0 0 25 20" fill="none" xmlns="http://www.w3.org/2000/svg">
<path d="M11.1111 0.387695C10.3429 0.387695 9.72222 0.994168 9.72222 1.74484V6.06649C9.72222 6.30399 9.52691 6.49484 9.28385 6.49484C9.1276 6.49484 8.98003 6.41426 8.90191 6.27854L6.81858 2.72028C3.60243 4.26828 1.38889 7.50421 1.38889 11.2448V13.9591H23.6111V11.1431C23.572 7.44484 21.3672 4.25555 18.1814 2.72028L16.0981 6.27854C16.02 6.41426 15.8724 6.49484 15.7161 6.49484C15.4731 6.49484 15.2778 6.30399 15.2778 6.06649V1.74484C15.2778 0.994168 14.6571 0.387695 13.8889 0.387695H11.1111ZM0.720486 15.3163C0.321181 15.3163 0 15.6301 0 16.0203C0 16.2196 0.0868056 16.4105 0.251736 16.525C1.19358 17.1993 4.85243 19.3877 12.5 19.3877C20.1476 19.3877 23.8064 17.1993 24.7483 16.525C24.9132 16.4062 25 16.2196 25 16.0203C25 15.6301 24.6788 15.3163 24.2795 15.3163H0.720486Z" fill="white"/>
</svg>
