<svg width="23" height="24" viewBox="0 0 23 24" fill="none" xmlns="http://www.w3.org/2000/svg">
<path d="M20.1237 19.5544H22.0404V21.4711H0.957031V19.5544H2.8737V3.26278C2.8737 3.00861 2.97466 2.76485 3.15439 2.58513C3.33411 2.40541 3.57787 2.30444 3.83203 2.30444H19.1654C19.4195 2.30444 19.6633 2.40541 19.843 2.58513C20.0227 2.76485 20.1237 3.00861 20.1237 3.26278V19.5544ZM7.66536 10.9294V12.8461H10.5404V10.9294H7.66536ZM7.66536 7.09611V9.01278H10.5404V7.09611H7.66536ZM7.66536 14.7628V16.6794H10.5404V14.7628H7.66536ZM12.457 14.7628V16.6794H15.332V14.7628H12.457ZM12.457 10.9294V12.8461H15.332V10.9294H12.457ZM12.457 7.09611V9.01278H15.332V7.09611H12.457Z" fill="white"/>
</svg>
