<svg width="41" height="41" viewBox="0 0 41 41" fill="none" xmlns="http://www.w3.org/2000/svg">
<g clip-path="url(#clip0_354_1654)">
<path d="M41.0008 28.4437C41.0008 24.6 37.157 21.2687 32.8008 19.9875C29.4695 23.8312 22.807 26.1375 16.4008 26.1375H15.1195C14.8633 26.9062 14.8633 27.4187 14.8633 28.1875C14.8633 33.3125 20.5008 37.4125 27.6758 37.4125H29.2133C30.2383 38.6937 33.5695 41 37.9258 41C37.9258 41 35.8758 39.975 35.8758 36.3875C35.8758 34.85 41.0008 31.775 41.0008 28.4437Z" fill="#FFB257"/>
<path d="M33.3125 11.7875C33.3125 5.38125 26.1375 0 16.9125 0C7.6875 0 0 5.38125 0 11.7875C0 16.1437 5.125 19.9875 7.6875 22.0375C7.6875 26.65 4.1 28.1875 4.1 28.1875C9.99375 28.1875 13.325 25.3687 14.8625 23.575H16.9125C25.8813 23.8312 33.3125 18.45 33.3125 11.7875Z" fill="#FFB257"/>
</g>
<defs>
<clipPath id="clip0_354_1654">
<rect width="41" height="41" fill="white"/>
</clipPath>
</defs>
</svg>
