<svg width="30" height="30" viewBox="0 0 30 30" fill="none" xmlns="http://www.w3.org/2000/svg">
<path d="M4.99862 13.75C5.31721 13.7504 5.62366 13.8723 5.85533 14.0911C6.087 14.3098 6.22641 14.6087 6.24508 14.9267C6.26375 15.2448 6.16027 15.558 5.95578 15.8023C5.7513 16.0466 5.46124 16.2036 5.14487 16.2413L4.99862 16.25H3.74862C3.43002 16.2496 3.12357 16.1277 2.8919 15.9089C2.66023 15.6902 2.52082 15.3913 2.50215 15.0733C2.48348 14.7552 2.58696 14.442 2.79145 14.1977C2.99593 13.9534 3.286 13.7964 3.60237 13.7587L3.74862 13.75H4.99862ZM14.9986 2.5C15.3048 2.50004 15.6003 2.61245 15.8291 2.81589C16.0579 3.01934 16.204 3.29969 16.2399 3.60375L16.2486 3.75V5C16.2483 5.3186 16.1263 5.62504 15.9076 5.85671C15.6888 6.08838 15.3899 6.22779 15.0719 6.24646C14.7538 6.26514 14.4406 6.16166 14.1963 5.95717C13.952 5.75268 13.795 5.46262 13.7574 5.14625L13.7486 5V3.75C13.7486 3.41848 13.8803 3.10054 14.1147 2.86612C14.3492 2.6317 14.6671 2.5 14.9986 2.5ZM26.2486 13.75C26.5672 13.7504 26.8737 13.8723 27.1053 14.0911C27.337 14.3098 27.4764 14.6087 27.4951 14.9267C27.5138 15.2448 27.4103 15.558 27.2058 15.8023C27.0013 16.0466 26.7112 16.2036 26.3949 16.2413L26.2486 16.25H24.9986C24.68 16.2496 24.3736 16.1277 24.1419 15.9089C23.9102 15.6902 23.7708 15.3913 23.7522 15.0733C23.7335 14.7552 23.837 14.442 24.0414 14.1977C24.2459 13.9534 24.536 13.7964 24.8524 13.7587L24.9986 13.75H26.2486ZM6.11487 6.11625C6.33011 5.90103 6.61648 5.77174 6.92026 5.75264C7.22405 5.73354 7.52436 5.82594 7.76486 6.0125L7.88237 6.11625L8.75737 6.99125C8.98155 7.2162 9.11171 7.51804 9.1214 7.83548C9.13109 8.15292 9.0196 8.46214 8.80955 8.70035C8.59951 8.93855 8.30668 9.08788 7.99052 9.118C7.67437 9.14812 7.3586 9.05677 7.10736 8.8625L6.98986 8.75875L6.11487 7.88375C5.88053 7.64934 5.74888 7.33146 5.74888 7C5.74888 6.66854 5.88053 6.35066 6.11487 6.11625ZM22.1149 6.11625C22.3398 5.89207 22.6417 5.76191 22.9591 5.75221C23.2765 5.74252 23.5858 5.85402 23.824 6.06406C24.0622 6.2741 24.2115 6.56694 24.2416 6.88309C24.2717 7.19925 24.1804 7.51501 23.9861 7.76625L23.8824 7.88375L23.0074 8.75875C22.7824 8.98293 22.4806 9.11309 22.1631 9.12279C21.8457 9.13248 21.5365 9.02098 21.2983 8.81094C21.0601 8.6009 20.9107 8.30806 20.8806 7.99191C20.8505 7.67575 20.9419 7.35999 21.1361 7.10875L21.2399 6.99125L22.1149 6.11625ZM17.4986 22.5C17.8301 22.5 18.1481 22.6317 18.3825 22.8661C18.6169 23.1005 18.7486 23.4185 18.7486 23.75C18.7486 24.7446 18.3535 25.6984 17.6503 26.4017C16.947 27.1049 15.9932 27.5 14.9986 27.5C14.0041 27.5 13.0502 27.1049 12.347 26.4017C11.6437 25.6984 11.2486 24.7446 11.2486 23.75C11.2487 23.4438 11.3611 23.1483 11.5645 22.9195C11.768 22.6907 12.0483 22.5446 12.3524 22.5088L12.4986 22.5H17.4986ZM14.9986 7.5C16.5727 7.5 18.107 7.99528 19.3839 8.91568C20.6609 9.83609 21.616 11.135 22.1137 12.6283C22.6115 14.1216 22.6268 15.7337 22.1575 17.2363C21.6881 18.7388 20.7579 20.0555 19.4986 21C19.3263 21.1294 19.1235 21.2121 18.9099 21.24L18.7486 21.25H11.2486C10.9782 21.25 10.715 21.1623 10.4986 21C9.23932 20.0555 8.30911 18.7388 7.83976 17.2363C7.37041 15.7337 7.38571 14.1216 7.88349 12.6283C8.38127 11.135 9.3363 9.83609 10.6133 8.91568C11.8903 7.99528 13.4245 7.5 14.9986 7.5Z" fill="#A5A5A5"/>
</svg>
