<svg width="26" height="23" viewBox="0 0 26 23" fill="none" xmlns="http://www.w3.org/2000/svg">
<path d="M6.06641 16.4336H9.53307V21.6336H6.06641V16.4336Z" fill="#A5A5A5"/>
<path d="M0 0.833496V22.5002H5.18237V15.2322H11.2637V22.5002H16.4461V0.833496H0ZM6.27525 12.0691H3.15525V10.6978H6.27525V12.0691ZM6.27525 8.8785H3.15525V7.5072H6.27525V8.8785ZM6.27525 5.68793H3.15525V4.31662H6.27525V5.68793ZM13.1675 12.0691H10.0475V10.6978H13.1675V12.0691ZM13.1675 8.8785H10.0475V7.5072H13.1675V8.8785ZM13.1675 5.68793H10.0475V4.31662H13.1675V5.68793ZM17.7681 6.8124V22.5002H26V6.8124H17.7681ZM24.4488 15.9179H19.3193V14.5466H24.4488V15.9179ZM24.4488 11.804H19.3193V10.4327H24.4488V11.804Z" fill="#A5A5A5"/>
</svg>
