<svg width="28" height="26" viewBox="0 0 28 26" fill="none" xmlns="http://www.w3.org/2000/svg">
<path d="M13.7612 18.2144C13.7612 16.2805 11.8521 14.3386 9.58871 12.7516C8.65592 12.0975 9.18231 10.4946 10.2759 10.8138C19.8706 13.6136 21.894 20.4966 21.5558 24.6656C21.5164 25.1511 21.0956 25.5001 20.6085 25.5001H11.0469C9.89048 25.5001 9.44713 23.2805 10.4161 22.6493C12.2986 21.423 13.7612 19.907 13.7612 18.2144Z" fill="#A5A5A5"/>
<path d="M20.24 14.5714V11.1229C19.8595 11.2605 19.4547 11.3333 19.0257 11.3333C17.0019 11.3333 15.3828 9.71429 15.3828 7.69048C15.3828 6.66238 15.7876 5.73952 16.4838 5.07571C16.2976 4.63857 16.1923 4.15286 16.1923 3.64286C16.1923 1.61905 17.8114 0 19.8352 0C21.0981 0 22.2152 0.647619 22.8709 1.61905H23.0733C23.658 1.61905 24.237 1.73421 24.7771 1.95796C25.3173 2.18172 25.8082 2.50968 26.2216 2.92312C26.635 3.33656 26.963 3.82739 27.1868 4.36758C27.4105 4.90776 27.5257 5.48673 27.5257 6.07143C27.5257 6.65612 27.4105 7.23509 27.1868 7.77528C26.963 8.31547 26.635 8.8063 26.2216 9.21974C25.8082 9.63318 25.3173 9.96114 24.7771 10.1849C24.237 10.4086 23.658 10.5238 23.0733 10.5238C22.6685 10.5238 22.2638 10.4671 21.859 10.3538V14.5714H20.24Z" fill="#A5A5A5"/>
<path d="M3.2381 22.6667V20.3676C2.98444 20.4594 2.7146 20.5079 2.42857 20.5079C1.07937 20.5079 0 19.4286 0 18.0794C0 17.394 0.269841 16.7787 0.733968 16.3362C0.609841 16.0448 0.539683 15.721 0.539683 15.381C0.539683 14.0318 1.61905 12.9524 2.96825 12.9524C3.81016 12.9524 4.55492 13.3841 4.99206 14.0318H5.12698C5.51678 14.0318 5.90276 14.1085 6.26289 14.2577C6.62301 14.4069 6.95023 14.6255 7.22586 14.9011C7.50148 15.1768 7.72012 15.504 7.86929 15.8641C8.01846 16.2242 8.09524 16.6102 8.09524 17C8.09524 17.3898 8.01846 17.7758 7.86929 18.1359C7.72012 18.496 7.50148 18.8233 7.22586 19.0989C6.95023 19.3745 6.62301 19.5932 6.26289 19.7423C5.90276 19.8915 5.51678 19.9683 5.12698 19.9683C4.85714 19.9683 4.5873 19.9305 4.31746 19.8549V22.6667H3.2381Z" fill="#A5A5A5"/>
</svg>
