<svg width="28" height="28" viewBox="0 0 28 28" fill="none" xmlns="http://www.w3.org/2000/svg">
<path d="M14.2838 0.785198C14.246 0.484198 13.7518 0.484198 13.7154 0.785198C12.4792 10.735 6.1582 12.786 6.1582 19.702C6.1582 23.9762 9.7478 27.4398 13.9996 27.4398C18.25 27.4398 21.8396 23.9748 21.8396 19.702C21.8396 12.786 15.52 10.735 14.2838 0.785198ZM13.0896 11.785C13.007 12.0916 12.9174 12.4066 12.825 12.7342C12.2636 14.7278 11.6266 16.9888 11.6266 19.6026C11.6266 21.0194 10.7894 21.522 10.0082 21.522C9.79475 21.5211 9.58357 21.4781 9.38672 21.3956C9.18987 21.3131 9.0112 21.1926 8.86092 21.041C8.71063 20.8894 8.59168 20.7097 8.51085 20.5121C8.43001 20.3146 8.38888 20.103 8.3898 19.8896C8.3898 16.7998 9.8766 14.781 11.1898 13.0016C11.6028 12.4444 11.9906 11.9166 12.3056 11.3916C12.4498 11.1508 12.8376 11.162 13.014 11.4C13.0966 11.512 13.1246 11.6548 13.0896 11.785Z" fill="#57C3FF"/>
</svg>
