<svg width="29" height="29" viewBox="0 0 29 29" fill="none" xmlns="http://www.w3.org/2000/svg">
<path d="M6.24903 3.24418C6.90418 2.80657 7.59494 2.42479 8.31403 2.10288C10.345 1.1925 11.3605 0.738054 12.7105 1.61438C14.062 2.48775 14.062 3.92363 14.062 6.79539V9.01582C14.062 11.8076 14.062 13.2021 14.9294 14.0695C15.7969 14.937 17.1913 14.937 19.9831 14.937H22.2036C25.0753 14.937 26.5112 14.937 27.3846 16.287C28.2609 17.6385 27.8065 18.654 26.8961 20.6834C25.5948 23.5906 23.345 25.9698 20.5151 27.4314C17.6852 28.893 14.4429 29.3505 11.319 28.7288C8.59123 28.1862 6.0856 26.8469 4.11895 24.8803C2.15231 22.9136 0.812971 20.408 0.270298 17.6802C-0.272374 14.9525 0.00598875 12.125 1.07019 9.55543C2.13439 6.98585 3.93663 4.78952 6.24903 3.24418Z" fill="#6AD8BD"/>
<path d="M28.7859 6.89762C28.1884 5.38557 27.287 4.01224 26.1374 2.86262C24.9878 1.71301 23.6144 0.811575 22.1024 0.21412C19.8198 -0.684415 17.7637 1.38355 17.7637 3.8349V9.75605C17.7637 10.1486 17.9196 10.5252 18.1972 10.8028C18.4748 11.0804 18.8514 11.2363 19.244 11.2363H25.1651C27.6179 11.2363 29.6844 9.17874 28.7859 6.89762Z" fill="#6AD8BD"/>
</svg>
