<svg width="14" height="27" viewBox="0 0 14 27" fill="none" xmlns="http://www.w3.org/2000/svg">
<path d="M11.2 14.85V4.05C11.2 2.97587 10.7575 1.94574 9.96985 1.18622C9.1822 0.426695 8.11391 0 7 0C5.88609 0 4.8178 0.426695 4.03015 1.18622C3.2425 1.94574 2.8 2.97587 2.8 4.05V14.85C1.62466 15.7 0.756466 16.8851 0.318405 18.2374C-0.119656 19.5896 -0.105378 21.0405 0.359217 22.3845C0.823812 23.7285 1.71517 24.8975 2.90703 25.7259C4.09889 26.5542 5.53082 27 7 27C8.46918 27 9.90111 26.5542 11.093 25.7259C12.2848 24.8975 13.1762 23.7285 13.6408 22.3845C14.1054 21.0405 14.1197 19.5896 13.6816 18.2374C13.2435 16.8851 12.3753 15.7 11.2 14.85ZM7 2.7C7.3713 2.7 7.7274 2.84223 7.98995 3.09541C8.2525 3.34858 8.4 3.69196 8.4 4.05V8.1H5.6V4.05C5.6 3.69196 5.7475 3.34858 6.01005 3.09541C6.2726 2.84223 6.6287 2.7 7 2.7Z" fill="#FFB257"/>
</svg>
