<svg width="38" height="38" viewBox="0 0 38 38" fill="none" xmlns="http://www.w3.org/2000/svg">
<path d="M37.4475 34.7496L34.7498 37.4475C34.3938 37.8014 33.9123 38 33.4104 38C32.9084 38 32.4269 37.8014 32.071 37.4475L9.50075 14.9144C8.88294 15.0934 8.24403 15.1892 7.6009 15.1994C6.39127 15.1985 5.19933 14.9089 4.12416 14.3546C3.04899 13.8003 2.12167 12.9974 1.41929 12.0125C0.716912 11.0277 0.25977 9.88936 0.0858716 8.69225C-0.0880268 7.49514 0.0263433 6.2738 0.419473 5.1298L5.24509 9.9556L6.25201 8.94864L8.9498 6.25075L9.95672 5.24379L5.1311 0.417983C6.27506 0.0248382 7.49634 -0.0895364 8.69341 0.0843688C9.89047 0.258274 11.0287 0.715435 12.0135 1.41784C12.9984 2.12025 13.8013 3.04761 14.3556 4.12282C14.9098 5.19803 15.1994 6.39002 15.2003 7.5997C15.1901 8.24286 15.0943 8.88179 14.9153 9.49962L37.4475 32.0707C37.8014 32.4267 38 32.9082 38 33.4102C38 33.9121 37.8014 34.3937 37.4475 34.7496ZM0.552462 32.0707C0.198614 32.4267 0 32.9082 0 33.4102C0 33.9121 0.198614 34.3937 0.552462 34.7496L3.25025 37.4475C3.60621 37.8014 4.08773 38 4.58964 38C5.09156 38 5.57308 37.8014 5.92904 37.4475L16.3212 27.0739L10.9446 21.6971M34.1988 0L26.5994 3.79985V7.5997L22.4767 11.7225L26.2764 15.5224L30.3991 11.3995H34.1988L37.9985 3.79985L34.1988 0Z" fill="#FFB257"/>
</svg>
