<svg width="33" height="46" viewBox="0 0 33 46" fill="none" xmlns="http://www.w3.org/2000/svg">
<path fill-rule="evenodd" clip-rule="evenodd" d="M0 3.45V37.95C0 38.865 0.363481 39.7425 1.01048 40.3895C1.65748 41.0365 2.535 41.4 3.45 41.4H18.4V37.3348C17.523 36.8284 16.8377 36.0469 16.4502 35.1114C16.0626 34.1758 15.9947 33.1386 16.2567 32.1605C16.5188 31.1824 17.0963 30.3181 17.8997 29.7016C18.7031 29.0852 19.6874 28.751 20.7 28.751C21.7126 28.751 22.6969 29.0852 23.5003 29.7016C24.3037 30.3181 24.8812 31.1824 25.1433 32.1605C25.4053 33.1386 25.3374 34.1758 24.9498 35.1114C24.5623 36.0469 23.877 36.8284 23 37.3348V41.4H28.75C29.665 41.4 30.5425 41.0365 31.1895 40.3895C31.8365 39.7425 32.2 38.865 32.2 37.95V3.45C32.2 2.535 31.8365 1.65748 31.1895 1.01048C30.5425 0.363481 29.665 0 28.75 0H3.45C2.535 0 1.65748 0.363481 1.01048 1.01048C0.363481 1.65748 0 2.535 0 3.45ZM20.7 35.65C21.31 35.65 21.895 35.4077 22.3263 34.9763C22.7577 34.545 23 33.96 23 33.35C23 32.74 22.7577 32.155 22.3263 31.7237C21.895 31.2923 21.31 31.05 20.7 31.05C20.09 31.05 19.505 31.2923 19.0737 31.7237C18.6423 32.155 18.4 32.74 18.4 33.35C18.4 33.96 18.6423 34.545 19.0737 34.9763C19.505 35.4077 20.09 35.65 20.7 35.65ZM9.2 8.05C9.2 7.745 9.32116 7.4525 9.53683 7.23683C9.75249 7.02116 10.045 6.9 10.35 6.9H21.85C22.155 6.9 22.4475 7.02116 22.6632 7.23683C22.8788 7.4525 23 7.745 23 8.05C23 8.355 22.8788 8.64751 22.6632 8.86317C22.4475 9.07884 22.155 9.2 21.85 9.2H10.35C10.045 9.2 9.75249 9.07884 9.53683 8.86317C9.32116 8.64751 9.2 8.355 9.2 8.05ZM5.75 13.8C5.445 13.8 5.15249 13.9212 4.93683 14.1368C4.72116 14.3525 4.6 14.645 4.6 14.95C4.6 15.255 4.72116 15.5475 4.93683 15.7632C5.15249 15.9788 5.445 16.1 5.75 16.1H26.45C26.755 16.1 27.0475 15.9788 27.2632 15.7632C27.4788 15.5475 27.6 15.255 27.6 14.95C27.6 14.645 27.4788 14.3525 27.2632 14.1368C27.0475 13.9212 26.755 13.8 26.45 13.8H5.75ZM4.6 19.55C4.6 19.245 4.72116 18.9525 4.93683 18.7368C5.15249 18.5212 5.445 18.4 5.75 18.4H26.45C26.755 18.4 27.0475 18.5212 27.2632 18.7368C27.4788 18.9525 27.6 19.245 27.6 19.55C27.6 19.855 27.4788 20.1475 27.2632 20.3632C27.0475 20.5788 26.755 20.7 26.45 20.7H5.75C5.445 20.7 5.15249 20.5788 4.93683 20.3632C4.72116 20.1475 4.6 19.855 4.6 19.55ZM5.75 23C5.445 23 5.15249 23.1212 4.93683 23.3368C4.72116 23.5525 4.6 23.845 4.6 24.15C4.6 24.455 4.72116 24.7475 4.93683 24.9632C5.15249 25.1788 5.445 25.3 5.75 25.3H26.45C26.755 25.3 27.0475 25.1788 27.2632 24.9632C27.4788 24.7475 27.6 24.455 27.6 24.15C27.6 23.845 27.4788 23.5525 27.2632 23.3368C27.0475 23.1212 26.755 23 26.45 23H5.75Z" fill="#FFB257"/>
<path d="M18.3984 46V41.4H22.9984V46L20.6984 44.275L18.3984 46Z" fill="#FFB257"/>
</svg>
