<svg width="48" height="37" viewBox="0 0 48 37" fill="none" xmlns="http://www.w3.org/2000/svg">
<path d="M0 0V3.46875C0 13.0656 5.17463 21.46 12.878 26.1313V37H48V32.375C48 26.2237 35.52 23.125 29.2683 23.125H28.6829C17.561 23.125 8.19512 13.875 8.19512 3.46875V0M29.2683 0C26.7843 0 24.4021 0.97455 22.6456 2.70926C20.8892 4.44397 19.9024 6.79675 19.9024 9.25C19.9024 11.7033 20.8892 14.056 22.6456 15.7907C24.4021 17.5254 26.7843 18.5 29.2683 18.5C31.7523 18.5 34.1345 17.5254 35.8909 15.7907C37.6474 14.056 38.6341 11.7033 38.6341 9.25C38.6341 6.79675 37.6474 4.44397 35.8909 2.70926C34.1345 0.97455 31.7523 0 29.2683 0Z" fill="#FFB257"/>
</svg>
