<svg width="42" height="42" viewBox="0 0 42 42" fill="none" xmlns="http://www.w3.org/2000/svg">
<mask id="mask0_354_1323" style="mask-type:luminance" maskUnits="userSpaceOnUse" x="0" y="0" width="42" height="42">
<path d="M2 16H40V38C40 38.5304 39.7893 39.0391 39.4142 39.4142C39.0391 39.7893 38.5304 40 38 40H4C3.46957 40 2.96086 39.7893 2.58579 39.4142C2.21071 39.0391 2 38.5304 2 38V16Z" fill="white" stroke="white" stroke-width="4" stroke-linejoin="round"/>
<path d="M2 7C2 6.46957 2.21071 5.96086 2.58579 5.58579C2.96086 5.21071 3.46957 5 4 5H38C38.5304 5 39.0391 5.21071 39.4142 5.58579C39.7893 5.96086 40 6.46957 40 7V16H2V7Z" stroke="white" stroke-width="4" stroke-linejoin="round"/>
<path d="M13 28L19 34L31 22" stroke="black" stroke-width="4" stroke-linecap="round" stroke-linejoin="round"/>
<path d="M13 2V10M29 2V10" stroke="white" stroke-width="4" stroke-linecap="round"/>
</mask>
<g mask="url(#mask0_354_1323)">
<path d="M-3 -3H45V45H-3V-3Z" fill="#FFB257"/>
</g>
</svg>
