<svg width="41" height="41" viewBox="0 0 41 41" fill="none" xmlns="http://www.w3.org/2000/svg">
<path d="M3.11074 30.6437V37.8893H10.3563L31.7257 16.5005L24.4802 9.25495L3.11074 30.6437ZM41 32.7884L32.7884 41L22.7413 30.9529L26.1612 27.533L28.0933 29.4651L32.8657 24.6734L35.6093 27.4171L32.7884 30.1607L34.8365 32.0928L37.5801 29.3878L41 32.7884ZM10.0858 18.2394L0 8.21159L8.21159 0L11.6122 3.41989L6.83977 8.21159L8.90716 10.2597L13.6602 5.46795L16.4039 8.21159L13.6602 10.9359L15.5924 12.868L10.0858 18.2394ZM37.3289 10.8393C38.0825 10.0858 38.0825 8.90716 37.3289 8.11499L32.8077 3.67106C32.0928 2.91753 30.8369 2.91753 30.0834 3.67106L26.5283 7.20688L33.7738 14.4524L37.3289 10.8393Z" fill="#FFB257"/>
</svg>
