<svg width="165" height="48" viewBox="0 0 165 48" fill="none" xmlns="http://www.w3.org/2000/svg">
<path fill-rule="evenodd" clip-rule="evenodd" d="M5.51562 22.85V25.9809L11.1179 29.6783V26.5474L5.51562 22.85Z" fill="#D77D1A"/>
<path fill-rule="evenodd" clip-rule="evenodd" d="M18.9219 14.0038V18.1321L30.7843 25.939L30.7832 21.8317L18.9219 14.0038Z" fill="#D77D1A"/>
<path fill-rule="evenodd" clip-rule="evenodd" d="M30.7832 21.8317V23.8694L42.6456 16.7137V14.0016L30.7832 21.8317Z" fill="#AE4609"/>
<mask id="mask0_435_2616" style="mask-type:luminance" maskUnits="userSpaceOnUse" x="18" y="6" width="25" height="16">
<path d="M30.7843 6.17371L18.9219 14.0038L30.7832 21.8317L42.6456 14.0027L30.7843 6.17371Z" fill="white"/>
</mask>
<g mask="url(#mask0_435_2616)">
<path d="M42.6456 6.17371H18.9219V21.8306H42.6456V6.17371Z" fill="url(#paint0_linear_435_2616)"/>
</g>
<mask id="mask1_435_2616" style="mask-type:luminance" maskUnits="userSpaceOnUse" x="5" y="15" width="18" height="12">
<path d="M17.378 15.021L5.51562 22.85L11.1179 26.5474L22.9803 18.7184L17.378 15.021Z" fill="white"/>
</mask>
<g mask="url(#mask1_435_2616)">
<path d="M22.9792 15.021H5.51562V26.5474H22.9792V15.021Z" fill="url(#paint1_linear_435_2616)"/>
</g>
<path d="M113.153 39.3599C113.463 39.3599 113.743 39.2894 113.994 39.1494C114.245 39.0095 114.441 38.8144 114.584 38.5653C114.726 38.3163 114.797 38.0374 114.797 37.73C114.797 37.4225 114.726 37.1448 114.584 36.8946C114.442 36.6456 114.245 36.4505 113.994 36.3105C113.743 36.1695 113.463 36.1 113.153 36.1C112.842 36.1 112.561 36.1706 112.308 36.3105C112.056 36.4516 111.857 36.6456 111.713 36.8946C111.569 37.1437 111.497 37.4225 111.497 37.73C111.497 38.0374 111.57 38.3163 111.713 38.5653C111.857 38.8144 112.055 39.0095 112.308 39.1494C112.561 39.2894 112.842 39.3599 113.153 39.3599ZM113.153 39.7302C112.763 39.7302 112.411 39.6431 112.094 39.469C111.779 39.2949 111.531 39.0557 111.354 38.7516C111.177 38.4485 111.088 38.1069 111.088 37.7278C111.088 37.3498 111.177 37.0081 111.354 36.7051C111.532 36.402 111.779 36.1629 112.094 35.9876C112.41 35.8135 112.763 35.7264 113.153 35.7264C113.542 35.7264 113.893 35.8124 114.205 35.9854C114.518 36.1584 114.764 36.3965 114.943 36.7018C115.123 37.007 115.213 37.3498 115.213 37.7278C115.213 38.1069 115.123 38.4485 114.943 38.7538C114.764 39.0591 114.518 39.2982 114.205 39.4701C113.892 39.6442 113.542 39.7302 113.153 39.7302Z" fill="#D77D1A"/>
<path d="M118.72 36.1209H117.34V39.697H116.929V36.1209H115.549V35.7616H118.72V36.1209Z" fill="#D77D1A"/>
<path d="M124.319 39.697L124.314 37.3408L123.158 39.2805H122.754L121.598 37.386V39.697H120.744V35.7616H121.497L122.967 38.2071L124.415 35.7616H125.166L125.173 39.697H124.319Z" fill="#D77D1A"/>
<path d="M126.148 35.7616H127.053V38.325L128.927 35.7616H129.78V39.697H128.882V37.1392L127.008 39.697H126.148V35.7616Z" fill="#D77D1A"/>
<path d="M132.407 37.8698C132.68 37.8698 132.888 37.8103 133.03 37.6924C133.171 37.5745 133.243 37.407 133.243 37.1888C133.243 36.9672 133.171 36.7986 133.03 36.6796C132.888 36.5617 132.68 36.5022 132.407 36.5022H131.667V37.8687H132.407V37.8698ZM132.456 35.7616C132.804 35.7616 133.107 35.82 133.363 35.9357C133.619 36.0514 133.816 36.2167 133.955 36.4305C134.093 36.6443 134.163 36.8978 134.163 37.1899C134.163 37.4786 134.093 37.731 133.955 37.9459C133.816 38.1619 133.619 38.3261 133.363 38.4407C133.107 38.5553 132.804 38.6126 132.456 38.6126H131.666V39.6981H130.756V35.7616H132.456Z" fill="#D77D1A"/>
<path d="M138.22 39.0227C138.452 39.0227 138.629 38.9764 138.754 38.8849C138.877 38.7935 138.938 38.659 138.938 38.4827C138.938 38.1377 138.699 37.9658 138.22 37.9658H137.312V39.0227H138.22ZM136.407 35.7617H139.578V36.4869H137.31V37.2969H138.399C138.875 37.2969 139.237 37.3961 139.485 37.5944C139.734 37.7928 139.858 38.0804 139.858 38.4551C139.858 38.8486 139.719 39.1538 139.442 39.3721C139.165 39.5892 138.775 39.6983 138.27 39.6983H136.406V35.7617H136.407Z" fill="#D77D1A"/>
<path d="M143.59 38.9664V39.697H140.549V35.7616H143.518V36.4923H141.452V37.3464H143.276V38.055H141.452V38.9664H143.59Z" fill="#D77D1A"/>
<path d="M147.329 36.5033H146.071V39.697H145.174V36.5033H143.922V35.7616H147.329V36.5033Z" fill="#D77D1A"/>
<path d="M149.718 38.9885C149.95 38.9885 150.159 38.9356 150.346 38.8287C150.533 38.7218 150.68 38.573 150.786 38.3813C150.893 38.1906 150.945 37.9724 150.945 37.7289C150.945 37.4853 150.893 37.2682 150.786 37.0764C150.679 36.8858 150.533 36.7359 150.346 36.629C150.159 36.5221 149.949 36.4692 149.718 36.4692C149.486 36.4692 149.277 36.5221 149.09 36.629C148.903 36.7359 148.755 36.8847 148.65 37.0764C148.543 37.2671 148.49 37.4853 148.49 37.7289C148.49 37.9724 148.543 38.1895 148.65 38.3813C148.756 38.5719 148.903 38.7218 149.09 38.8287C149.277 38.9356 149.486 38.9885 149.718 38.9885ZM149.718 39.7644C149.31 39.7644 148.942 39.6762 148.616 39.4999C148.288 39.3235 148.031 39.0811 147.847 38.7714C147.662 38.4617 147.568 38.1146 147.568 37.7289C147.568 37.3431 147.661 36.9949 147.847 36.6863C148.031 36.3766 148.288 36.1342 148.616 35.9579C148.942 35.7815 149.311 35.6934 149.718 35.6934C150.126 35.6934 150.492 35.7815 150.818 35.9579C151.143 36.1342 151.4 36.3766 151.587 36.6863C151.774 36.996 151.867 37.3431 151.867 37.7289C151.867 38.1146 151.774 38.4628 151.587 38.7714C151.4 39.0811 151.143 39.3235 150.818 39.4999C150.492 39.6762 150.126 39.7644 149.718 39.7644Z" fill="#D77D1A"/>
<path d="M156.173 35.7616V39.697H155.264V38.0836H153.479V39.697H152.57V35.7616H153.479V37.3133H155.264V35.7616H156.173Z" fill="#D77D1A"/>
<path d="M159.528 38.162L158.905 36.6555L158.283 38.162H159.528ZM159.814 38.853H157.99L157.643 39.6961H156.711L158.462 35.7606H159.36L161.116 39.6961H160.163L159.814 38.853Z" fill="#D77D1A"/>
<path fill-rule="evenodd" clip-rule="evenodd" d="M22.9686 18.7262V21.8726L11.1172 29.6784V26.5475L22.9686 18.7262Z" fill="#AE4609"/>
<path fill-rule="evenodd" clip-rule="evenodd" d="M12.6621 27.5646V30.6944L24.5256 38.5256V35.3947L12.6621 27.5646Z" fill="#D77D1A"/>
<mask id="mask2_435_2616" style="mask-type:luminance" maskUnits="userSpaceOnUse" x="18" y="15" width="32" height="17">
<path d="M31.9987 23.0671L30.7843 23.8683L24.5242 19.7367L18.9219 23.4341L30.7832 31.2631L49.7912 18.7184L44.1889 15.021L31.9987 23.0671Z" fill="white"/>
</mask>
<g mask="url(#mask2_435_2616)">
<path d="M49.7901 15.021H18.9219V31.262H49.7901V15.021Z" fill="url(#paint2_linear_435_2616)"/>
</g>
<path fill-rule="evenodd" clip-rule="evenodd" d="M18.9219 23.4341V26.565L30.7843 34.394V31.2631L18.9219 23.4341Z" fill="#68B238"/>
<path fill-rule="evenodd" clip-rule="evenodd" d="M30.7852 31.2631V34.394L49.7921 21.8493V18.7184L30.7852 31.2631Z" fill="#488221"/>
<mask id="mask3_435_2616" style="mask-type:luminance" maskUnits="userSpaceOnUse" x="12" y="24" width="18" height="12">
<path d="M29.2424 32.2814L17.3789 24.4513L12.6621 27.5646L24.5256 35.3947L29.2424 32.2814Z" fill="white"/>
</mask>
<g mask="url(#mask3_435_2616)">
<path d="M29.2424 24.4513H12.6621V35.3947H29.2424V24.4513Z" fill="url(#paint3_linear_435_2616)"/>
</g>
<path fill-rule="evenodd" clip-rule="evenodd" d="M29.2433 32.2814V35.4112L24.5254 38.5256V35.3947L29.2433 32.2814Z" fill="#AE4609"/>
<path fill-rule="evenodd" clip-rule="evenodd" d="M26.0664 36.413V39.5439L31.6687 43.2402V40.1104L26.0664 36.413Z" fill="#BF2C29"/>
<path fill-rule="evenodd" clip-rule="evenodd" d="M39.4727 27.5657V30.6966L45.075 34.394V31.2631L39.4727 27.5657Z" fill="#BF2C29"/>
<path fill-rule="evenodd" clip-rule="evenodd" d="M45.0742 31.2631V34.394L56.9355 26.565V23.4341L45.0742 31.2631Z" fill="#93241F"/>
<mask id="mask4_435_2616" style="mask-type:luminance" maskUnits="userSpaceOnUse" x="39" y="19" width="18" height="13">
<path d="M51.334 19.7367L39.4727 27.5657L45.075 31.2631L56.9363 23.4341L51.334 19.7367Z" fill="white"/>
</mask>
<g mask="url(#mask4_435_2616)">
<path d="M56.9363 19.7367H39.4727V31.2631H56.9363V19.7367Z" fill="url(#paint4_linear_435_2616)"/>
</g>
<path fill-rule="evenodd" clip-rule="evenodd" d="M31.668 40.1104V43.2402L43.5304 35.4112V32.2814L31.668 40.1104Z" fill="#93241F"/>
<mask id="mask5_435_2616" style="mask-type:luminance" maskUnits="userSpaceOnUse" x="26" y="28" width="18" height="13">
<path d="M37.9288 28.584L26.0664 36.413L31.6687 40.1104L43.5311 32.2814L37.9288 28.584Z" fill="white"/>
</mask>
<g mask="url(#mask5_435_2616)">
<path d="M43.53 28.584H26.0664V40.1104H43.53V28.584Z" fill="url(#paint5_linear_435_2616)"/>
</g>
<path fill-rule="evenodd" clip-rule="evenodd" d="M156.985 19.9351C156.985 17.8368 156.611 16.2444 155.863 15.1533C155.111 14.0623 154.045 13.519 152.656 13.519C151.278 13.519 150.217 14.0579 149.464 15.1346C148.716 16.2124 148.338 17.7894 148.329 19.869V20.8432C148.329 22.8853 148.703 24.4723 149.455 25.5964C150.202 26.7249 151.278 27.2881 152.685 27.2881C154.064 27.2881 155.12 26.7447 155.864 25.6581C156.603 24.5759 156.976 22.9933 156.986 20.9138V19.9351H156.985ZM161.15 20.8443C161.15 22.8104 160.799 24.534 160.107 26.0196C159.41 27.5041 158.419 28.6469 157.129 29.4525C155.834 30.2581 154.353 30.6603 152.684 30.6603C151.028 30.6603 149.557 30.2625 148.262 29.4668C146.963 28.67 145.957 27.5327 145.248 26.0526C144.537 24.5781 144.178 22.8776 144.168 20.9534V19.9649C144.168 17.9977 144.519 16.2653 145.228 14.7665C145.934 13.2721 146.935 12.1249 148.225 11.3237C149.519 10.5236 150.997 10.1202 152.656 10.1202C154.321 10.1202 155.793 10.5236 157.087 11.3237C158.378 12.1249 159.379 13.2721 160.084 14.7665C160.794 16.2653 161.15 17.9933 161.15 19.9506V20.8443ZM130.98 19.7291H134.294C135.327 19.7291 136.126 19.4668 136.692 18.9422C137.258 18.4176 137.544 17.6925 137.544 16.7689C137.544 15.8278 137.272 15.0927 136.739 14.5538C136.207 14.016 135.389 13.7438 134.281 13.7438H130.981V19.7291H130.98ZM134.252 23.0727H130.98V30.3782H126.871V10.4002H134.28C136.636 10.4002 138.454 10.9236 139.73 11.9783C141.012 13.0319 141.648 14.5163 141.648 16.4416C141.648 17.8049 141.353 18.9422 140.764 19.8514C140.176 20.765 139.287 21.4901 138.09 22.029L142.404 30.1876V30.3793H137.991L134.252 23.0727ZM123.095 21.6962H115.209V27.0632H124.465V30.3793H111.1V10.4002H124.436V13.7438H115.208V18.4926H123.094V21.6962H123.095ZM102.649 13.7438V30.3782H98.5398V13.7438H92.5151V10.4002H102.649V13.7438ZM83.0628 17.2891L86.8028 10.4013H91.5284L85.7226 20.3054L91.678 30.3793H86.9007L83.0628 23.3824L79.2293 30.3793H74.452L80.4074 20.3054L74.6016 10.4002H79.3228L83.0628 17.2891ZM71.8857 30.3782H68.7969V16.1176H71.8857V30.3782Z" fill="#343433"/>
<path d="M71.8857 10.4H68.7969V13.4946H71.8857V10.4Z" fill="#D77D1A"/>
<path d="M109.228 10.4001H105.891V13.7438H109.228V10.4001Z" fill="#D77D1A"/>
<defs>
<linearGradient id="paint0_linear_435_2616" x1="34.3717" y1="19.4606" x2="27.1744" y2="8.55356" gradientUnits="userSpaceOnUse">
<stop stop-color="#D77D1A"/>
<stop offset="1" stop-color="#F2DF3A"/>
</linearGradient>
<linearGradient id="paint1_linear_435_2616" x1="16.8915" y1="24.8033" x2="11.5912" y2="16.775" gradientUnits="userSpaceOnUse">
<stop stop-color="#D77D1A"/>
<stop offset="1" stop-color="#F2DF3A"/>
</linearGradient>
<linearGradient id="paint2_linear_435_2616" x1="33.6086" y1="22.0044" x2="37.0054" y2="27.154" gradientUnits="userSpaceOnUse">
<stop stop-color="#B4D85F"/>
<stop offset="1" stop-color="#67B238"/>
</linearGradient>
<linearGradient id="paint3_linear_435_2616" x1="23.4615" y1="33.7374" x2="18.4304" y2="26.1184" gradientUnits="userSpaceOnUse">
<stop stop-color="#D77D1A"/>
<stop offset="1" stop-color="#F2DF3A"/>
</linearGradient>
<linearGradient id="paint4_linear_435_2616" x1="46.5104" y1="22.9225" x2="49.9072" y2="28.0722" gradientUnits="userSpaceOnUse">
<stop stop-color="#E49749"/>
<stop offset="1" stop-color="#BE2B29"/>
</linearGradient>
<linearGradient id="paint5_linear_435_2616" x1="33.1009" y1="31.7655" x2="36.504" y2="36.9215" gradientUnits="userSpaceOnUse">
<stop stop-color="#E49749"/>
<stop offset="1" stop-color="#BE2B29"/>
</linearGradient>
</defs>
</svg>
