<svg width="31" height="31" viewBox="0 0 31 31" fill="none" xmlns="http://www.w3.org/2000/svg">
<g clip-path="url(#clip0_482_1110)">
<path d="M15.9355 20.5618C16.2262 21.0704 16.6621 21.4821 17.1465 21.7727C17.4371 21.9422 17.752 22.0875 18.091 22.1602C18.3574 22.2329 18.648 22.2571 18.9629 22.2571C19.2535 22.2571 19.5441 22.2086 19.8348 22.1602C20.1738 22.0875 20.4887 21.9422 20.7793 21.7727C21.2879 21.4821 21.6996 21.0461 21.9902 20.5618C22.1598 20.2711 22.3051 19.9563 22.3777 19.6172C22.4504 19.3508 22.4746 19.0602 22.4746 18.7454C22.4746 18.4547 22.4262 18.1641 22.3777 17.8735C22.3051 17.5344 22.1598 17.2196 21.9902 16.929C21.6996 16.4204 21.2637 16.0086 20.7793 15.718C20.4887 15.5485 20.1738 15.4032 19.8348 15.3305C19.5684 15.2579 19.2777 15.2336 18.9629 15.2336C18.6723 15.2336 18.3816 15.2821 18.091 15.3305C17.752 15.4032 17.4371 15.5485 17.1465 15.718C16.6379 16.0086 16.2262 16.4446 15.9355 16.929C15.766 17.2196 15.6207 17.5344 15.548 17.8735C15.4754 18.1399 15.4512 18.4305 15.4512 18.7454C15.4512 19.036 15.4996 19.3266 15.548 19.6172C15.6207 19.9563 15.766 20.2711 15.9355 20.5618Z" fill="#7957FF"/>
<path d="M28.9656 17.1953H28.2633C28.0211 15.7664 27.4641 14.4344 26.6406 13.2961L27.125 12.8117C27.7305 12.2063 27.7305 11.2133 27.125 10.5836C26.5195 9.97814 25.5023 9.97814 24.8969 10.5836L24.4125 11.068C23.2984 10.2445 21.9664 9.68751 20.5375 9.44532V8.74298C20.5375 7.87111 19.8352 7.16876 18.9633 7.16876C18.5031 7.16876 18.0914 7.36251 17.8008 7.70157C17.9945 8.04064 18.0914 8.42814 18.0914 8.83986C18.0914 9.95392 17.2922 10.8984 16.2508 11.1406C16.1055 11.6492 15.9117 12.1336 15.6453 12.5695C15.7664 12.7391 15.8391 12.9328 15.9117 13.1266C16.3719 12.8844 16.8805 12.6664 17.3891 12.5453C17.8977 12.4242 18.4305 12.3516 18.9633 12.3516C19.4961 12.3516 20.0289 12.4242 20.5375 12.5453C21.143 12.6906 21.7242 12.9328 22.2328 13.2477C23.1531 13.7805 23.9039 14.5555 24.4609 15.4758C24.7758 16.0086 25.018 16.5656 25.1633 17.1711C25.2844 17.6797 25.357 18.2125 25.357 18.7453C25.357 19.2781 25.2844 19.8109 25.1633 20.3195C25.018 20.925 24.7758 21.5063 24.4609 22.0149C23.9281 22.9352 23.1531 23.6859 22.2328 24.243C21.7 24.5578 21.143 24.8 20.5375 24.9453C20.0289 25.0664 19.4961 25.1391 18.9633 25.1391C18.4305 25.1391 17.8977 25.0664 17.3891 24.9453C16.7836 24.8 16.2023 24.5578 15.6938 24.243C14.7734 23.7102 14.0227 22.9352 13.4656 22.0149C13.1508 21.482 12.9086 20.925 12.7633 20.3195C12.6422 19.8109 12.5695 19.2781 12.5695 18.7453C12.5695 18.2125 12.6422 17.6797 12.7633 17.1711C12.8602 16.8078 12.9813 16.4445 13.1266 16.1055C12.8602 16.0328 12.618 15.9359 12.4 15.7906C11.9398 16.0328 11.4555 16.2266 10.9711 16.3961C10.7531 17.4617 9.80859 18.2367 8.67031 18.2367C8.28281 18.2367 7.91953 18.1399 7.58047 17.9703C7.45937 18.1883 7.38672 18.4547 7.38672 18.7211C7.38672 19.593 8.08906 20.2953 8.96094 20.2953H9.66328C9.90547 21.7242 10.4625 23.0563 11.2859 24.1945L10.8016 24.6789C10.1961 25.2844 10.1961 26.2774 10.8016 26.907C11.1164 27.2219 11.5039 27.3672 11.9156 27.3672C12.3273 27.3672 12.7148 27.2219 13.0297 26.907L13.5141 26.4227C14.6523 27.2219 15.9844 27.8031 17.4133 28.0453V28.7477C17.4133 29.6195 18.1156 30.3219 18.9875 30.3219C19.8594 30.3219 20.5617 29.6195 20.5617 28.7477V28.0453C21.9906 27.8031 23.3227 27.2461 24.4609 26.4227L24.9453 26.907C25.2602 27.2219 25.6477 27.3672 26.0594 27.3672C26.4711 27.3672 26.8586 27.2219 27.1734 26.907C27.7789 26.3016 27.7789 25.2844 27.1734 24.6789L26.6891 24.1945C27.4883 23.0563 28.0695 21.7242 28.3117 20.2953H29.0141C29.8859 20.2953 30.5883 19.593 30.5883 18.7211C30.5398 17.8977 29.8375 17.1953 28.9656 17.1953Z" fill="#7957FF"/>
<path d="M7.53203 15.9117C7.53203 16.5172 8.04063 17.0258 8.64609 17.0258C9.25156 17.0258 9.76016 16.5172 9.76016 15.9117V15.4274C10.7773 15.2578 11.7219 14.8703 12.5211 14.2891L12.8602 14.6281C13.0781 14.8461 13.3688 14.943 13.6352 14.943C13.9258 14.943 14.1922 14.8461 14.4102 14.6281C14.8461 14.1922 14.8461 13.4899 14.4102 13.0539L14.0711 12.7149C14.6523 11.9156 15.0398 10.9711 15.2094 9.95393H15.6938C16.2992 9.95393 16.8078 9.44534 16.8078 8.83987C16.8078 8.2344 16.2992 7.7258 15.6938 7.7258H15.2094C15.0398 6.70862 14.6281 5.76409 14.0711 4.96487L14.4102 4.62581C14.8461 4.18987 14.8461 3.48752 14.4102 3.05159C13.9742 2.61565 13.2719 2.61565 12.8359 3.05159L12.5211 3.39065C11.7219 2.8094 10.7773 2.4219 9.76016 2.25237V1.76799C9.76016 1.16252 9.25156 0.653931 8.64609 0.653931C8.04063 0.653931 7.53203 1.16252 7.53203 1.76799V2.25237C6.53906 2.4219 5.59453 2.83362 4.79531 3.39065L4.45625 3.05159C4.02031 2.61565 3.31797 2.61565 2.88203 3.05159C2.44609 3.48752 2.44609 4.18987 2.88203 4.62581L3.22109 4.96487C2.63984 5.76409 2.25234 6.70862 2.08281 7.7258H1.59844C0.992969 7.7258 0.484375 8.2344 0.484375 8.83987C0.484375 9.44534 0.992969 9.95393 1.59844 9.95393H2.08281C2.25234 10.9711 2.63984 11.9156 3.22109 12.7149L2.88203 13.0539C2.44609 13.4899 2.44609 14.1922 2.88203 14.6281C3.1 14.8461 3.39063 14.943 3.65703 14.943C3.94766 14.943 4.23828 14.8461 4.43203 14.6281L4.77109 14.2891C5.57031 14.8703 6.51484 15.2578 7.53203 15.4274V15.9117ZM6.80547 11.9399C6.29688 11.625 5.86094 11.2133 5.54609 10.6805C5.37656 10.3899 5.23125 10.075 5.15859 9.71174C5.08594 9.42112 5.0375 9.13049 5.0375 8.83987C5.0375 8.52502 5.08594 8.2344 5.15859 7.96799C5.25547 7.62893 5.37656 7.31409 5.54609 6.99924C5.86094 6.49065 6.27266 6.05471 6.80547 5.73987C7.09609 5.57034 7.41094 5.42502 7.77422 5.35237C8.06484 5.27971 8.35547 5.23127 8.64609 5.23127C8.96094 5.23127 9.25156 5.27971 9.51797 5.35237C9.85703 5.44924 10.1719 5.57034 10.4867 5.73987C10.9953 6.05471 11.4313 6.46643 11.7461 6.99924C11.9156 7.28987 12.0609 7.60471 12.1336 7.96799C12.2063 8.25862 12.2547 8.54924 12.2547 8.83987C12.2547 9.15471 12.2063 9.44534 12.1336 9.71174C12.0367 10.0508 11.9156 10.3656 11.7461 10.6805C11.4313 11.1891 11.0195 11.625 10.4867 11.9399C10.1961 12.1094 9.88125 12.2547 9.51797 12.3274C9.22734 12.4 8.93672 12.4485 8.64609 12.4485C8.33125 12.4485 8.04063 12.4 7.77422 12.3274C7.43516 12.2547 7.12031 12.1094 6.80547 11.9399Z" fill="#7957FF"/>
</g>
<defs>
<clipPath id="clip0_482_1110">
<rect width="31" height="31" fill="white"/>
</clipPath>
</defs>
</svg>
