<svg width="23" height="25" viewBox="0 0 23 25" fill="none" xmlns="http://www.w3.org/2000/svg">
<path fill-rule="evenodd" clip-rule="evenodd" d="M10.603 0.159539C11.1072 -0.0262023 11.6582 -0.0504169 12.1772 0.0903489L12.397 0.159539L21.3414 3.46179C21.795 3.62922 22.1908 3.92009 22.4829 4.3005C22.7749 4.68092 22.9512 5.13522 22.9911 5.61046L23 5.81803V12.5647C23 14.6032 22.4409 16.6038 21.3818 18.3555C20.3228 20.1072 18.803 21.5448 16.9829 22.5167L16.6431 22.6916L12.3574 24.8013C12.1214 24.9173 11.8637 24.9841 11.6003 24.9975C11.3369 25.0109 11.0735 24.9707 10.8266 24.8793L10.6426 24.8013L6.35694 22.6916C4.50495 21.7799 2.93732 20.3928 1.81956 18.6768C0.701797 16.9608 0.075364 14.9795 0.00638904 12.9421L0 12.5647V5.81803C7.43034e-06 5.34141 0.137523 4.87459 0.396538 4.47193C0.655552 4.06927 1.02541 3.74732 1.46306 3.54356L1.65856 3.46179L10.603 0.159539ZM15.8866 8.25352L10.0114 14.0378L7.75228 11.8137C7.51252 11.5778 7.18739 11.4453 6.84844 11.4454C6.50948 11.4456 6.18445 11.5782 5.94486 11.8143C5.70527 12.0503 5.57073 12.3704 5.57085 12.7041C5.57097 13.0379 5.70574 13.3578 5.9455 13.5937L9.01728 16.618C9.1478 16.7465 9.30278 16.8485 9.47335 16.9181C9.64393 16.9877 9.82675 17.0235 10.0114 17.0235C10.196 17.0235 10.3789 16.9877 10.5494 16.9181C10.72 16.8485 10.875 16.7465 11.0055 16.618L17.6934 10.0323C17.8154 9.91628 17.9128 9.77747 17.9797 9.62399C18.0467 9.47051 18.082 9.30543 18.0834 9.1384C18.0849 8.97136 18.0526 8.80571 17.9883 8.6511C17.9241 8.4965 17.8292 8.35604 17.7092 8.23792C17.5893 8.11981 17.4466 8.0264 17.2896 7.96314C17.1325 7.89989 16.9643 7.86806 16.7946 7.86951C16.6249 7.87096 16.4573 7.90567 16.3014 7.9716C16.1455 8.03753 16.0045 8.13336 15.8866 8.25352Z" fill="#3CA666"/>
</svg>
