<svg width="33" height="33" viewBox="0 0 33 33" fill="none" xmlns="http://www.w3.org/2000/svg">
<path d="M26.125 22C25.4092 22.0082 24.7079 22.2024 24.09 22.5637L17.875 17.2425V10.7525C18.7924 10.4281 19.5656 9.7899 20.058 8.95058C20.5503 8.11127 20.7301 7.12491 20.5656 6.16586C20.401 5.2068 19.9028 4.33679 19.1588 3.7096C18.4148 3.0824 17.4731 2.7384 16.5 2.7384C15.5269 2.7384 14.5852 3.0824 13.8412 3.7096C13.0972 4.33679 12.599 5.2068 12.4344 6.16586C12.2699 7.12491 12.4497 8.11127 12.942 8.95058C13.4344 9.7899 14.2076 10.4281 15.125 10.7525V17.2425L8.91 22.5637C8.29207 22.2024 7.59076 22.0082 6.875 22C6.05915 22 5.26163 22.2419 4.58327 22.6952C3.90492 23.1484 3.37621 23.7927 3.064 24.5464C2.75179 25.3002 2.6701 26.1296 2.82926 26.9297C2.98843 27.7299 3.38129 28.4649 3.95819 29.0418C4.53508 29.6187 5.27008 30.0116 6.07025 30.1707C6.87043 30.3299 7.69983 30.2482 8.45357 29.936C9.20732 29.6238 9.85155 29.0951 10.3048 28.4167C10.7581 27.7384 11 26.9408 11 26.125C10.9961 25.6164 10.8982 25.113 10.7113 24.64L16.5 19.69L22.2887 24.64C22.1018 25.113 22.0039 25.6164 22 26.125C22 26.9408 22.2419 27.7384 22.6952 28.4167C23.1484 29.0951 23.7927 29.6238 24.5464 29.936C25.3002 30.2482 26.1296 30.3299 26.9297 30.1707C27.7299 30.0116 28.4649 29.6187 29.0418 29.0418C29.6187 28.4649 30.0116 27.7299 30.1707 26.9297C30.3299 26.1296 30.2482 25.3002 29.936 24.5464C29.6238 23.7927 29.0951 23.1484 28.4167 22.6952C27.7384 22.2419 26.9408 22 26.125 22Z" fill="#7957FF"/>
</svg>
