<svg width="20" height="25" viewBox="0 0 20 25" fill="none" xmlns="http://www.w3.org/2000/svg">
<path d="M2.5 25C1.8125 25 1.22375 24.755 0.733752 24.265C0.243752 23.775 -0.000831211 23.1867 2.12224e-06 22.5V2.5C2.12224e-06 1.8125 0.245002 1.22375 0.735002 0.733752C1.225 0.243752 1.81334 -0.000831211 2.5 2.12224e-06H17.5C18.1875 2.12224e-06 18.7762 0.245002 19.2662 0.735002C19.7562 1.225 20.0008 1.81334 20 2.5V22.5C20 23.1875 19.755 23.7762 19.265 24.2662C18.775 24.7562 18.1867 25.0008 17.5 25H2.5ZM8.75 2.5V10.1562C8.75 10.4062 8.84917 10.5887 9.0475 10.7037C9.24583 10.8188 9.45917 10.8133 9.6875 10.6875L11.2188 9.78125C11.4271 9.65625 11.6408 9.59375 11.86 9.59375C12.0792 9.59375 12.2925 9.65625 12.5 9.78125L14.0312 10.6875C14.2604 10.8125 14.4792 10.8179 14.6875 10.7037C14.8958 10.5896 15 10.4071 15 10.1562V2.5H8.75Z" fill="#5E70CD"/>
</svg>
