<svg width="31" height="17" viewBox="0 0 31 17" fill="none" xmlns="http://www.w3.org/2000/svg">
<path d="M0 17V13.9091C0.981667 13.9091 1.71172 13.6515 2.19015 13.1364C2.66858 12.6212 3.66937 12.3636 5.1925 12.3636C6.71667 12.3636 7.71797 12.6212 8.1964 13.1364C8.67483 13.6515 9.37853 13.9091 10.3075 13.9091C11.2892 13.9091 12.0192 13.6515 12.4976 13.1364C12.9761 12.6212 13.9769 12.3636 15.5 12.3636C16.9725 12.3636 17.9738 12.6212 18.5039 13.1364C19.034 13.6515 19.7635 13.9091 20.6925 13.9091C21.6742 13.9091 22.3913 13.6515 22.8439 13.1364C23.2965 12.6212 24.2844 12.3636 25.8075 12.3636C27.3317 12.3636 28.333 12.6212 28.8114 13.1364C29.2898 13.6515 30.0194 13.9091 31 13.9091V17C29.5275 17 28.5267 16.7424 27.9976 16.2273C27.4686 15.7121 26.7385 15.4545 25.8075 15.4545C24.8775 15.4545 24.1738 15.7121 23.6964 16.2273C23.219 16.7424 22.2177 17 20.6925 17C19.22 17 18.2192 16.7424 17.6901 16.2273C17.1611 15.7121 16.431 15.4545 15.5 15.4545C14.5183 15.4545 13.7883 15.7121 13.3098 16.2273C12.8314 16.7424 11.8306 17 10.3075 17C8.78333 17 7.79495 16.7424 7.34235 16.2273C6.88975 15.7121 6.17313 15.4545 5.1925 15.4545C4.21083 15.4545 3.4813 15.7121 3.0039 16.2273C2.5265 16.7424 1.5252 17 0 17ZM0 10.8182V7.72727C0.981667 7.72727 1.71172 7.4697 2.19015 6.95455C2.66858 6.43939 3.66937 6.18182 5.1925 6.18182C6.665 6.18182 7.65338 6.43939 8.15765 6.95455C8.66192 7.4697 9.37853 7.72727 10.3075 7.72727C11.2892 7.72727 12.0187 7.4697 12.4961 6.95455C12.9735 6.43939 13.9748 6.18182 15.5 6.18182C16.9725 6.18182 17.9671 6.43939 18.4837 6.95455C19.0004 7.4697 19.7108 7.72727 20.615 7.72727C21.5967 7.72727 22.3262 7.4697 22.8036 6.95455C23.281 6.43939 24.2823 6.18182 25.8075 6.18182C27.28 6.18182 28.2813 6.43939 28.8114 6.95455C29.3415 7.4697 30.071 7.72727 31 7.72727V10.8182C29.4758 10.8182 28.4616 10.5606 27.9573 10.0455C27.4531 9.5303 26.7365 9.27273 25.8075 9.27273C24.8775 9.27273 24.1738 9.5303 23.6964 10.0455C23.219 10.5606 22.2177 10.8182 20.6925 10.8182C19.22 10.8182 18.2192 10.5606 17.6901 10.0455C17.1611 9.5303 16.431 9.27273 15.5 9.27273C14.5183 9.27273 13.8012 9.5303 13.3486 10.0455C12.896 10.5606 11.9081 10.8182 10.385 10.8182C8.86083 10.8182 7.84713 10.5606 7.3439 10.0455C6.84067 9.5303 6.12353 9.27273 5.1925 9.27273C4.2625 9.27273 3.53297 9.5303 3.0039 10.0455C2.47483 10.5606 1.47353 10.8182 0 10.8182ZM0 4.63636V1.54545C0.981667 1.54545 1.71172 1.28788 2.19015 0.772727C2.66858 0.257576 3.66937 0 5.1925 0C6.665 0 7.65338 0.257576 8.15765 0.772727C8.66192 1.28788 9.37853 1.54545 10.3075 1.54545C11.2892 1.54545 12.0187 1.28788 12.4961 0.772727C12.9735 0.257576 13.9748 0 15.5 0C16.9725 0 17.9671 0.257576 18.4837 0.772727C19.0004 1.28788 19.7108 1.54545 20.615 1.54545C21.5967 1.54545 22.3262 1.28788 22.8036 0.772727C23.281 0.257576 24.2823 0 25.8075 0C27.28 0 28.2813 0.257576 28.8114 0.772727C29.3415 1.28788 30.071 1.54545 31 1.54545V4.63636C29.4758 4.63636 28.4616 4.37879 27.9573 3.86364C27.4531 3.34848 26.7365 3.09091 25.8075 3.09091C24.8775 3.09091 24.1738 3.34848 23.6964 3.86364C23.219 4.37879 22.2177 4.63636 20.6925 4.63636C19.22 4.63636 18.2192 4.37879 17.6901 3.86364C17.1611 3.34848 16.431 3.09091 15.5 3.09091C14.5183 3.09091 13.8012 3.34848 13.3486 3.86364C12.896 4.37879 11.9081 4.63636 10.385 4.63636C8.86083 4.63636 7.84713 4.37879 7.3439 3.86364C6.84067 3.34848 6.12353 3.09091 5.1925 3.09091C4.2625 3.09091 3.53297 3.34848 3.0039 3.86364C2.47483 4.37879 1.47353 4.63636 0 4.63636Z" fill="#5CC1D8"/>
</svg>
