<svg width="30" height="25" viewBox="0 0 30 25" fill="none" xmlns="http://www.w3.org/2000/svg">
<path d="M14.5593 0.110009C14.695 0.0377781 14.8463 0 15 0C15.1537 0 15.305 0.0377781 15.4407 0.110009L29.5043 7.61059C29.654 7.69062 29.7793 7.80981 29.8666 7.95546C29.9539 8.1011 30 8.26772 30 8.43753C30 8.60734 29.9539 8.77397 29.8666 8.91961C29.7793 9.06525 29.654 9.18445 29.5043 9.26447L15.4407 16.7651C15.305 16.8373 15.1537 16.8751 15 16.8751C14.8463 16.8751 14.695 16.8373 14.5593 16.7651L0.495742 9.26447C0.34597 9.18445 0.220742 9.06525 0.13343 8.91961C0.0461181 8.77397 0 8.60734 0 8.43753C0 8.26772 0.0461181 8.1011 0.13343 7.95546C0.220742 7.80981 0.34597 7.69062 0.495742 7.61059L14.5593 0.110009Z" fill="#996124"/>
<path d="M3.98351 13.2511L0.495742 15.1112C0.34597 15.1913 0.220742 15.3105 0.13343 15.4561C0.0461181 15.6018 0 15.7684 0 15.9382C0 16.108 0.0461181 16.2746 0.13343 16.4203C0.220742 16.5659 0.34597 16.6851 0.495742 16.7651L14.5593 24.2657C14.695 24.3379 14.8463 24.3757 15 24.3757C15.1537 24.3757 15.305 24.3379 15.4407 24.2657L29.5043 16.7651C29.654 16.6851 29.7793 16.5659 29.8666 16.4203C29.9539 16.2746 30 16.108 30 15.9382C30 15.7684 29.9539 15.6018 29.8666 15.4561C29.7793 15.3105 29.654 15.1913 29.5043 15.1112L26.0165 13.2511L16.322 18.419C15.915 18.6357 15.461 18.749 15 18.749C14.539 18.749 14.085 18.6357 13.678 18.419L3.98351 13.2511Z" fill="#996124"/>
</svg>
