<svg width="24" height="23" viewBox="0 0 24 23" fill="none" xmlns="http://www.w3.org/2000/svg">
<path d="M3.42857 0H20.5714C22.4623 0 24 1.58683 24 3.53808V14.1523C24 16.1036 22.4623 17.6904 20.5714 17.6904H9.63429C10.3744 17.0327 10.9687 16.2183 11.3769 15.3026C11.7851 14.3869 11.9976 13.3912 12 12.3833C11.9976 11.3753 11.7851 10.3797 11.3769 9.464C10.9687 8.54829 10.3744 7.73392 9.63429 7.07616H18C18.2273 7.07616 18.4453 6.98297 18.6061 6.81709C18.7668 6.65121 18.8571 6.42623 18.8571 6.19164C18.8571 5.95705 18.7668 5.73207 18.6061 5.56619C18.4453 5.40031 18.2273 5.30712 18 5.30712H5.14286C4.16611 5.30959 3.2013 5.52888 2.31393 5.95011C1.42656 6.37133 0.637395 6.98464 0 7.7484V3.53808C0 1.58683 1.53771 0 3.42857 0ZM14.5714 12.3833H18C18.2273 12.3833 18.4453 12.2901 18.6061 12.1242C18.7668 11.9583 18.8571 11.7334 18.8571 11.4988C18.8571 11.2642 18.7668 11.0392 18.6061 10.8733C18.4453 10.7074 18.2273 10.6142 18 10.6142H14.5714C14.3441 10.6142 14.1261 10.7074 13.9653 10.8733C13.8046 11.0392 13.7143 11.2642 13.7143 11.4988C13.7143 11.7334 13.8046 11.9583 13.9653 12.1242C14.1261 12.2901 14.3441 12.3833 14.5714 12.3833ZM5.14286 17.6904C6.50683 17.6904 7.81493 17.1313 8.77941 16.136C9.74388 15.1407 10.2857 13.7908 10.2857 12.3833C10.2857 10.9758 9.74388 9.62586 8.77941 8.63059C7.81493 7.63531 6.50683 7.07616 5.14286 7.07616C3.77889 7.07616 2.47078 7.63531 1.50631 8.63059C0.541835 9.62586 0 10.9758 0 12.3833C0 13.7908 0.541835 15.1407 1.50631 16.136C2.47078 17.1313 3.77889 17.6904 5.14286 17.6904ZM1.71429 22.113V18.4741C2.75202 19.1108 3.93557 19.4504 5.14286 19.4577C6.39771 19.4577 7.55829 19.0826 8.57143 18.4741V22.1112C8.57057 22.2712 8.52812 22.428 8.44852 22.5652C8.36891 22.7024 8.25506 22.8151 8.11886 22.8914C7.98215 22.9667 7.82827 23.0025 7.67348 22.995C7.51869 22.9875 7.36873 22.9371 7.23943 22.8489L5.14286 21.4054L3.04629 22.8472C2.91772 22.9376 2.76761 22.9901 2.61222 22.9987C2.45684 23.0074 2.30212 22.972 2.16486 22.8963C2.0276 22.8207 1.91304 22.7077 1.83361 22.5696C1.75418 22.4315 1.71291 22.2736 1.71429 22.113Z" fill="#FF5757"/>
</svg>
