<svg width="30" height="30" viewBox="0 0 30 30" fill="none" xmlns="http://www.w3.org/2000/svg">
<g clip-path="url(#clip0_482_1095)">
<path d="M13.125 4.6875H5.625C5.10723 4.6875 4.6875 5.10723 4.6875 5.625V13.125C4.6875 13.6428 5.10723 14.0625 5.625 14.0625H13.125C13.6428 14.0625 14.0625 13.6428 14.0625 13.125V5.625C14.0625 5.10723 13.6428 4.6875 13.125 4.6875Z" fill="#191919"/>
<path d="M24.375 4.6875H16.875C16.3572 4.6875 15.9375 5.10723 15.9375 5.625V13.125C15.9375 13.6428 16.3572 14.0625 16.875 14.0625H24.375C24.8928 14.0625 25.3125 13.6428 25.3125 13.125V5.625C25.3125 5.10723 24.8928 4.6875 24.375 4.6875Z" fill="#191919"/>
<path d="M13.125 15.9375H5.625C5.10723 15.9375 4.6875 16.3572 4.6875 16.875V24.375C4.6875 24.8928 5.10723 25.3125 5.625 25.3125H13.125C13.6428 25.3125 14.0625 24.8928 14.0625 24.375V16.875C14.0625 16.3572 13.6428 15.9375 13.125 15.9375Z" fill="#191919"/>
<path d="M24.375 15.9375H16.875C16.3572 15.9375 15.9375 16.3572 15.9375 16.875V24.375C15.9375 24.8928 16.3572 25.3125 16.875 25.3125H24.375C24.8928 25.3125 25.3125 24.8928 25.3125 24.375V16.875C25.3125 16.3572 24.8928 15.9375 24.375 15.9375Z" fill="#191919"/>
</g>
<defs>
<clipPath id="clip0_482_1095">
<rect width="30" height="30" fill="white"/>
</clipPath>
</defs>
</svg>
