<svg width="27" height="27" viewBox="0 0 27 27" fill="none" xmlns="http://www.w3.org/2000/svg">
<path d="M6.77788 26.7219C6.59428 27.0437 6.07156 27.0945 5.6104 26.8299L2.72356 25.1867C2.26456 24.9248 2.04046 24.4512 2.2246 24.1299L14.5026 4.66668C16.2684 1.81224 10.0962 2.06388 8.58094 2.90412C9.72682 0.84942 13.3788 0.17118 15.7473 0L16.4363 0.04482C17.775 0.71172 19.6947 1.71234 20.9599 2.5515C21.8892 4.01112 22.8693 4.77954 24.2571 4.77576C26.0683 6.16356 23.2392 9.9495 21.4594 8.19612C21.4691 7.32996 18.956 5.08896 17.1956 6.93522L6.77788 26.7219Z" fill="#858585"/>
</svg>
