<svg width="31" height="31" viewBox="0 0 31 31" fill="none" xmlns="http://www.w3.org/2000/svg">
<path d="M27.1257 14.2083H25.0719L26.7511 12.5421C26.8715 12.4216 26.967 12.2787 27.0322 12.1213C27.0974 11.9639 27.1309 11.7953 27.1309 11.625C27.1309 11.4547 27.0974 11.286 27.0322 11.1287C26.967 10.9713 26.8715 10.8283 26.7511 10.7079C26.6306 10.5875 26.4877 10.4919 26.3303 10.4268C26.173 10.3616 26.0043 10.328 25.834 10.328C25.6637 10.328 25.495 10.3616 25.3377 10.4268C25.1803 10.4919 25.0373 10.5875 24.9169 10.7079L21.4294 14.2083H18.6136L21.5844 11.2504C21.7048 11.13 21.8004 10.987 21.8655 10.8296C21.9307 10.6723 21.9643 10.5036 21.9643 10.3333C21.9643 10.163 21.9307 9.99435 21.8655 9.83699C21.8004 9.67964 21.7048 9.53666 21.5844 9.41623C21.464 9.2958 21.321 9.20026 21.1636 9.13509C21.0063 9.06991 20.8376 9.03636 20.6673 9.03636C20.497 9.03636 20.3284 9.06991 20.171 9.13509C20.0136 9.20026 19.8707 9.2958 19.7502 9.41623L16.7923 12.3871V9.57123L20.2927 6.08373C20.4132 5.9633 20.5087 5.82032 20.5739 5.66297C20.6391 5.50561 20.6726 5.33696 20.6726 5.16665C20.6726 4.99633 20.6391 4.82768 20.5739 4.67032C20.5087 4.51297 20.4132 4.37 20.2927 4.24956C20.1723 4.12913 20.0293 4.0336 19.872 3.96842C19.7146 3.90324 19.546 3.86969 19.3757 3.86969C19.0317 3.86969 18.7018 4.00634 18.4586 4.24956L16.7923 5.92873V3.87498C16.7923 3.53241 16.6562 3.20387 16.414 2.96163C16.1718 2.7194 15.8432 2.58331 15.5007 2.58331C15.1581 2.58331 14.8295 2.7194 14.5873 2.96163C14.3451 3.20387 14.209 3.53241 14.209 3.87498V5.92873L12.5427 4.24956C12.2995 4.00634 11.9696 3.86969 11.6257 3.86969C11.2817 3.86969 10.9518 4.00634 10.7086 4.24956C10.4653 4.49279 10.3287 4.82267 10.3287 5.16665C10.3287 5.51062 10.4653 5.8405 10.7086 6.08373L14.209 9.57123V12.3871L11.2511 9.41623C11.1306 9.2958 10.9877 9.20026 10.8303 9.13509C10.673 9.06991 10.5043 9.03636 10.334 9.03636C10.1637 9.03636 9.99502 9.06991 9.83766 9.13509C9.68031 9.20026 9.53733 9.2958 9.4169 9.41623C9.29647 9.53666 9.20094 9.67964 9.13576 9.83699C9.07058 9.99435 9.03703 10.163 9.03703 10.3333C9.03703 10.5036 9.07058 10.6723 9.13576 10.8296C9.20094 10.987 9.29647 11.13 9.4169 11.2504L12.3877 14.2083H9.5719L6.0844 10.7079C5.84118 10.4647 5.51129 10.328 5.16732 10.328C4.82334 10.328 4.49346 10.4647 4.25023 10.7079C4.00701 10.9511 3.87037 11.281 3.87037 11.625C3.87037 11.969 4.00701 12.2988 4.25023 12.5421L5.9294 14.2083H3.87565C3.53308 14.2083 3.20454 14.3444 2.9623 14.5866C2.72007 14.8289 2.58398 15.1574 2.58398 15.5C2.58398 15.8426 2.72007 16.1711 2.9623 16.4133C3.20454 16.6556 3.53308 16.7916 3.87565 16.7916H5.9294L4.25023 18.4579C4.12917 18.578 4.03308 18.7208 3.9675 18.8782C3.90192 19.0356 3.86816 19.2045 3.86816 19.375C3.86816 19.5455 3.90192 19.7143 3.9675 19.8717C4.03308 20.0291 4.12917 20.172 4.25023 20.2921C4.37031 20.4131 4.51317 20.5092 4.67057 20.5748C4.82797 20.6404 4.9968 20.6741 5.16732 20.6741C5.33783 20.6741 5.50666 20.6404 5.66406 20.5748C5.82146 20.5092 5.96432 20.4131 6.0844 20.2921L9.5719 16.7916H12.3877L9.4169 19.7496C9.29584 19.8696 9.19974 20.0125 9.13417 20.1699C9.06859 20.3273 9.03483 20.4961 9.03483 20.6666C9.03483 20.8372 9.06859 21.006 9.13417 21.1634C9.19974 21.3208 9.29584 21.4637 9.4169 21.5837C9.53698 21.7048 9.67984 21.8009 9.83724 21.8665C9.99464 21.932 10.1635 21.9658 10.334 21.9658C10.5045 21.9658 10.6733 21.932 10.8307 21.8665C10.9881 21.8009 11.131 21.7048 11.2511 21.5837L14.209 18.6129V21.4287L10.7086 24.9162C10.4653 25.1595 10.3287 25.4893 10.3287 25.8333C10.3287 26.1773 10.4653 26.5072 10.7086 26.7504C10.9518 26.9936 11.2817 27.1303 11.6257 27.1303C11.9696 27.1303 12.2995 26.9936 12.5427 26.7504L14.209 25.0712V27.125C14.209 27.4676 14.3451 27.7961 14.5873 28.0383C14.8295 28.2806 15.1581 28.4166 15.5007 28.4166C15.8432 28.4166 16.1718 28.2806 16.414 28.0383C16.6562 27.7961 16.7923 27.4676 16.7923 27.125V25.0712L18.4586 26.7504C18.5786 26.8715 18.7215 26.9676 18.8789 27.0331C19.0363 27.0987 19.2051 27.1325 19.3757 27.1325C19.5462 27.1325 19.715 27.0987 19.8724 27.0331C20.0298 26.9676 20.1727 26.8715 20.2927 26.7504C20.4138 26.6303 20.5099 26.4875 20.5755 26.3301C20.641 26.1727 20.6748 26.0038 20.6748 25.8333C20.6748 25.6628 20.641 25.494 20.5755 25.3366C20.5099 25.1792 20.4138 25.0363 20.2927 24.9162L16.7923 21.4287V18.6129L19.7502 21.5837C19.8703 21.7048 20.0132 21.8009 20.1706 21.8665C20.328 21.932 20.4968 21.9658 20.6673 21.9658C20.8378 21.9658 21.0067 21.932 21.1641 21.8665C21.3215 21.8009 21.4643 21.7048 21.5844 21.5837C21.7055 21.4637 21.8016 21.3208 21.8671 21.1634C21.9327 21.006 21.9665 20.8372 21.9665 20.6666C21.9665 20.4961 21.9327 20.3273 21.8671 20.1699C21.8016 20.0125 21.7055 19.8696 21.5844 19.7496L18.6136 16.7916H21.4294L24.9169 20.2921C25.037 20.4131 25.1798 20.5092 25.3372 20.5748C25.4946 20.6404 25.6635 20.6741 25.834 20.6741C26.0045 20.6741 26.1733 20.6404 26.3307 20.5748C26.4881 20.5092 26.631 20.4131 26.7511 20.2921C26.8721 20.172 26.9682 20.0291 27.0338 19.8717C27.0994 19.7143 27.1331 19.5455 27.1331 19.375C27.1331 19.2045 27.0994 19.0356 27.0338 18.8782C26.9682 18.7208 26.8721 18.578 26.7511 18.4579L25.0719 16.7916H27.1257C27.4682 16.7916 27.7968 16.6556 28.039 16.4133C28.2812 16.1711 28.4173 15.8426 28.4173 15.5C28.4173 15.1574 28.2812 14.8289 28.039 14.5866C27.7968 14.3444 27.4682 14.2083 27.1257 14.2083Z" fill="#6491E9"/>
</svg>
