<svg width="30" height="30" viewBox="0 0 30 30" fill="none" xmlns="http://www.w3.org/2000/svg">
<g clip-path="url(#clip0_482_1125)">
<path d="M29.9625 21.2952L29.9531 21.2343L29.8969 21.2577C28.9641 21.6327 24.0281 23.5077 18.2109 23.5077H17.9578C17.7609 23.503 17.5641 23.4608 17.3859 23.3811L9.59062 19.9358C9.52229 19.9075 9.44897 19.8931 9.375 19.8936C8.51719 19.889 4.05469 19.8046 0.58125 18.5436L0.515625 18.5202V24.328C0.515625 24.6327 0.764062 24.8811 1.06875 24.8811H7.99687C8.30156 24.8811 8.55 24.6327 8.55 24.328V22.3358C8.55 22.2093 8.60156 22.0874 8.7 22.003C8.7469 21.9634 8.80162 21.9342 8.86059 21.9173C8.91955 21.9003 8.98143 21.896 9.04219 21.9046C13.2609 22.4718 15.0422 24.0186 15.8156 24.6843L15.8859 24.7452C15.9844 24.8343 16.1109 24.8811 16.2422 24.8811L16.7766 24.8858C25.0688 24.8858 28.6125 23.1186 29.7469 22.3593C29.8969 22.2608 29.9906 22.0921 29.9953 21.9046C30.0047 21.6702 29.9906 21.4686 29.9625 21.2952Z" fill="#E7AC76"/>
<path d="M9.94178 19.1389L17.7418 22.5842C17.8027 22.6123 17.8824 22.6311 17.9715 22.6357H18.2105C23.5965 22.6357 28.2605 20.967 29.5965 20.4186C29.6715 20.0014 29.7371 18.9561 28.6918 18.2436C28.6074 18.1873 28.4996 18.1545 28.3918 18.1545C28.359 18.1545 28.3262 18.1592 28.2887 18.1639C27.8058 18.2576 26.8074 18.4123 25.5418 18.4123C24.5996 18.4123 23.6715 18.3279 22.748 18.1639C21.984 18.6795 21.309 18.942 20.7512 18.942C20.6715 18.942 20.5918 18.9373 20.5168 18.9279C20.4602 18.9206 20.4057 18.9019 20.3565 18.8729C20.3074 18.8439 20.2646 18.8052 20.2308 18.7592C20.1962 18.7136 20.1712 18.6613 20.1575 18.6057C20.1438 18.5501 20.1416 18.4922 20.1512 18.4357C20.184 18.2248 20.3668 18.0607 20.5871 18.0607C20.6058 18.0607 20.6246 18.0607 20.6433 18.0654C20.6762 18.0701 20.7137 18.0748 20.7558 18.0748C20.934 18.0748 21.1637 18.0186 21.4262 17.9107L21.5527 17.8592L21.4215 17.8217C20.9574 17.6811 20.4887 17.5076 19.9824 17.3061C19.5512 17.5029 18.7074 17.8264 17.9387 17.8264H17.9293C17.8637 17.8264 17.7933 17.8264 17.7277 17.817C17.671 17.8123 17.6158 17.7964 17.5652 17.7702C17.5147 17.7441 17.4698 17.7082 17.4332 17.6646C17.3966 17.621 17.369 17.5706 17.352 17.5163C17.3349 17.462 17.3288 17.4049 17.334 17.3482C17.3527 17.1326 17.5449 16.9545 17.798 16.9545H17.8027C17.8449 16.9592 17.8918 16.9592 17.934 16.9592C18.1824 16.9592 18.4918 16.9076 18.8246 16.8092L18.9324 16.7764L18.834 16.7201C18.5152 16.542 18.234 16.3639 17.9808 16.1857C17.9012 16.1295 17.8262 16.0732 17.7465 16.017L17.5543 15.8998C16.9121 16.1342 16.3824 16.2467 15.9465 16.2467C15.8715 16.2467 15.8012 16.242 15.7308 16.2373C15.4965 16.2139 15.3183 16.0029 15.3371 15.7639C15.3558 15.5389 15.548 15.3701 15.8058 15.3701H15.8105C15.8527 15.3748 15.8996 15.3748 15.9512 15.3748C16.1527 15.3748 16.3965 15.3373 16.7012 15.2623L16.7902 15.2389L16.7246 15.1779C16.3637 14.8498 16.0074 14.4842 15.6699 14.0998L15.6465 14.0764L15.6137 14.0904C14.9808 14.3295 14.423 14.4561 13.9543 14.4561H13.9449C13.8793 14.4561 13.8043 14.4561 13.7387 14.4467C13.6816 14.442 13.626 14.4258 13.5753 14.3993C13.5246 14.3727 13.4797 14.3362 13.4433 14.292C13.4061 14.2493 13.3781 14.1993 13.3612 14.1453C13.3443 14.0912 13.3387 14.0342 13.3449 13.9779C13.3637 13.7529 13.5512 13.5842 13.809 13.5842C13.8558 13.5889 13.9027 13.5889 13.9496 13.5889C14.2308 13.5889 14.5824 13.5186 14.9949 13.3826L15.0605 13.3592L15.0183 13.3076C14.723 12.9139 14.4418 12.492 14.1605 12.0232L14.1371 11.9857L14.0996 12.0045C13.5558 12.2436 12.7543 12.5295 12.0465 12.5295C11.9762 12.5295 11.9012 12.5248 11.8308 12.5201C11.7742 12.5147 11.7191 12.4982 11.6688 12.4714C11.6185 12.4447 11.5741 12.4083 11.5379 12.3643C11.5017 12.3203 11.4746 12.2696 11.4581 12.2151C11.4416 12.1606 11.4361 12.1033 11.4418 12.0467C11.4605 11.8264 11.6433 11.6576 11.9058 11.6576H11.9105C11.9527 11.6623 11.9996 11.6623 12.0418 11.6623C12.6137 11.6623 13.3074 11.3998 13.6683 11.2451L13.7152 11.2264L13.6918 11.1795C12.8058 9.45918 12.1402 7.42949 11.7043 5.14199L11.6949 5.10449H1.78084L1.78553 5.15605C2.06678 7.8748 1.41053 9.61855 0.833967 11.1561C0.144905 12.9982 -0.44572 14.5873 0.458967 17.5592C3.85272 18.9279 8.48397 19.0217 9.37459 19.0264C9.57615 19.0264 9.76834 19.0639 9.94178 19.1389Z" fill="#E7AC76"/>
</g>
<defs>
<clipPath id="clip0_482_1125">
<rect width="30" height="30" fill="white"/>
</clipPath>
</defs>
</svg>
