<svg width="23" height="27" viewBox="0 0 23 27" fill="none" xmlns="http://www.w3.org/2000/svg">
<path d="M16.744 10.0575L6.463 0L4.8415 1.58625L7.5785 4.26375L1.656 10.0575C1.49467 10.2134 1.36657 10.3991 1.27915 10.6038C1.19173 10.8085 1.14671 11.0281 1.14671 11.25C1.14671 11.4719 1.19173 11.6915 1.27915 11.8962C1.36657 12.1009 1.49467 12.2866 1.656 12.4425L7.981 18.63C8.3145 18.9562 8.763 19.125 9.2 19.125C9.637 19.125 10.0855 18.9562 10.419 18.63L16.744 12.4425C17.4225 11.79 17.4225 10.7212 16.744 10.0575ZM3.6915 11.25L9.2 5.86125L14.7085 11.25H3.6915ZM19.55 12.9375C19.55 12.9375 17.25 15.3787 17.25 16.875C17.25 18.1125 18.285 19.125 19.55 19.125C20.815 19.125 21.85 18.1125 21.85 16.875C21.85 15.3787 19.55 12.9375 19.55 12.9375ZM0 22.5H23V27H0V22.5Z" fill="#C95AAA"/>
</svg>
