<svg width="26" height="27" viewBox="0 0 26 27" fill="none" xmlns="http://www.w3.org/2000/svg">
<path d="M19.8454 10.1864L21.7295 6.13636L16.5797 5.64545C17.3333 6.25909 17.9614 6.99545 18.4638 7.97727C18.8406 8.71364 19.0918 9.32727 19.343 10.0636C18.715 9.94091 17.9614 9.81818 17.2077 9.81818H16.7053C15.7005 7.60909 13.5652 6.13636 10.9275 6.13636C7.41063 6.13636 4.64734 8.83636 4.64734 12.2727C4.64734 14.85 6.15459 16.9364 8.41546 17.9182V18.4091C8.41546 23.1955 12.3092 27 17.2077 27C22.1063 27 26 23.1955 26 18.4091C26 14.6045 23.3623 11.2909 19.8454 10.1864ZM17.2077 24.5455C13.6908 24.5455 10.9275 21.8455 10.9275 18.4091C10.9275 14.9727 13.6908 12.2727 17.2077 12.2727C20.7246 12.2727 23.4879 14.9727 23.4879 18.4091C23.4879 21.8455 20.7246 24.5455 17.2077 24.5455ZM17.8357 18.6545L21.4783 20.7409L20.4734 22.2136L15.9517 19.6364V13.5H17.8357V18.6545ZM10.9275 3.68182C9.9227 3.68182 8.91787 3.92727 7.91304 4.17273L10.9275 0L13.942 4.17273C12.9372 3.92727 11.9324 3.68182 10.9275 3.68182ZM3.2657 16.5682C3.76812 17.4273 4.52174 18.2864 5.27536 18.9L0.125604 18.4091L2.38647 13.7455C2.51208 14.7273 2.76328 15.7091 3.2657 16.5682ZM2.26087 10.8L0 6.13636L5.27536 5.76818C4.52174 6.38182 3.89372 7.11818 3.2657 7.97727C2.76328 8.83636 2.38647 9.81818 2.26087 10.8Z" fill="#FFB257"/>
</svg>
