<svg width="30" height="42" viewBox="0 0 30 42" fill="none" xmlns="http://www.w3.org/2000/svg">
<path d="M15 3C8.37429 3 3 8.3295 3 14.9C3 23.825 15 37 15 37C15 37 27 23.825 27 14.9C27 8.3295 21.6257 3 15 3ZM15 19.15C12.6343 19.15 10.7143 17.246 10.7143 14.9C10.7143 12.554 12.6343 10.65 15 10.65C17.3657 10.65 19.2857 12.554 19.2857 14.9C19.2857 17.246 17.3657 19.15 15 19.15Z" fill="#FF5757"/>
<path d="M15 37L13.891 38.0101L15 39.2276L16.109 38.0101L15 37ZM15 37C16.109 38.0101 16.1092 38.0098 16.1094 38.0095L16.1102 38.0087L16.1125 38.0062L16.1203 37.9975L16.1488 37.966C16.1734 37.9387 16.209 37.8991 16.2549 37.8475C16.3466 37.7445 16.4796 37.594 16.648 37.4002C16.9846 37.0128 17.4629 36.452 18.0358 35.752C19.1803 34.3536 20.7087 32.3916 22.2402 30.1407C23.7687 27.894 25.3191 25.3321 26.492 22.7359C27.6559 20.1596 28.5 17.4373 28.5 14.9C28.5 7.48926 22.4423 1.5 15 1.5C7.55772 1.5 1.5 7.48926 1.5 14.9C1.5 17.4373 2.34413 20.1596 3.50802 22.7359C4.68091 25.3321 6.23128 27.894 7.75982 30.1407C9.29129 32.3916 10.8197 34.3536 11.9642 35.752C12.5371 36.452 13.0154 37.0128 13.352 37.4002C13.5204 37.594 13.6534 37.7445 13.7451 37.8475C13.791 37.8991 13.8266 37.9387 13.8512 37.966L13.8797 37.9975L13.8875 38.0062L13.8898 38.0087L13.8906 38.0095C13.8908 38.0098 13.891 38.0101 15 37ZM15 17.65C13.4509 17.65 12.2143 16.4058 12.2143 14.9C12.2143 13.3942 13.4509 12.15 15 12.15C16.5491 12.15 17.7857 13.3942 17.7857 14.9C17.7857 16.4058 16.5491 17.65 15 17.65Z" stroke="white" stroke-opacity="0.58" stroke-width="3"/>
</svg>
