<svg width="55" height="55" viewBox="0 0 55 55" fill="none" xmlns="http://www.w3.org/2000/svg">
<path d="M43.5404 36.6666C42.3474 36.6802 41.1786 37.004 40.1487 37.6062L29.7904 28.7374V17.9208C31.3194 17.3802 32.6081 16.3165 33.4287 14.9176C34.2493 13.5187 34.5489 11.8748 34.2747 10.2764C34.0004 8.67796 33.17 7.22795 31.93 6.18262C30.6901 5.13729 29.1205 4.56396 27.4987 4.56396C25.8769 4.56396 24.3073 5.13729 23.0674 6.18262C21.8274 7.22795 20.997 8.67796 20.7227 10.2764C20.4485 11.8748 20.7481 13.5187 21.5687 14.9176C22.3893 16.3165 23.678 17.3802 25.207 17.9208V28.7374L14.8487 37.6062C13.8188 37.004 12.65 36.6802 11.457 36.6666C10.0973 36.6666 8.76808 37.0698 7.63749 37.8253C6.5069 38.5807 5.62572 39.6544 5.10536 40.9107C4.58501 42.1669 4.44886 43.5492 4.71414 44.8829C4.97941 46.2165 5.63419 47.4415 6.59568 48.403C7.55716 49.3645 8.78217 50.0192 10.1158 50.2845C11.4494 50.5498 12.8317 50.4136 14.088 49.8933C15.3442 49.3729 16.418 48.4917 17.1734 47.3612C17.9288 46.2306 18.332 44.9014 18.332 43.5416C18.3256 42.694 18.1624 41.8549 17.8508 41.0666L27.4987 32.8166L37.1466 41.0666C36.835 41.8549 36.6718 42.694 36.6654 43.5416C36.6654 44.9014 37.0686 46.2306 37.824 47.3612C38.5794 48.4917 39.6532 49.3729 40.9094 49.8933C42.1657 50.4136 43.548 50.5498 44.8816 50.2845C46.2152 50.0192 47.4402 49.3645 48.4017 48.403C49.3632 47.4415 50.018 46.2165 50.2833 44.8829C50.5485 43.5492 50.4124 42.1669 49.892 40.9107C49.3717 39.6544 48.4905 38.5807 47.3599 37.8253C46.2293 37.0698 44.9001 36.6666 43.5404 36.6666Z" fill="#7957FF"/>
</svg>
