<svg width="70" height="70" viewBox="0 0 70 70" fill="none" xmlns="http://www.w3.org/2000/svg">
<g clip-path="url(#clip0_421_409)">
<path d="M30.625 10.9375H13.125C11.9169 10.9375 10.9375 11.9169 10.9375 13.125V30.625C10.9375 31.8331 11.9169 32.8125 13.125 32.8125H30.625C31.8331 32.8125 32.8125 31.8331 32.8125 30.625V13.125C32.8125 11.9169 31.8331 10.9375 30.625 10.9375Z" fill="#191919"/>
<path d="M56.875 10.9375H39.375C38.1669 10.9375 37.1875 11.9169 37.1875 13.125V30.625C37.1875 31.8331 38.1669 32.8125 39.375 32.8125H56.875C58.0831 32.8125 59.0625 31.8331 59.0625 30.625V13.125C59.0625 11.9169 58.0831 10.9375 56.875 10.9375Z" fill="#191919"/>
<path d="M30.625 37.1875H13.125C11.9169 37.1875 10.9375 38.1669 10.9375 39.375V56.875C10.9375 58.0831 11.9169 59.0625 13.125 59.0625H30.625C31.8331 59.0625 32.8125 58.0831 32.8125 56.875V39.375C32.8125 38.1669 31.8331 37.1875 30.625 37.1875Z" fill="#191919"/>
<path d="M56.875 37.1875H39.375C38.1669 37.1875 37.1875 38.1669 37.1875 39.375V56.875C37.1875 58.0831 38.1669 59.0625 39.375 59.0625H56.875C58.0831 59.0625 59.0625 58.0831 59.0625 56.875V39.375C59.0625 38.1669 58.0831 37.1875 56.875 37.1875Z" fill="#191919"/>
</g>
<defs>
<clipPath id="clip0_421_409">
<rect width="70" height="70" fill="white"/>
</clipPath>
</defs>
</svg>
