<svg width="60" height="60" viewBox="0 0 60 60" fill="none" xmlns="http://www.w3.org/2000/svg">
<path d="M52.5 27.5H48.525L51.775 24.275C52.0081 24.0419 52.193 23.7652 52.3191 23.4606C52.4453 23.1561 52.5102 22.8296 52.5102 22.5C52.5102 22.1704 52.4453 21.8439 52.3191 21.5394C52.193 21.2348 52.0081 20.9581 51.775 20.725C51.5419 20.4919 51.2652 20.307 50.9606 20.1809C50.6561 20.0547 50.3296 19.9898 50 19.9898C49.6704 19.9898 49.3439 20.0547 49.0394 20.1809C48.7348 20.307 48.4581 20.4919 48.225 20.725L41.475 27.5H36.025L41.775 21.775C42.0081 21.5419 42.193 21.2652 42.3191 20.9606C42.4453 20.6561 42.5102 20.3296 42.5102 20C42.5102 19.6704 42.4453 19.3439 42.3191 19.0394C42.193 18.7348 42.0081 18.4581 41.775 18.225C41.5419 17.9919 41.2652 17.807 40.9606 17.6809C40.6561 17.5547 40.3296 17.4898 40 17.4898C39.6704 17.4898 39.3439 17.5547 39.0394 17.6809C38.7348 17.807 38.4581 17.9919 38.225 18.225L32.5 23.975V18.525L39.275 11.775C39.5081 11.5419 39.693 11.2652 39.8191 10.9606C39.9453 10.6561 40.0102 10.3296 40.0102 10C40.0102 9.67035 39.9453 9.34393 39.8191 9.03938C39.693 8.73482 39.5081 8.4581 39.275 8.225C39.0419 7.9919 38.7652 7.807 38.4606 7.68085C38.1561 7.5547 37.8296 7.48977 37.5 7.48977C36.8342 7.48977 36.1958 7.75424 35.725 8.225L32.5 11.475V7.5C32.5 6.83696 32.2366 6.20107 31.7678 5.73223C31.2989 5.26339 30.663 5 30 5C29.337 5 28.7011 5.26339 28.2322 5.73223C27.7634 6.20107 27.5 6.83696 27.5 7.5V11.475L24.275 8.225C23.8042 7.75424 23.1658 7.48977 22.5 7.48977C21.8342 7.48977 21.1958 7.75424 20.725 8.225C20.2542 8.69576 19.9898 9.33425 19.9898 10C19.9898 10.6658 20.2542 11.3042 20.725 11.775L27.5 18.525V23.975L21.775 18.225C21.5419 17.9919 21.2652 17.807 20.9606 17.6809C20.6561 17.5547 20.3296 17.4898 20 17.4898C19.6704 17.4898 19.3439 17.5547 19.0394 17.6809C18.7348 17.807 18.4581 17.9919 18.225 18.225C17.9919 18.4581 17.807 18.7348 17.6809 19.0394C17.5547 19.3439 17.4898 19.6704 17.4898 20C17.4898 20.3296 17.5547 20.6561 17.6809 20.9606C17.807 21.2652 17.9919 21.5419 18.225 21.775L23.975 27.5H18.525L11.775 20.725C11.3042 20.2542 10.6658 19.9898 10 19.9898C9.33425 19.9898 8.69576 20.2542 8.225 20.725C7.75424 21.1958 7.48977 21.8342 7.48977 22.5C7.48977 23.1658 7.75424 23.8042 8.225 24.275L11.475 27.5H7.5C6.83696 27.5 6.20107 27.7634 5.73223 28.2322C5.26339 28.7011 5 29.337 5 30C5 30.663 5.26339 31.2989 5.73223 31.7678C6.20107 32.2366 6.83696 32.5 7.5 32.5H11.475L8.225 35.725C7.99068 35.9574 7.80469 36.2339 7.67777 36.5386C7.55085 36.8432 7.4855 37.17 7.4855 37.5C7.4855 37.83 7.55085 38.1568 7.67777 38.4614C7.80469 38.7661 7.99068 39.0426 8.225 39.275C8.45741 39.5093 8.73391 39.6953 9.03856 39.8222C9.34321 39.9492 9.66997 40.0145 10 40.0145C10.33 40.0145 10.6568 39.9492 10.9614 39.8222C11.2661 39.6953 11.5426 39.5093 11.775 39.275L18.525 32.5H23.975L18.225 38.225C17.9907 38.4574 17.8047 38.7339 17.6778 39.0386C17.5508 39.3432 17.4855 39.67 17.4855 40C17.4855 40.33 17.5508 40.6568 17.6778 40.9614C17.8047 41.2661 17.9907 41.5426 18.225 41.775C18.4574 42.0093 18.7339 42.1953 19.0386 42.3222C19.3432 42.4492 19.67 42.5145 20 42.5145C20.33 42.5145 20.6568 42.4492 20.9614 42.3222C21.2661 42.1953 21.5426 42.0093 21.775 41.775L27.5 36.025V41.475L20.725 48.225C20.2542 48.6958 19.9898 49.3342 19.9898 50C19.9898 50.6658 20.2542 51.3042 20.725 51.775C21.1958 52.2458 21.8342 52.5102 22.5 52.5102C23.1658 52.5102 23.8042 52.2458 24.275 51.775L27.5 48.525V52.5C27.5 53.163 27.7634 53.7989 28.2322 54.2678C28.7011 54.7366 29.337 55 30 55C30.663 55 31.2989 54.7366 31.7678 54.2678C32.2366 53.7989 32.5 53.163 32.5 52.5V48.525L35.725 51.775C35.9574 52.0093 36.2339 52.1953 36.5386 52.3222C36.8432 52.4492 37.17 52.5145 37.5 52.5145C37.83 52.5145 38.1568 52.4492 38.4614 52.3222C38.7661 52.1953 39.0426 52.0093 39.275 51.775C39.5093 51.5426 39.6953 51.2661 39.8222 50.9614C39.9492 50.6568 40.0145 50.33 40.0145 50C40.0145 49.67 39.9492 49.3432 39.8222 49.0386C39.6953 48.7339 39.5093 48.4574 39.275 48.225L32.5 41.475V36.025L38.225 41.775C38.4574 42.0093 38.7339 42.1953 39.0386 42.3222C39.3432 42.4492 39.67 42.5145 40 42.5145C40.33 42.5145 40.6568 42.4492 40.9614 42.3222C41.2661 42.1953 41.5426 42.0093 41.775 41.775C42.0093 41.5426 42.1953 41.2661 42.3222 40.9614C42.4492 40.6568 42.5145 40.33 42.5145 40C42.5145 39.67 42.4492 39.3432 42.3222 39.0386C42.1953 38.7339 42.0093 38.4574 41.775 38.225L36.025 32.5H41.475L48.225 39.275C48.4574 39.5093 48.7339 39.6953 49.0386 39.8222C49.3432 39.9492 49.67 40.0145 50 40.0145C50.33 40.0145 50.6568 39.9492 50.9614 39.8222C51.2661 39.6953 51.5426 39.5093 51.775 39.275C52.0093 39.0426 52.1953 38.7661 52.3222 38.4614C52.4492 38.1568 52.5145 37.83 52.5145 37.5C52.5145 37.17 52.4492 36.8432 52.3222 36.5386C52.1953 36.2339 52.0093 35.9574 51.775 35.725L48.525 32.5H52.5C53.163 32.5 53.7989 32.2366 54.2678 31.7678C54.7366 31.2989 55 30.663 55 30C55 29.337 54.7366 28.7011 54.2678 28.2322C53.7989 27.7634 53.163 27.5 52.5 27.5Z" fill="#6491E9"/>
</svg>
