<svg width="50" height="50" viewBox="0 0 50 50" fill="none" xmlns="http://www.w3.org/2000/svg">
<path d="M12.5513 49.485C12.2113 50.081 11.2433 50.175 10.3893 49.685L5.04333 46.642C4.19333 46.157 3.77833 45.28 4.11933 44.685L26.8563 8.642C30.1263 3.356 18.6963 3.822 15.8903 5.378C18.0123 1.573 24.7753 0.317 29.1613 0L30.4373 0.083C32.9163 1.318 36.4713 3.171 38.8143 4.725C40.5353 7.428 42.3503 8.851 44.9203 8.844C48.2743 11.414 43.0353 18.425 39.7393 15.178C39.7573 13.574 35.1033 9.424 31.8433 12.843L12.5513 49.485Z" fill="#A6A6A6"/>
</svg>
