<svg width="50" height="50" viewBox="0 0 50 50" fill="none" xmlns="http://www.w3.org/2000/svg">
<path d="M10.7742 5.59353C11.9038 4.83902 13.0948 4.18078 14.3346 3.62576C17.8363 2.05614 19.5871 1.2726 21.9147 2.78352C24.2449 4.28934 24.2449 6.765 24.2449 11.7163V15.5447C24.2449 20.3582 24.2449 22.7624 25.7405 24.258C27.2361 25.7536 29.6403 25.7536 34.4538 25.7536H38.2822C43.2335 25.7536 45.7092 25.7536 47.215 28.0812C48.7259 30.4114 47.9424 32.1622 46.3727 35.6613C44.1292 40.6737 40.2502 44.7758 35.371 47.2958C30.4918 49.8159 24.9016 50.6045 19.5156 49.5327C14.8125 48.5971 10.4925 46.288 7.10167 42.8972C3.71089 39.5065 1.40168 35.1865 0.466033 30.4834C-0.469613 25.7803 0.0103255 20.9054 1.84516 16.475C3.68 12.0447 6.78733 8.25793 10.7742 5.59353Z" fill="#6AD8BD"/>
<path d="M49.6309 11.8925C48.6008 9.2855 47.0466 6.91768 45.0645 4.93558C43.0823 2.95347 40.7145 1.39927 38.1075 0.369173C34.172 -1.18003 30.627 2.38543 30.627 6.61193V16.8208C30.627 17.4977 30.8958 18.1469 31.3745 18.6255C31.8531 19.1042 32.5023 19.3731 33.1792 19.3731H43.3881C47.6171 19.3731 51.1801 15.8255 49.6309 11.8925Z" fill="#6AD8BD"/>
</svg>
