<svg width="50" height="50" viewBox="0 0 50 50" fill="none" xmlns="http://www.w3.org/2000/svg">
<path d="M25.5061 1.40215C25.4386 0.864648 24.5561 0.864648 24.4911 1.40215C22.2836 19.1696 10.9961 22.8321 10.9961 35.1821C10.9961 42.8146 17.4061 48.9996 24.9986 48.9996C32.5886 48.9996 38.9986 42.8121 38.9986 35.1821C38.9986 22.8321 27.7136 19.1696 25.5061 1.40215ZM23.3736 21.0446C23.2261 21.5921 23.0661 22.1546 22.9011 22.7396C21.8986 26.2996 20.7611 30.3371 20.7611 35.0047C20.7611 37.5346 19.2661 38.4321 17.8711 38.4321C17.4899 38.4305 17.1128 38.3538 16.7613 38.2064C16.4098 38.0591 16.0907 37.8439 15.8224 37.5732C15.554 37.3025 15.3416 36.9816 15.1972 36.6288C15.0529 36.2761 14.9794 35.8983 14.9811 35.5171C14.9811 29.9996 17.6361 26.3946 19.9811 23.2171C20.7186 22.2221 21.4111 21.2796 21.9736 20.3421C22.2311 19.9121 22.9236 19.9321 23.2386 20.3571C23.3861 20.5571 23.4361 20.8121 23.3736 21.0446Z" fill="#57C3FF"/>
</svg>
