<svg width="59" height="59" viewBox="0 0 59 59" fill="none" xmlns="http://www.w3.org/2000/svg">
<path d="M29.4992 41.3002C36.0162 41.3002 41.2992 36.0172 41.2992 29.5002C41.2992 22.9832 36.0162 17.7002 29.4992 17.7002C22.9823 17.7002 17.6992 22.9832 17.6992 29.5002C17.6992 36.0172 22.9823 41.3002 29.4992 41.3002Z" fill="#FFB257"/>
<path d="M29.5003 11.8003C28.9787 11.8003 28.4784 11.5931 28.1096 11.2242C27.7408 10.8554 27.5336 10.3552 27.5336 9.83359V5.90026C27.5336 5.37867 27.7408 4.87844 28.1096 4.50962C28.4784 4.1408 28.9787 3.93359 29.5003 3.93359C30.0219 3.93359 30.5221 4.1408 30.8909 4.50962C31.2597 4.87844 31.4669 5.37867 31.4669 5.90026V9.83359C31.4669 10.3552 31.2597 10.8554 30.8909 11.2242C30.5221 11.5931 30.0219 11.8003 29.5003 11.8003ZM29.5003 55.0669C28.9787 55.0669 28.4784 54.8597 28.1096 54.4909C27.7408 54.1221 27.5336 53.6219 27.5336 53.1003V49.1669C27.5336 48.6453 27.7408 48.1451 28.1096 47.7763C28.4784 47.4075 28.9787 47.2003 29.5003 47.2003C30.0219 47.2003 30.5221 47.4075 30.8909 47.7763C31.2597 48.1451 31.4669 48.6453 31.4669 49.1669V53.1003C31.4669 53.6219 31.2597 54.1221 30.8909 54.4909C30.5221 54.8597 30.0219 55.0669 29.5003 55.0669ZM9.83359 31.4669H5.90026C5.37867 31.4669 4.87844 31.2597 4.50962 30.8909C4.1408 30.5221 3.93359 30.0219 3.93359 29.5003C3.93359 28.9787 4.1408 28.4784 4.50962 28.1096C4.87844 27.7408 5.37867 27.5336 5.90026 27.5336H9.83359C10.3552 27.5336 10.8554 27.7408 11.2242 28.1096C11.5931 28.4784 11.8003 28.9787 11.8003 29.5003C11.8003 30.0219 11.5931 30.5221 11.2242 30.8909C10.8554 31.2597 10.3552 31.4669 9.83359 31.4669ZM53.1003 31.4669H49.1669C48.6453 31.4669 48.1451 31.2597 47.7763 30.8909C47.4075 30.5221 47.2003 30.0219 47.2003 29.5003C47.2003 28.9787 47.4075 28.4784 47.7763 28.1096C48.1451 27.7408 48.6453 27.5336 49.1669 27.5336H53.1003C53.6219 27.5336 54.1221 27.7408 54.4909 28.1096C54.8597 28.4784 55.0669 28.9787 55.0669 29.5003C55.0669 30.0219 54.8597 30.5221 54.4909 30.8909C54.1221 31.2597 53.6219 31.4669 53.1003 31.4669ZM12.8033 48.1639C12.2845 48.1565 11.7897 47.9445 11.4266 47.5739C11.0603 47.2054 10.8547 46.707 10.8547 46.1874C10.8547 45.6679 11.0603 45.1694 11.4266 44.8009L14.1996 42.0083C14.5699 41.6379 15.0722 41.4299 15.5959 41.4299C16.1197 41.4299 16.6219 41.6379 16.9923 42.0083C17.3626 42.3786 17.5706 42.8809 17.5706 43.4046C17.5706 43.9283 17.3626 44.4306 16.9923 44.8009L14.1996 47.5739C14.0175 47.7598 13.8002 47.9076 13.5606 48.0089C13.3209 48.1101 13.0635 48.1628 12.8033 48.1639ZM43.4046 17.5626C43.1458 17.5641 42.8892 17.5145 42.6496 17.4166C42.41 17.3187 42.192 17.1745 42.0083 16.9923C41.8239 16.8094 41.6776 16.5919 41.5778 16.3523C41.4779 16.1126 41.4265 15.8556 41.4265 15.5959C41.4265 15.3363 41.4779 15.0793 41.5778 14.8396C41.6776 14.5999 41.8239 14.3824 42.0083 14.1996L44.8009 11.4266C45.1772 11.1044 45.6611 10.936 46.1561 10.9552C46.651 10.9743 47.1206 11.1795 47.4708 11.5297C47.8211 11.88 48.0262 12.3495 48.0454 12.8445C48.0645 13.3394 47.8961 13.8234 47.5739 14.1996L44.8009 16.9923C44.6172 17.1745 44.3992 17.3187 44.1596 17.4166C43.92 17.5145 43.6634 17.5641 43.4046 17.5626ZM46.1973 48.1639C45.9371 48.1628 45.6797 48.1101 45.44 48.0089C45.2003 47.9076 44.9831 47.7598 44.8009 47.5739L42.0083 44.8009C41.8249 44.6176 41.6794 44.3999 41.5802 44.1603C41.481 43.9207 41.4299 43.6639 41.4299 43.4046C41.4299 43.1453 41.481 42.8885 41.5802 42.6489C41.6794 42.4093 41.8249 42.1916 42.0083 42.0083C42.1916 41.8249 42.4093 41.6794 42.6489 41.5802C42.8885 41.481 43.1453 41.4299 43.4046 41.4299C43.6639 41.4299 43.9207 41.481 44.1603 41.5802C44.3999 41.6794 44.6176 41.8249 44.8009 42.0083L47.5739 44.8009C47.9402 45.1694 48.1458 45.6679 48.1458 46.1874C48.1458 46.707 47.9402 47.2054 47.5739 47.5739C47.2108 47.9445 46.716 48.1565 46.1973 48.1639ZM15.5959 17.5626C15.3371 17.5641 15.0805 17.5145 14.8409 17.4166C14.6013 17.3187 14.3834 17.1745 14.1996 16.9923L11.4266 14.1996C11.1044 13.8234 10.936 13.3394 10.9552 12.8445C10.9743 12.3495 11.1795 11.88 11.5297 11.5297C11.88 11.1795 12.3495 10.9743 12.8445 10.9552C13.3394 10.936 13.8234 11.1044 14.1996 11.4266L16.9923 14.1996C17.1766 14.3824 17.3229 14.5999 17.4227 14.8396C17.5226 15.0793 17.574 15.3363 17.574 15.5959C17.574 15.8556 17.5226 16.1126 17.4227 16.3523C17.3229 16.5919 17.1766 16.8094 16.9923 16.9923C16.8085 17.1745 16.5906 17.3187 16.3509 17.4166C16.1113 17.5145 15.8548 17.5641 15.5959 17.5626Z" fill="#FFB257"/>
</svg>
