<svg width="64" height="64" viewBox="0 0 64 64" fill="none" xmlns="http://www.w3.org/2000/svg">
<g clip-path="url(#clip0_374_549)">
<path d="M63.9196 45.4298L63.8996 45.2998L63.7796 45.3498C61.7896 46.1498 51.2596 50.1498 38.8496 50.1498H38.3096C37.8896 50.1398 37.4696 50.0498 37.0896 49.8798L20.4596 42.5298C20.3138 42.4693 20.1574 42.4387 19.9996 42.4398C18.1696 42.4298 8.64961 42.2498 1.23961 39.5598L1.09961 39.5098V51.8998C1.09961 52.5498 1.62961 53.0798 2.27961 53.0798H17.0596C17.7096 53.0798 18.2396 52.5498 18.2396 51.8998V47.6498C18.2396 47.3798 18.3496 47.1198 18.5596 46.9398C18.6597 46.8554 18.7764 46.793 18.9022 46.7568C19.028 46.7207 19.16 46.7114 19.2896 46.7298C28.2896 47.9398 32.0896 51.2398 33.7396 52.6598L33.8896 52.7898C34.0996 52.9798 34.3696 53.0798 34.6496 53.0798L35.7896 53.0898C53.4796 53.0898 61.0396 49.3198 63.4596 47.6998C63.7796 47.4898 63.9796 47.1298 63.9896 46.7298C64.0096 46.2298 63.9796 45.7998 63.9196 45.4298Z" fill="#E7AC76"/>
<path d="M21.2094 40.8297L37.8494 48.1796C37.9794 48.2397 38.1494 48.2797 38.3394 48.2896H38.8494C50.3394 48.2896 60.2894 44.7296 63.1394 43.5597C63.2994 42.6697 63.4394 40.4396 61.2094 38.9196C61.0294 38.7996 60.7994 38.7296 60.5694 38.7296C60.4994 38.7296 60.4294 38.7396 60.3494 38.7496C59.3194 38.9496 57.1894 39.2796 54.4894 39.2796C52.4794 39.2796 50.4994 39.0996 48.5294 38.7496C46.8994 39.8496 45.4594 40.4096 44.2694 40.4096C44.0994 40.4096 43.9294 40.3997 43.7694 40.3797C43.6487 40.364 43.5323 40.3241 43.4275 40.2622C43.3226 40.2003 43.2314 40.1178 43.1594 40.0196C43.0854 39.9224 43.0321 39.8109 43.0029 39.6923C42.9736 39.5736 42.9691 39.4502 42.9894 39.3297C43.0594 38.8797 43.4494 38.5296 43.9194 38.5296C43.9594 38.5296 43.9994 38.5296 44.0394 38.5396C44.1094 38.5497 44.1894 38.5597 44.2794 38.5597C44.6594 38.5597 45.1494 38.4396 45.7094 38.2096L45.9794 38.0996L45.6994 38.0196C44.7094 37.7197 43.7094 37.3496 42.6294 36.9196C41.7094 37.3396 39.9094 38.0296 38.2694 38.0296H38.2494C38.1094 38.0296 37.9594 38.0296 37.8194 38.0096C37.6984 37.9996 37.5806 37.9657 37.4728 37.9099C37.365 37.8541 37.2693 37.7775 37.1912 37.6846C37.1131 37.5916 37.0542 37.4841 37.0178 37.3683C36.9815 37.2524 36.9684 37.1306 36.9794 37.0096C37.0194 36.5496 37.4294 36.1696 37.9694 36.1696H37.9794C38.0694 36.1796 38.1694 36.1796 38.2594 36.1796C38.7894 36.1796 39.4494 36.0696 40.1594 35.8596L40.3894 35.7896L40.1794 35.6696C39.4994 35.2896 38.8994 34.9096 38.3594 34.5296C38.1894 34.4096 38.0294 34.2896 37.8594 34.1696L37.4494 33.9196C36.0794 34.4196 34.9494 34.6596 34.0194 34.6596C33.8594 34.6596 33.7094 34.6496 33.5594 34.6396C33.0594 34.5896 32.6794 34.1397 32.7194 33.6297C32.7594 33.1497 33.1694 32.7896 33.7194 32.7896H33.7294C33.8194 32.7997 33.9194 32.7996 34.0294 32.7996C34.4594 32.7996 34.9794 32.7197 35.6294 32.5597L35.8194 32.5096L35.6794 32.3797C34.9094 31.6796 34.1494 30.8996 33.4294 30.0796L33.3794 30.0296L33.3094 30.0596C31.9594 30.5696 30.7694 30.8396 29.7694 30.8396H29.7494C29.6094 30.8396 29.4494 30.8396 29.3094 30.8196C29.1876 30.8096 29.0692 30.7752 28.9609 30.7185C28.8527 30.6618 28.757 30.584 28.6794 30.4896C28.6 30.3986 28.5403 30.292 28.5042 30.1767C28.468 30.0613 28.4562 29.9398 28.4694 29.8196C28.5094 29.3396 28.9094 28.9796 29.4594 28.9796C29.5594 28.9896 29.6594 28.9896 29.7594 28.9896C30.3594 28.9896 31.1094 28.8396 31.9894 28.5496L32.1294 28.4996L32.0394 28.3896C31.4094 27.5496 30.8094 26.6496 30.2094 25.6496L30.1594 25.5696L30.0794 25.6096C28.9194 26.1196 27.2094 26.7296 25.6994 26.7296C25.5494 26.7296 25.3894 26.7196 25.2394 26.7096C25.1185 26.6981 25.001 26.6628 24.8937 26.6058C24.7865 26.5487 24.6916 26.471 24.6144 26.3772C24.5373 26.2833 24.4795 26.1751 24.4443 26.0589C24.4091 25.9426 24.3972 25.8205 24.4094 25.6996C24.4494 25.2296 24.8394 24.8696 25.3994 24.8696H25.4094C25.4994 24.8796 25.5994 24.8796 25.6894 24.8796C26.9094 24.8796 28.3894 24.3196 29.1594 23.9896L29.2594 23.9496L29.2094 23.8496C27.3194 20.1796 25.8994 15.8496 24.9694 10.9696L24.9494 10.8896H3.79939L3.80939 10.9996C4.40939 16.7996 3.00939 20.5196 1.77939 23.7996C0.30939 27.7296 -0.95061 31.1196 0.97939 37.4596C8.21939 40.3796 18.0994 40.5796 19.9994 40.5896C20.4294 40.5896 20.8394 40.6697 21.2094 40.8297Z" fill="#E7AC76"/>
</g>
<defs>
<clipPath id="clip0_374_549">
<rect width="64" height="64" fill="white"/>
</clipPath>
</defs>
</svg>
