<svg width="49" height="49" viewBox="0 0 49 49" fill="none" xmlns="http://www.w3.org/2000/svg">
<g clip-path="url(#clip0_281_200)">
<path d="M23.1781 0V7.77561H25.8191V0H23.1778H23.1781ZM12.3936 2.33669L10.2297 3.85173L14.6889 10.2195L16.8515 8.70444L12.3936 2.33669ZM36.6031 2.33669L32.1453 8.70448L34.3083 10.2196L38.7673 3.85173L36.6035 2.33669H36.6031ZM24.498 9.90306C18.0371 9.90306 12.7996 13.8265 12.7996 18.6669L19.4461 38.7956H29.5511L36.1971 18.6669C36.1971 13.8265 30.9599 9.90306 24.4987 9.90306H24.498ZM3.48831 12.2366L2.58594 14.7199L9.88894 17.3787L10.7947 14.8967L3.48815 12.2366H3.48831ZM45.5083 12.2366L38.2018 14.8969L39.1045 17.3792L46.411 14.7199L45.5083 12.2366ZM10.4419 23.5886L2.93261 25.6028L3.61396 28.1521L11.1232 26.1408L10.442 23.5886H10.4419ZM38.5548 23.5886L37.8739 26.1408L45.3832 28.1517L46.064 25.6024L38.5548 23.5886V23.5886ZM19.2988 40.263V43.7618H29.6985V40.2635H19.2988L19.2988 40.263ZM19.2988 45.5012V49H29.6985V45.5017H19.2988L19.2988 45.5012Z" fill="#FFB257"/>
</g>
<defs>
<clipPath id="clip0_281_200">
<rect width="49" height="49" fill="white"/>
</clipPath>
</defs>
</svg>
