<svg width="54" height="54" viewBox="0 0 54 54" fill="none" xmlns="http://www.w3.org/2000/svg">
<path fill-rule="evenodd" clip-rule="evenodd" d="M23.8206 4.725C24.6171 3.92957 25.6828 3.46152 26.8074 3.41321C27.932 3.36489 29.0339 3.73981 29.8956 4.464L30.1836 4.72725L34.4586 9H40.5021C41.637 9.00021 42.73 9.42924 43.5619 10.2011C44.3939 10.973 44.9035 12.0308 44.9886 13.1625L45.0021 13.5V19.5435L49.2771 23.8185C50.0732 24.6151 50.5416 25.6812 50.59 26.8064C50.6383 27.9315 50.263 29.0338 49.5381 29.8958L49.2749 30.1815L44.9999 34.4565V40.5C45.0002 41.6353 44.5715 42.7288 43.7995 43.5612C43.0276 44.3937 41.9695 44.9036 40.8374 44.9888L40.5021 45H34.4609L30.1859 49.275C29.3893 50.0711 28.3232 50.5395 27.198 50.5878C26.0729 50.6362 24.9705 50.2608 24.1086 49.536L23.8229 49.275L19.5479 45H13.5021C12.3668 45.0004 11.2734 44.5716 10.4409 43.7996C9.60844 43.0277 9.09853 41.9696 9.01338 40.8375L9.00213 40.5V34.4565L4.72713 30.1815C3.93107 29.3849 3.46263 28.3188 3.4143 27.1937C3.36598 26.0685 3.7413 24.9662 4.46613 24.1043L4.72713 23.8185L9.00213 19.5435V13.5C9.00234 12.3651 9.43137 11.2722 10.2033 10.4402C10.9752 9.60822 12.0329 9.09862 13.1646 9.0135L13.5021 9H19.5456L23.8206 4.725ZM33.9299 20.2118L24.3809 29.7608L20.4029 25.7828C19.9807 25.3609 19.4082 25.124 18.8113 25.1242C18.2145 25.1244 17.6422 25.3617 17.2203 25.7839C16.7984 26.2061 16.5615 26.7786 16.5617 27.3754C16.5619 27.9723 16.7992 28.5446 17.2214 28.9665L22.6304 34.3755C22.8602 34.6055 23.1331 34.7879 23.4335 34.9123C23.7338 35.0368 24.0558 35.1008 24.3809 35.1008C24.706 35.1008 25.0279 35.0368 25.3283 34.9123C25.6286 34.7879 25.9015 34.6055 26.1314 34.3755L37.1114 23.3933C37.5212 22.9689 37.748 22.4005 37.7429 21.8106C37.7378 21.2207 37.5011 20.6563 37.084 20.2392C36.6668 19.822 36.1025 19.5854 35.5125 19.5802C34.9226 19.5751 34.3542 19.8019 33.9299 20.2118Z" fill="#FFB257"/>
</svg>
