<svg width="41" height="41" viewBox="0 0 41 41" fill="none" xmlns="http://www.w3.org/2000/svg">
<g clip-path="url(#clip0_281_198)">
<g clip-path="url(#clip1_281_198)">
<path d="M15.8125 41V27.4187C14.275 26.65 13.25 24.8562 13.25 23.0625V12.8125C13.25 11.0187 14.275 9.48123 15.8125 8.45623V7.68748C15.8125 4.86873 13.5063 2.56248 10.6875 2.56248C7.86875 2.56248 5.5625 4.86873 5.5625 7.68748C5.5625 10.5062 7.86875 12.8125 10.6875 12.8125H5.5625C4.28125 12.8125 3 14.0937 3 15.375V25.625C3 26.9062 4.28125 28.1875 5.5625 28.1875V41H15.8125ZM41.4375 12.8125H36.3125C39.1313 12.8125 41.4375 10.5062 41.4375 7.68748C41.4375 4.86873 39.1313 2.56248 36.3125 2.56248C33.4937 2.56248 31.1875 4.86873 31.1875 7.68748V8.45623C32.725 9.48123 33.75 11.0187 33.75 12.8125V23.0625C33.75 24.8562 32.725 26.65 31.1875 27.4187V41H41.4375V28.1875C42.7188 28.1875 44 26.9062 44 25.625V15.375C44 14.0937 42.7188 12.8125 41.4375 12.8125ZM28.625 5.12498C28.6404 5.80747 28.5194 6.48617 28.2689 7.12123C28.0184 7.75629 27.6436 8.3349 27.1664 8.82311C26.6892 9.31131 26.1193 9.69927 25.4902 9.96419C24.861 10.2291 24.1853 10.3657 23.5026 10.3658C22.8199 10.366 22.1441 10.2298 21.5148 9.96519C20.8855 9.70058 20.3154 9.31291 19.838 8.82494C19.3606 8.33698 18.9855 7.75855 18.7347 7.12361C18.4839 6.48868 18.3625 5.81004 18.3776 5.12754C18.4072 3.78848 18.9598 2.51422 19.9172 1.57753C20.8746 0.640846 22.1606 0.11618 23.5 0.115845C24.8394 0.11551 26.1257 0.639533 27.0836 1.57574C28.0414 2.51194 28.5947 3.78593 28.625 5.12498Z" fill="#FFB257"/>
<path d="M28.625 10.25H18.375C17.0938 10.25 15.8125 11.5312 15.8125 12.8125V23.0625C15.8125 24.3438 17.0938 25.625 18.375 25.625V41H28.625V25.625C29.9062 25.625 31.1875 24.3438 31.1875 23.0625V12.8125C31.1875 11.5312 29.9062 10.25 28.625 10.25Z" fill="#FFB257"/>
</g>
</g>
<defs>
<clipPath id="clip0_281_198">
<rect width="41" height="41" fill="white"/>
</clipPath>
<clipPath id="clip1_281_198">
<rect width="41" height="41" fill="white" transform="translate(3)"/>
</clipPath>
</defs>
</svg>
