<svg width="55" height="55" viewBox="0 0 55 55" fill="none" xmlns="http://www.w3.org/2000/svg">
<path d="M47.8235 9.31941C47.6399 9.10978 47.415 8.9403 47.163 8.82156C46.9109 8.70281 46.637 8.63738 46.3585 8.62934C42.0314 8.51621 36.556 3.88931 32.936 2.07362C30.6998 0.95555 29.2235 0.218338 28.1149 0.0241365C27.8897 -0.00866553 27.661 -0.00803018 27.4361 0.0260219C26.3274 0.220223 24.8511 0.957435 22.6169 2.07551C18.9968 3.88931 13.5215 8.51621 9.19435 8.62934C8.91563 8.63779 8.64161 8.70341 8.38928 8.82211C8.13695 8.94081 7.9117 9.11008 7.72747 9.31941C7.34562 9.75143 7.1486 10.3161 7.17881 10.8919C8.10833 29.7898 14.8865 41.4852 26.78 48.2823C27.0892 48.4576 27.4323 48.5481 27.7736 48.5481C28.1149 48.5481 28.458 48.4576 28.7691 48.2823C40.6625 41.4852 47.4389 29.7898 48.3703 10.8919C48.4022 10.3162 48.2057 9.7511 47.8235 9.31941ZM38.3661 16.7519L28.3298 31.5621C27.9697 32.0938 27.404 32.4464 26.8441 32.4464C26.2822 32.4464 25.6581 32.139 25.2641 31.745L18.1898 24.6689C17.9589 24.4371 17.8292 24.1231 17.8292 23.7959C17.8292 23.4687 17.9589 23.1548 18.1898 22.9229L19.9377 21.1714C20.17 20.9413 20.4837 20.8123 20.8106 20.8123C21.1376 20.8123 21.4513 20.9413 21.6836 21.1714L26.2841 25.7719L34.2765 13.9746C34.4614 13.7046 34.7457 13.5188 35.0671 13.4577C35.3886 13.3966 35.7212 13.4651 35.9923 13.6484L38.038 15.0361C38.3083 15.2207 38.4945 15.5048 38.5559 15.8263C38.6174 16.1478 38.5491 16.4805 38.3661 16.7519Z" fill="#FFB257"/>
</svg>
