<svg width="48" height="48" viewBox="0 0 48 48" fill="none" xmlns="http://www.w3.org/2000/svg">
<path d="M3.64185 35.8756V44.3582H12.1244L37.1423 19.3176L28.6598 10.8351L3.64185 35.8756ZM48 38.3864L38.3864 48L26.6239 36.2375L30.6277 32.2337L32.8897 34.4958L38.4769 28.886L41.689 32.098L38.3864 35.3101L40.7842 37.5721L43.9962 34.4053L48 38.3864ZM11.8077 21.3534L0 9.61357L9.61357 0L13.5947 4.00377L8.00754 9.61357L10.4279 12.0113L15.9925 6.40151L19.2045 9.61357L15.9925 12.803L18.2545 15.065L11.8077 21.3534ZM43.7022 12.6899C44.5844 11.8077 44.5844 10.4279 43.7022 9.50047L38.409 4.29783C37.5721 3.41565 36.1018 3.41565 35.2196 4.29783L31.0575 8.43732L39.5401 16.9199L43.7022 12.6899Z" fill="#FFB257"/>
</svg>
