<svg width="41" height="41" viewBox="0 0 41 41" fill="none" xmlns="http://www.w3.org/2000/svg">
<g clip-path="url(#clip0_377_1882)">
<path d="M30.75 17.9375V12.8125L27.675 11.7875C27.4188 11.0188 27.1625 9.99375 26.65 9.225L28.1875 6.15L24.3438 2.81875L21.525 4.1C20.7562 3.5875 19.9875 3.33125 18.9625 3.075L17.9375 0H12.8125L11.7875 3.075C11.0188 3.33125 9.99375 3.5875 9.225 4.1L6.40625 2.81875L2.81875 6.40625L4.35625 9.48125C3.84375 10.25 3.5875 11.0187 3.33125 12.0437L0 12.8125V17.9375L3.075 18.9625C3.33125 19.7313 3.5875 20.7562 4.1 21.525L2.81875 24.3438L6.40625 27.9312L9.48125 26.3938C10.25 26.9062 11.0187 27.1625 12.0437 27.4187L12.8125 30.75H17.9375L18.9625 27.675C19.7313 27.4188 20.7562 27.1625 21.525 26.65L24.6 28.1875L28.1875 24.6L26.65 21.525C27.1625 20.7562 27.4188 19.9875 27.675 18.9625L30.75 17.9375ZM7.6875 15.375C7.6875 11.0188 11.0188 7.6875 15.375 7.6875C19.7313 7.6875 23.0625 11.0188 23.0625 15.375C23.0625 19.7313 19.7313 23.0625 15.375 23.0625C11.0188 23.0625 7.6875 19.7313 7.6875 15.375Z" fill="#FFB257"/>
<path d="M19.2174 15.375C19.2171 16.3948 18.8116 17.3726 18.0903 18.0935C17.369 18.8143 16.3909 19.2191 15.3711 19.2188C14.3513 19.2184 13.3735 18.813 12.6526 18.0917C11.9318 17.3703 11.527 16.3922 11.5273 15.3724C11.5277 14.3527 11.9331 13.3748 12.6544 12.654C13.0116 12.297 13.4356 12.014 13.9021 11.8209C14.3687 11.6278 14.8687 11.5285 15.3737 11.5287C15.8786 11.5289 16.3786 11.6285 16.845 11.8219C17.3114 12.0152 17.7352 12.2986 18.0921 12.6558C18.4491 13.0129 18.7321 13.4369 18.9252 13.9035C19.1183 14.37 19.2176 14.8701 19.2174 15.375ZM40.9987 7.6875V5.125H39.4612C39.4612 4.6125 39.2049 4.1 38.9487 3.84375L39.9737 2.81875L38.1799 1.025L37.1549 2.05C36.6424 1.79375 36.3862 1.5375 35.8737 1.5375V0H33.3112V1.5375C32.7987 1.5375 32.2862 1.79375 32.0299 2.05L31.0049 1.025L29.2112 2.81875L30.2362 3.84375C29.9799 4.35625 29.7237 4.6125 29.7237 5.125H28.1862V7.6875H29.7237C29.7237 8.2 29.9799 8.7125 30.2362 8.96875L29.2112 9.99375L31.0049 11.7875L32.0299 10.7625C32.5424 11.0187 32.7987 11.275 33.3112 11.275V12.8125H35.8737V11.275C36.3862 11.275 36.8987 11.0187 37.1549 10.7625L38.1799 11.7875L39.9737 9.99375L38.9487 8.96875C39.2049 8.45625 39.4612 8.2 39.4612 7.6875H40.9987ZM34.5924 8.96875C33.0549 8.96875 32.0299 7.94375 32.0299 6.40625C32.0299 4.86875 33.0549 3.84375 34.5924 3.84375C36.1299 3.84375 37.1549 4.86875 37.1549 6.40625C37.1549 7.94375 36.1299 8.96875 34.5924 8.96875ZM39.4612 30.2375C39.2049 29.4688 38.9487 28.7 38.4362 27.9312L39.2049 26.3938L37.4112 24.6L36.1299 25.625C35.3612 25.1125 34.5924 24.8563 33.8237 24.6L33.3112 23.0625H30.7487L30.2362 24.6C29.4674 24.8563 28.6987 25.1125 27.9299 25.625L26.3924 24.8562L24.5987 26.65L25.3674 28.1875C24.8549 28.9562 24.5987 29.725 24.3424 30.4937L23.0612 30.75V33.3125L24.5987 33.825C24.8549 34.5938 25.1112 35.3625 25.6237 36.1313L24.8549 37.6688L26.6487 39.4625L28.1862 38.6938C28.9549 39.2062 29.7237 39.4625 30.4924 39.7188L30.7487 41H33.3112L33.8237 39.4625C34.5924 39.2062 35.3612 38.95 36.1299 38.4375L37.6674 39.2062L39.4612 37.4125L38.4362 36.1313C38.9487 35.3625 39.2049 34.5938 39.4612 33.825L40.9987 33.3125V30.75L39.4612 30.2375ZM32.0299 35.875C29.9799 35.875 28.1862 34.0812 28.1862 32.0312C28.1862 29.9813 29.9799 28.1875 32.0299 28.1875C34.0799 28.1875 35.8737 29.9813 35.8737 32.0312C35.8737 34.0812 34.0799 35.875 32.0299 35.875Z" fill="#FFB257"/>
</g>
<defs>
<clipPath id="clip0_377_1882">
<rect width="41" height="41" fill="white"/>
</clipPath>
</defs>
</svg>
