<svg width="35" height="35" viewBox="0 0 35 35" fill="none" xmlns="http://www.w3.org/2000/svg">
<rect width="35" height="35" rx="17.5" fill="white"/>
<rect width="35" height="35" rx="17.5" fill="white"/>
<path d="M7.86579 17.1139C12.9549 14.8501 16.3484 13.3576 18.0463 12.6365C22.8943 10.5777 23.9017 10.2201 24.5583 10.2081C24.7027 10.2057 25.0256 10.2422 25.2348 10.4155C25.4114 10.5618 25.46 10.7594 25.4832 10.8982C25.5065 11.0369 25.5354 11.3529 25.5124 11.5998C25.2497 14.4182 24.1129 21.2577 23.5346 24.4144C23.2899 25.75 22.8081 26.1979 22.3416 26.2417C21.3278 26.337 20.558 25.5577 19.5761 24.9005C18.0397 23.8722 17.1717 23.232 15.6803 22.2286C13.9568 21.0689 15.0741 20.4315 16.0563 19.3899C16.3134 19.1173 20.78 14.9691 20.8665 14.5928C20.8773 14.5458 20.8873 14.3703 20.7853 14.2777C20.6832 14.1851 20.5325 14.2167 20.4238 14.2419C20.2697 14.2776 17.8152 15.9341 13.0603 19.2112C12.3636 19.6997 11.7326 19.9377 11.1672 19.9252C10.5439 19.9115 9.3449 19.5654 8.45357 19.2695C7.36032 18.9067 6.49143 18.7149 6.56709 18.0987C6.6065 17.7777 7.0394 17.4494 7.86579 17.1139Z" fill="#2D2D2D"/>
</svg>
