<svg width="19" height="20" viewBox="0 0 19 20" fill="none" xmlns="http://www.w3.org/2000/svg">
<path d="M18.9659 17.0549L15.6814 1.2742C15.6389 1.06784 15.5565 0.871985 15.4389 0.6979C15.3213 0.523815 15.1708 0.374928 14.996 0.259792C14.8213 0.144656 14.6258 0.0655395 14.4208 0.0269886C14.2157 -0.0115624 14.0051 -0.0087884 13.8011 0.0351512L9.16873 1.04119C8.75899 1.13186 8.40123 1.38234 8.17329 1.73817C7.94534 2.09399 7.86564 2.52638 7.95151 2.94127L11.236 18.7219C11.3092 19.082 11.5029 19.4056 11.7844 19.6383C12.0659 19.8711 12.4181 19.9988 12.7818 20C12.8942 19.9998 13.0063 19.9878 13.1163 19.964L17.7487 18.958C18.1589 18.8671 18.517 18.6161 18.745 18.2597C18.973 17.9032 19.0524 17.4702 18.9659 17.0549ZM9.50025 2.61426V2.60526L14.1316 1.60522L14.4612 3.19229L9.82979 4.19933L9.50025 2.61426ZM10.4899 7.35246L10.1583 5.76239L14.7917 4.75635L15.1222 6.34642L10.4899 7.35246ZM17.4171 17.3939L12.7858 18.3939L12.4562 16.8069L17.0876 15.7998L17.4171 17.3849V17.3939ZM6.3335 0.799184H1.58338C1.16344 0.799184 0.7607 0.967762 0.46376 1.26783C0.166819 1.5679 0 1.97489 0 2.39925V18.3999C0 18.8243 0.166819 19.2313 0.46376 19.5314C0.7607 19.8314 1.16344 20 1.58338 20H6.3335C6.75344 20 7.15618 19.8314 7.45312 19.5314C7.75006 19.2313 7.91688 18.8243 7.91688 18.3999V2.39925C7.91688 1.97489 7.75006 1.5679 7.45312 1.26783C7.15618 0.967762 6.75344 0.799184 6.3335 0.799184ZM1.58338 2.39925H6.3335V3.99932H1.58338V2.39925ZM6.3335 18.3999H1.58338V16.7999H6.3335V18.3999Z" fill="white"/>
</svg>
