<svg width="20" height="20" viewBox="0 0 20 20" fill="none" xmlns="http://www.w3.org/2000/svg">
<path d="M10 8C11.0609 8 12.0783 7.57857 12.8284 6.82843C13.5786 6.07828 14 5.06087 14 4C14 2.93913 13.5786 1.92172 12.8284 1.17157C12.0783 0.421427 11.0609 0 10 0C8.93913 0 7.92172 0.421427 7.17157 1.17157C6.42143 1.92172 6 2.93913 6 4C6 5.06087 6.42143 6.07828 7.17157 6.82843C7.92172 7.57857 8.93913 8 10 8ZM3.5 11C4.16304 11 4.79893 10.7366 5.26777 10.2678C5.73661 9.79893 6 9.16304 6 8.5C6 7.83696 5.73661 7.20107 5.26777 6.73223C4.79893 6.26339 4.16304 6 3.5 6C2.83696 6 2.20107 6.26339 1.73223 6.73223C1.26339 7.20107 1 7.83696 1 8.5C1 9.16304 1.26339 9.79893 1.73223 10.2678C2.20107 10.7366 2.83696 11 3.5 11ZM19 8.5C19 9.16304 18.7366 9.79893 18.2678 10.2678C17.7989 10.7366 17.163 11 16.5 11C15.837 11 15.2011 10.7366 14.7322 10.2678C14.2634 9.79893 14 9.16304 14 8.5C14 7.83696 14.2634 7.20107 14.7322 6.73223C15.2011 6.26339 15.837 6 16.5 6C17.163 6 17.7989 6.26339 18.2678 6.73223C18.7366 7.20107 19 7.83696 19 8.5ZM10 9C11.3261 9 12.5979 9.52678 13.5355 10.4645C14.4732 11.4021 15 12.6739 15 14V20H5V14C5 12.6739 5.52678 11.4021 6.46447 10.4645C7.40215 9.52678 8.67392 9 10 9ZM3 14C3 13.307 3.1 12.638 3.288 12.006L3.118 12.02C2.26088 12.1141 1.46866 12.5213 0.893263 13.1635C0.317862 13.8057 -0.000223759 14.6377 1.18098e-07 15.5V20H3V14ZM20 20V15.5C20.0001 14.6084 19.6599 13.7503 19.0489 13.101C18.4378 12.4516 17.602 12.06 16.712 12.006C16.899 12.638 17 13.307 17 14V20H20Z" fill="white"/>
</svg>
