<svg width="24" height="24" viewBox="0 0 24 24" fill="none" xmlns="http://www.w3.org/2000/svg">
<path d="M17.6579 12.007C17.4244 12.031 17.2008 12.1138 17.0079 12.2475C16.815 12.3813 16.6592 12.5617 16.5549 12.772L15.6999 14.495L13.7929 14.772C13.2729 14.844 12.8329 15.212 12.6689 15.716L12.6309 15.856C12.5309 16.321 12.6769 16.81 13.0239 17.146L14.4009 18.483L14.0749 20.375C14.0321 20.6305 14.0615 20.8928 14.1596 21.1326C14.2578 21.3723 14.4208 21.5799 14.6304 21.7321C14.8401 21.8843 15.088 21.975 15.3463 21.9941C15.6046 22.0131 15.8632 21.9598 16.0929 21.84L17.8009 20.945L19.5089 21.841C19.7381 21.9617 19.9965 22.0158 20.2549 21.9972C20.5132 21.9787 20.7613 21.8882 20.9709 21.736L21.0829 21.646C21.2583 21.4888 21.3909 21.2896 21.4682 21.0671C21.5455 20.8446 21.565 20.6061 21.5249 20.374L21.1999 18.483L22.5799 17.144C22.9599 16.773 23.0959 16.22 22.9319 15.717L22.8809 15.583C22.7851 15.3683 22.6365 15.1813 22.4488 15.0396C22.2612 14.898 22.0406 14.8062 21.8079 14.773L19.9009 14.495L19.0479 12.773C18.9325 12.5409 18.7547 12.3456 18.5344 12.209C18.3141 12.0725 18.0601 12.0001 17.8009 12L17.6579 12.007ZM6.05788 12.007C5.82439 12.031 5.60078 12.1138 5.40791 12.2475C5.21504 12.3813 5.05918 12.5617 4.95488 12.772L4.09988 14.495L2.19288 14.772C1.67288 14.844 1.23288 15.212 1.06888 15.716L1.03088 15.856C0.930877 16.321 1.07688 16.81 1.42388 17.146L2.80088 18.483L2.47488 20.375C2.43213 20.6305 2.46148 20.8928 2.55962 21.1326C2.65775 21.3723 2.82079 21.5799 3.03042 21.7321C3.24005 21.8843 3.48796 21.975 3.74631 21.9941C4.00465 22.0131 4.26319 21.9598 4.49288 21.84L6.20088 20.945L7.90888 21.841C8.13809 21.9617 8.3965 22.0158 8.65487 21.9972C8.91324 21.9787 9.16126 21.8882 9.37088 21.736L9.48288 21.646C9.65829 21.4888 9.79088 21.2896 9.86819 21.0671C9.94551 20.8446 9.96501 20.6061 9.92488 20.374L9.60088 18.483L10.9809 17.144C11.3609 16.773 11.4969 16.22 11.3329 15.717L11.2819 15.583C11.1861 15.3683 11.0375 15.1813 10.8498 15.0396C10.6622 14.898 10.4416 14.8062 10.2089 14.773L8.30088 14.494L7.44788 12.772C7.33238 12.5401 7.15449 12.345 6.9342 12.2086C6.71392 12.0722 6.45996 12 6.20088 12L6.05788 12.007ZM11.8579 2.007C11.6244 2.03101 11.4008 2.11376 11.2079 2.24753C11.015 2.3813 10.8592 2.56173 10.7549 2.772L9.89988 4.495L7.99288 4.772C7.47288 4.844 7.03288 5.212 6.86888 5.716L6.83088 5.856C6.73088 6.321 6.87688 6.81 7.22388 7.146L8.60088 8.483L8.27488 10.375C8.23213 10.6305 8.26148 10.8928 8.35962 11.1326C8.45775 11.3723 8.62079 11.5799 8.83042 11.7321C9.04005 11.8843 9.28796 11.975 9.5463 11.9941C9.80465 12.0131 10.0632 11.9598 10.2929 11.84L12.0009 10.946L13.7099 11.842C13.9391 11.9627 14.1975 12.0168 14.4559 11.9982C14.7142 11.9797 14.9623 11.8892 15.1719 11.737L15.2839 11.647C15.4593 11.4898 15.5919 11.2906 15.6692 11.0681C15.7465 10.8456 15.766 10.6071 15.7259 10.375L15.4009 8.483L16.7809 7.144C17.1609 6.773 17.2969 6.22 17.1329 5.717L17.0819 5.583C16.9861 5.36826 16.8375 5.18131 16.6498 5.03965C16.4622 4.89799 16.2416 4.80624 16.0089 4.773L14.1009 4.494L13.2479 2.772C13.1324 2.54009 12.9545 2.34498 12.7342 2.2086C12.5139 2.07222 12.26 1.99999 12.0009 2L11.8579 2.007Z" fill="white"/>
</svg>
