<svg width="35" height="35" viewBox="0 0 35 35" fill="none" xmlns="http://www.w3.org/2000/svg">
<rect width="35" height="35" rx="17.5" fill="white"/>
<path fill-rule="evenodd" clip-rule="evenodd" d="M28.632 12.0565C28.7942 11.5157 28.632 11.1182 27.86 11.1182H25.3073C24.6582 11.1182 24.3591 11.4615 24.1969 11.8402C24.1969 11.8402 22.8986 15.0043 21.0596 17.0595C20.4647 17.6545 20.1943 17.8436 19.8697 17.8436C19.7074 17.8436 19.4726 17.6545 19.4726 17.1137V12.0565C19.4726 11.4073 19.2842 11.1182 18.7432 11.1182H14.7319C14.3264 11.1182 14.0824 11.4194 14.0824 11.7049C14.0824 12.3203 15.0017 12.4621 15.0966 14.1929V17.9521C15.0966 18.7762 14.9478 18.9257 14.6232 18.9257C13.7579 18.9257 11.653 15.7473 10.4044 12.1106C10.1597 11.4037 9.91426 11.1182 9.26187 11.1182H6.70919C5.97985 11.1182 5.83398 11.4615 5.83398 11.8402C5.83398 12.5163 6.69952 15.8698 9.86357 20.3049C11.9732 23.3335 14.9449 24.9756 17.6492 24.9756C19.272 24.9756 19.4726 24.6109 19.4726 23.9828V21.6935C19.4726 20.9642 19.6263 20.8187 20.1399 20.8187C20.5188 20.8187 21.1677 21.008 22.6824 22.4683C24.4131 24.1988 24.6983 24.9756 25.672 24.9756H28.2246C28.954 24.9756 29.3186 24.6109 29.1082 23.8912C28.8781 23.1739 28.0518 22.1335 26.9552 20.8998C26.3603 20.1966 25.4677 19.4394 25.1975 19.0608C24.8188 18.574 24.9269 18.3577 25.1975 17.9252C25.1975 17.9252 28.3074 13.5441 28.632 12.0566V12.0565Z" fill="#2D2D2D"/>
</svg>
