<svg width="34" height="34" viewBox="0 0 34 34" fill="none" xmlns="http://www.w3.org/2000/svg">
<path d="M16.9992 23.8001C20.7548 23.8001 23.7992 20.7557 23.7992 17.0001C23.7992 13.2446 20.7548 10.2001 16.9992 10.2001C13.2437 10.2001 10.1992 13.2446 10.1992 17.0001C10.1992 20.7557 13.2437 23.8001 16.9992 23.8001Z" fill="#FFB257"/>
<path d="M17.0009 6.80018C16.7003 6.80018 16.4121 6.68077 16.1995 6.46823C15.987 6.25569 15.8676 5.96742 15.8676 5.66685V3.40018C15.8676 3.0996 15.987 2.81133 16.1995 2.59879C16.4121 2.38625 16.7003 2.26685 17.0009 2.26685C17.3015 2.26685 17.5898 2.38625 17.8023 2.59879C18.0148 2.81133 18.1342 3.0996 18.1342 3.40018V5.66685C18.1342 5.96742 18.0148 6.25569 17.8023 6.46823C17.5898 6.68077 17.3015 6.80018 17.0009 6.80018ZM17.0009 31.7335C16.7003 31.7335 16.4121 31.6141 16.1995 31.4016C15.987 31.189 15.8676 30.9008 15.8676 30.6002V28.3335C15.8676 28.0329 15.987 27.7447 16.1995 27.5321C16.4121 27.3196 16.7003 27.2002 17.0009 27.2002C17.3015 27.2002 17.5898 27.3196 17.8023 27.5321C18.0148 27.7447 18.1342 28.0329 18.1342 28.3335V30.6002C18.1342 30.9008 18.0148 31.189 17.8023 31.4016C17.5898 31.6141 17.3015 31.7335 17.0009 31.7335ZM5.66758 18.1335H3.40091C3.10033 18.1335 2.81206 18.0141 2.59952 17.8016C2.38698 17.589 2.26758 17.3008 2.26758 17.0002C2.26758 16.6996 2.38698 16.4113 2.59952 16.1988C2.81206 15.9862 3.10033 15.8668 3.40091 15.8668H5.66758C5.96816 15.8668 6.25642 15.9862 6.46897 16.1988C6.68151 16.4113 6.80091 16.6996 6.80091 17.0002C6.80091 17.3008 6.68151 17.589 6.46897 17.8016C6.25642 18.0141 5.96816 18.1335 5.66758 18.1335ZM30.6009 18.1335H28.3342C28.0337 18.1335 27.7454 18.0141 27.5329 17.8016C27.3203 17.589 27.2009 17.3008 27.2009 17.0002C27.2009 16.6996 27.3203 16.4113 27.5329 16.1988C27.7454 15.9862 28.0337 15.8668 28.3342 15.8668H30.6009C30.9015 15.8668 31.1898 15.9862 31.4023 16.1988C31.6148 16.4113 31.7342 16.6996 31.7342 17.0002C31.7342 17.3008 31.6148 17.589 31.4023 17.8016C31.1898 18.0141 30.9015 18.1335 30.6009 18.1335ZM7.37891 27.7555C7.07997 27.7513 6.79483 27.629 6.58558 27.4155C6.37449 27.2032 6.25601 26.9159 6.25601 26.6165C6.25601 26.3171 6.37449 26.0299 6.58558 25.8175L8.18358 24.2082C8.39699 23.9948 8.68644 23.8749 8.98824 23.8749C9.29005 23.8749 9.5795 23.9948 9.79291 24.2082C10.0063 24.4216 10.1262 24.711 10.1262 25.0128C10.1262 25.3147 10.0063 25.6041 9.79291 25.8175L8.18358 27.4155C8.07861 27.5226 7.95344 27.6078 7.81532 27.6662C7.67719 27.7245 7.52886 27.7549 7.37891 27.7555ZM25.0136 10.1208C24.8644 10.1217 24.7166 10.0931 24.5785 10.0367C24.4404 9.98032 24.3148 9.89722 24.2089 9.79218C24.1027 9.68682 24.0184 9.56147 23.9608 9.42337C23.9033 9.28526 23.8737 9.13713 23.8737 8.98751C23.8737 8.8379 23.9033 8.68977 23.9608 8.55166C24.0184 8.41355 24.1027 8.2882 24.2089 8.18285L25.8182 6.58485C26.0351 6.39918 26.3139 6.30216 26.5992 6.31317C26.8844 6.32419 27.155 6.44243 27.3568 6.64427C27.5587 6.84611 27.6769 7.11669 27.6879 7.40192C27.6989 7.68715 27.6019 7.96604 27.4162 8.18285L25.8182 9.79218C25.7123 9.89722 25.5868 9.98032 25.4487 10.0367C25.3106 10.0931 25.1627 10.1217 25.0136 10.1208ZM26.6229 27.7555C26.473 27.7549 26.3246 27.7245 26.1865 27.6662C26.0484 27.6078 25.9232 27.5226 25.8182 27.4155L24.2089 25.8175C24.1032 25.7118 24.0194 25.5864 23.9622 25.4483C23.905 25.3103 23.8756 25.1623 23.8756 25.0128C23.8756 24.8634 23.905 24.7154 23.9622 24.5774C24.0194 24.4393 24.1032 24.3139 24.2089 24.2082C24.3146 24.1025 24.44 24.0187 24.5781 23.9615C24.7162 23.9043 24.8641 23.8749 25.0136 23.8749C25.163 23.8749 25.311 23.9043 25.4491 23.9615C25.5871 24.0187 25.7126 24.1025 25.8182 24.2082L27.4162 25.8175C27.6273 26.0299 27.7458 26.3171 27.7458 26.6165C27.7458 26.9159 27.6273 27.2032 27.4162 27.4155C27.207 27.629 26.9219 27.7513 26.6229 27.7555ZM8.98824 10.1208C8.83909 10.1217 8.69123 10.0931 8.55315 10.0367C8.41507 9.98032 8.28948 9.89722 8.18358 9.79218L6.58558 8.18285C6.39991 7.96604 6.30289 7.68715 6.31391 7.40192C6.32492 7.11669 6.44317 6.84611 6.64501 6.64427C6.84685 6.44243 7.11742 6.32419 7.40265 6.31317C7.68788 6.30216 7.96677 6.39918 8.18358 6.58485L9.79291 8.18285C9.89914 8.2882 9.98345 8.41355 10.041 8.55166C10.0985 8.68977 10.1281 8.8379 10.1281 8.98751C10.1281 9.13713 10.0985 9.28526 10.041 9.42337C9.98345 9.56147 9.89914 9.68682 9.79291 9.79218C9.68701 9.89722 9.56142 9.98032 9.42334 10.0367C9.28526 10.0931 9.1374 10.1217 8.98824 10.1208Z" fill="#FFB257"/>
</svg>
