<svg width="15" height="14" viewBox="0 0 15 14" fill="none" xmlns="http://www.w3.org/2000/svg">
<path d="M3.5 9.6123H5.5V12.6123H3.5V9.6123Z" fill="white"/>
<path d="M0 0.612305V13.1123H2.98983V8.91927H6.49831V13.1123H9.48814V0.612305H0ZM3.62034 7.09437H1.82034V6.30323H3.62034V7.09437ZM3.62034 5.25366H1.82034V4.46252H3.62034V5.25366ZM3.62034 3.41294H1.82034V2.6218H3.62034V3.41294ZM7.59661 7.09437H5.79661V6.30323H7.59661V7.09437ZM7.59661 5.25366H5.79661V4.46252H7.59661V5.25366ZM7.59661 3.41294H5.79661V2.6218H7.59661V3.41294ZM10.2508 4.06167V13.1123H15V4.06167H10.2508ZM14.1051 9.31484H11.1458V8.5237H14.1051V9.31484ZM14.1051 6.94142H11.1458V6.15028H14.1051V6.94142Z" fill="white"/>
</svg>
