<svg width="16" height="16" viewBox="0 0 16 16" fill="none" xmlns="http://www.w3.org/2000/svg">
<path d="M4.84375 12.6123C4.015 12.6123 3.35125 13.2836 3.35125 14.1123C3.35125 14.9411 4.015 15.6123 4.84375 15.6123C5.6725 15.6123 6.34375 14.9411 6.34375 14.1123C6.34375 13.2836 5.6725 12.6123 4.84375 12.6123ZM0.34375 0.612305V2.1123H1.84375L4.54 7.80105L3.5275 9.63855C3.41125 9.85605 3.34375 10.0998 3.34375 10.3623C3.34375 11.1911 4.015 11.8623 4.84375 11.8623H13.8438V10.3623H5.1625C5.0575 10.3623 4.975 10.2798 4.975 10.1748C4.975 10.1411 4.9825 10.1111 4.9975 10.0848L5.66875 8.8623H11.2563C11.8188 8.8623 12.31 8.55105 12.5687 8.0898L15.25 3.2223C15.31 3.1173 15.3438 2.99355 15.3438 2.8623C15.3438 2.66339 15.2647 2.47263 15.1241 2.33197C14.9834 2.19132 14.7927 2.1123 14.5938 2.1123H3.505L2.7925 0.612305H0.34375ZM12.3438 12.6123C11.515 12.6123 10.8512 13.2836 10.8512 14.1123C10.8512 14.9411 11.515 15.6123 12.3438 15.6123C13.1725 15.6123 13.8438 14.9411 13.8438 14.1123C13.8438 13.2836 13.1725 12.6123 12.3438 12.6123Z" fill="white"/>
</svg>
