<svg width="42" height="42" viewBox="0 0 42 42" fill="none" xmlns="http://www.w3.org/2000/svg">
<path d="M21 21L7 13.5L5.5 11.5L21 4L37 13.5L21 21Z" fill="#FFB257"/>
<path d="M36.6975 10.8527L22.26 2.95312C21.8742 2.73998 21.4407 2.62817 21 2.62817C20.5593 2.62817 20.1258 2.73998 19.74 2.95312L5.3025 10.856C4.89019 11.0816 4.54601 11.4138 4.30591 11.8178C4.0658 12.2218 3.93857 12.6829 3.9375 13.1529V28.8438C3.93857 29.3138 4.0658 29.7749 4.30591 30.1789C4.54601 30.583 4.89019 30.9151 5.3025 31.1407L19.74 39.0436C20.1258 39.2567 20.5593 39.3685 21 39.3685C21.4407 39.3685 21.8742 39.2567 22.26 39.0436L36.6975 31.1407C37.1098 30.9151 37.454 30.583 37.6941 30.1789C37.9342 29.7749 38.0614 29.3138 38.0625 28.8438V13.1545C38.0623 12.6837 37.9355 12.2216 37.6953 11.8166C37.4552 11.4117 37.1105 11.0787 36.6975 10.8527ZM21 5.25L34.1808 12.4688L21 19.6875L7.81922 12.4688L21 5.25ZM6.5625 14.7656L19.6875 21.9483V36.0232L6.5625 28.8455V14.7656ZM22.3125 36.0232V21.9548L35.4375 14.7656V28.8389L22.3125 36.0232Z" fill="#191919"/>
</svg>
