<svg width="28" height="28" viewBox="0 0 28 28" fill="none" xmlns="http://www.w3.org/2000/svg">
<line x1="1" y1="26" x2="27" y2="26" stroke="#191919" stroke-width="4"/>
<path d="M18.666 7H6.99935L1.16602 14V17.5H3.49935C3.49935 18.4283 3.8681 19.3185 4.52448 19.9749C5.18085 20.6313 6.07109 21 6.99935 21C7.92761 21 8.81785 20.6313 9.47422 19.9749C10.1306 19.3185 10.4993 18.4283 10.4993 17.5H17.4993C17.4993 18.4283 17.8681 19.3185 18.5245 19.9749C19.1809 20.6313 20.0711 21 20.9993 21C21.9276 21 22.8178 20.6313 23.4742 19.9749C24.1306 19.3185 24.4993 18.4283 24.4993 17.5H26.8327V14C26.8327 12.705 25.7943 11.6667 24.4993 11.6667H22.166L18.666 7ZM7.58268 8.75H12.2493V11.6667H5.24935L7.58268 8.75ZM13.9993 8.75H18.0827L20.3693 11.6667H13.9993V8.75ZM6.99935 15.75C7.46348 15.75 7.9086 15.9344 8.23679 16.2626C8.56497 16.5908 8.74935 17.0359 8.74935 17.5C8.74935 17.9641 8.56497 18.4092 8.23679 18.7374C7.9086 19.0656 7.46348 19.25 6.99935 19.25C6.53522 19.25 6.0901 19.0656 5.76191 18.7374C5.43372 18.4092 5.24935 17.9641 5.24935 17.5C5.24935 17.0359 5.43372 16.5908 5.76191 16.2626C6.0901 15.9344 6.53522 15.75 6.99935 15.75ZM20.9993 15.75C21.4635 15.75 21.9086 15.9344 22.2368 16.2626C22.565 16.5908 22.7493 17.0359 22.7493 17.5C22.7493 17.9641 22.565 18.4092 22.2368 18.7374C21.9086 19.0656 21.4635 19.25 20.9993 19.25C20.5352 19.25 20.0901 19.0656 19.7619 18.7374C19.4337 18.4092 19.2493 17.9641 19.2493 17.5C19.2493 17.0359 19.4337 16.5908 19.7619 16.2626C20.0901 15.9344 20.5352 15.75 20.9993 15.75Z" fill="#191919"/>
</svg>
