<svg width="26" height="25" viewBox="0 0 26 25" fill="none" xmlns="http://www.w3.org/2000/svg">
<line y1="23" x2="26" y2="23" stroke="#191919" stroke-width="4"/>
<path d="M16.1783 7.91666H20.0417V6.49166H17.1758L15.5925 3.85541C15.355 3.45958 14.9275 3.19041 14.4367 3.19041C14.2942 3.19041 14.1675 3.21416 14.0408 3.25374L9.75 4.59166V8.70833H11.175V5.80291L12.8454 5.28041L9.75 17.4167H11.175L13.4471 10.9962L15.2917 13.4583V17.4167H16.7167V12.3421L14.7454 8.74791L15.3233 6.47583M16.0833 3.00833C16.875 3.00833 17.5083 2.37499 17.5083 1.58333C17.5083 0.791659 16.875 0.158325 16.0833 0.158325C15.2917 0.158325 14.6583 0.791659 14.6583 1.58333C14.6583 2.37499 15.2917 3.00833 16.0833 3.00833Z" fill="#191919"/>
</svg>
