<svg width="35" height="34" viewBox="0 0 35 34" fill="none" xmlns="http://www.w3.org/2000/svg">
<path d="M24.5617 21.3093L17.0017 28.8742L5.12789 17.0003L17.0017 5.12652L24.5617 12.6865L27.125 10.1232L17.0017 -5.04761e-05L0.00132137 17.0003L17.0017 34.0007L27.125 23.8726L24.5617 21.3093Z" fill="#FF5757"/>
<path d="M34.002 17.0003L29.0245 12.0228L26.4612 14.5861L28.8754 17.0003L26.4612 19.4145L29.0245 21.9778L34.002 17.0003Z" fill="#FFB257"/>
<path d="M26.4609 17.0003L21.4883 12.0228L18.925 14.5861L21.3344 17.0003L18.925 19.4145L21.4883 21.9778L26.4609 17.0003Z" fill="#FFB257"/>
<path d="M18.9258 17.0003L13.9483 12.0228L11.385 14.5861L13.7992 17.0003L11.385 19.4145L13.9483 21.9778L18.9258 17.0003Z" fill="#FFB257"/>
</svg>
