<svg width="54" height="77" viewBox="0 0 54 77" fill="none" xmlns="http://www.w3.org/2000/svg">
<path d="M27 3C13.7486 3 3 13.8158 3 27.15C3 45.2625 27 72 27 72C27 72 51 45.2625 51 27.15C51 13.8158 40.2514 3 27 3ZM27 35.775C22.2686 35.775 18.4286 31.911 18.4286 27.15C18.4286 22.389 22.2686 18.525 27 18.525C31.7314 18.525 35.5714 22.389 35.5714 27.15C35.5714 31.911 31.7314 35.775 27 35.775Z" fill="#FFB257"/>
<path d="M27 72L25.8837 73.002L27 74.2456L28.1163 73.002L27 72ZM27 72C28.1163 73.002 28.1165 73.0017 28.1169 73.0013L28.118 73L28.122 72.9956L28.1363 72.9796L28.1905 72.9187C28.2378 72.8655 28.307 72.7872 28.3968 72.6848C28.5765 72.4802 28.8383 72.1795 29.1707 71.7913C29.8353 71.015 30.7823 69.8885 31.9176 68.481C34.1868 65.6675 37.2149 61.723 40.2459 57.2025C43.274 52.6863 46.3234 47.5681 48.6203 42.4091C50.9085 37.2696 52.5 31.9798 52.5 27.15C52.5 12.9961 41.0887 1.5 27 1.5C12.9113 1.5 1.5 12.9961 1.5 27.15C1.5 31.9798 3.09146 37.2696 5.37968 42.4091C7.67656 47.5681 10.726 52.6863 13.7541 57.2025C16.7851 61.723 19.8132 65.6675 22.0824 68.481C23.2177 69.8885 24.1647 71.015 24.8293 71.7913C25.1617 72.1795 25.4235 72.4802 25.6032 72.6848C25.693 72.7872 25.7622 72.8655 25.8095 72.9187L25.8637 72.9796L25.878 72.9956L25.882 73L25.8831 73.0013C25.8835 73.0017 25.8837 73.002 27 72ZM27 34.275C23.1058 34.275 19.9286 31.0914 19.9286 27.15C19.9286 23.2086 23.1058 20.025 27 20.025C30.8942 20.025 34.0714 23.2086 34.0714 27.15C34.0714 31.0914 30.8942 34.275 27 34.275Z" stroke="white" stroke-opacity="0.58" stroke-width="3"/>
</svg>
