<svg width="22" height="22" viewBox="0 0 22 22" fill="none" xmlns="http://www.w3.org/2000/svg">
<path d="M15.8922 13.7886L11.0004 18.6835L3.31721 11.0004L11.0004 3.31722L15.8922 8.20904L17.5508 6.55043L11.0004 -5.72657e-07L-1.42971e-05 11.0004L11.0004 22.0007L17.5508 15.4472L15.8922 13.7886Z" fill="#191919"/>
<path d="M22 11.0004L18.7792 7.77967L17.1206 9.43829L18.6828 11.0004L17.1206 12.5626L18.7792 14.2212L22 11.0004Z" fill="#FFB257"/>
<path d="M17.1211 11.0004L13.9034 7.77967L12.2448 9.43829L13.8039 11.0004L12.2448 12.5626L13.9034 14.2212L17.1211 11.0004Z" fill="#FFB257"/>
<path d="M12.2422 11.0004L9.02143 7.77967L7.36282 9.43829L8.92496 11.0004L7.36282 12.5626L9.02143 14.2212L12.2422 11.0004Z" fill="#FFB257"/>
</svg>
