<svg width="26" height="17" viewBox="0 0 26 17" fill="none" xmlns="http://www.w3.org/2000/svg">
<path d="M7 0.72522H1C0.723858 0.72522 0.5 0.949565 0.5 1.22631V7.23937C0.5 7.51611 0.723858 7.74046 1 7.74046H7C7.27614 7.74046 7.5 7.51611 7.5 7.23937V1.22631C7.5 0.949565 7.27614 0.72522 7 0.72522Z" fill="black"/>
<path d="M7 9.74475H1C0.723858 9.74475 0.5 9.9691 0.5 10.2458V16.2589C0.5 16.5356 0.723858 16.76 1 16.76H7C7.27614 16.76 7.5 16.5356 7.5 16.2589V10.2458C7.5 9.9691 7.27614 9.74475 7 9.74475Z" fill="black"/>
<path d="M24.4786 0.72522H11.5206C11.2499 0.725485 10.9904 0.833374 10.7989 1.02521C10.6075 1.21704 10.4999 1.47715 10.4996 1.74844V2.62936L8.72261 3.81593C8.65413 3.86169 8.59799 3.92369 8.55915 3.99642C8.52032 4.06914 8.5 4.15035 8.5 4.23284C8.5 4.31532 8.52032 4.39653 8.55915 4.46926C8.59799 4.54199 8.65413 4.60398 8.72261 4.64974L10.4996 5.83632V6.71623C10.4996 6.9877 10.6071 7.24806 10.7986 7.44011C10.99 7.63216 11.2497 7.74019 11.5206 7.74046H24.4786C24.7493 7.74019 25.0089 7.6323 25.2003 7.44047C25.3917 7.24863 25.4993 6.98853 25.4996 6.71723V1.74844C25.4993 1.47715 25.3917 1.21704 25.2003 1.02521C25.0089 0.833374 24.7493 0.725485 24.4786 0.72522ZM17.9996 5.7361H13.9996C13.867 5.7361 13.7398 5.68331 13.6461 5.58934C13.5523 5.49537 13.4996 5.36791 13.4996 5.23501C13.4996 5.10212 13.5523 4.97466 13.6461 4.88069C13.7398 4.78672 13.867 4.73393 13.9996 4.73393H17.9996C18.1322 4.73393 18.2594 4.78672 18.3532 4.88069C18.4469 4.97466 18.4996 5.10212 18.4996 5.23501C18.4996 5.36791 18.4469 5.49537 18.3532 5.58934C18.2594 5.68331 18.1322 5.7361 17.9996 5.7361ZM21.9996 3.73175H13.9996C13.867 3.73175 13.7398 3.67896 13.6461 3.58498C13.5523 3.49101 13.4996 3.36356 13.4996 3.23066C13.4996 3.09776 13.5523 2.97031 13.6461 2.87634C13.7398 2.78237 13.867 2.72957 13.9996 2.72957H21.9996C22.1322 2.72957 22.2594 2.78237 22.3532 2.87634C22.4469 2.97031 22.4996 3.09776 22.4996 3.23066C22.4996 3.36356 22.4469 3.49101 22.3532 3.58498C22.2594 3.67896 22.1322 3.73175 21.9996 3.73175ZM24.4786 9.74481H11.5206C11.2499 9.74508 10.9904 9.85296 10.7989 10.0448C10.6075 10.2366 10.4999 10.4967 10.4996 10.768V11.6489L8.72261 12.8355C8.65413 12.8813 8.59799 12.9433 8.55915 13.016C8.52032 13.0887 8.5 13.1699 8.5 13.2524C8.5 13.3349 8.52032 13.4161 8.55915 13.4888C8.59799 13.5616 8.65413 13.6236 8.72261 13.6693L10.4996 14.8559V15.7358C10.4996 16.0073 10.6071 16.2677 10.7986 16.4597C10.99 16.6518 11.2497 16.7598 11.5206 16.76H24.4786C24.7493 16.7598 25.0089 16.6519 25.2003 16.4601C25.3917 16.2682 25.4993 16.0081 25.4996 15.7368V10.768C25.4993 10.4967 25.3917 10.2366 25.2003 10.0448C25.0089 9.85296 24.7493 9.74508 24.4786 9.74481ZM17.9996 14.7557H13.9996C13.867 14.7557 13.7398 14.7029 13.6461 14.6089C13.5523 14.515 13.4996 14.3875 13.4996 14.2546C13.4996 14.1217 13.5523 13.9943 13.6461 13.9003C13.7398 13.8063 13.867 13.7535 13.9996 13.7535H17.9996C18.1322 13.7535 18.2594 13.8063 18.3532 13.9003C18.4469 13.9943 18.4996 14.1217 18.4996 14.2546C18.4996 14.3875 18.4469 14.515 18.3532 14.6089C18.2594 14.7029 18.1322 14.7557 17.9996 14.7557ZM21.9996 12.7513H13.9996C13.867 12.7513 13.7398 12.6985 13.6461 12.6046C13.5523 12.5106 13.4996 12.3831 13.4996 12.2503C13.4996 12.1174 13.5523 11.9899 13.6461 11.8959C13.7398 11.802 13.867 11.7492 13.9996 11.7492H21.9996C22.1322 11.7492 22.2594 11.802 22.3532 11.8959C22.4469 11.9899 22.4996 12.1174 22.4996 12.2503C22.4996 12.3831 22.4469 12.5106 22.3532 12.6046C22.2594 12.6985 22.1322 12.7513 21.9996 12.7513ZM24.4786 18.7644H11.5206C11.2499 18.7647 10.9904 18.8726 10.7989 19.0644C10.6075 19.2562 10.4999 19.5163 10.4996 19.7876V20.6685L8.72261 21.8551C8.65413 21.9009 8.59799 21.9629 8.55915 22.0356C8.52032 22.1083 8.5 22.1895 8.5 22.272C8.5 22.3545 8.52032 22.4357 8.55915 22.5084C8.59799 22.5812 8.65413 22.6432 8.72261 22.6889L10.4996 23.8755V24.7554C10.4996 25.0269 10.6071 25.2872 10.7986 25.4793C10.99 25.6713 11.2497 25.7794 11.5206 25.7796H24.4786C24.7493 25.7794 25.0089 25.6715 25.2003 25.4796C25.3917 25.2878 25.4993 25.0277 25.4996 24.7564V19.7876C25.4993 19.5163 25.3917 19.2562 25.2003 19.0644C25.0089 18.8726 24.7493 18.7647 24.4786 18.7644ZM17.9996 23.7753H13.9996C13.867 23.7753 13.7398 23.7225 13.6461 23.6285C13.5523 23.5345 13.4996 23.4071 13.4996 23.2742C13.4996 23.1413 13.5523 23.0138 13.6461 22.9199C13.7398 22.8259 13.867 22.7731 13.9996 22.7731H17.9996C18.1322 22.7731 18.2594 22.8259 18.3532 22.9199C18.4469 23.0138 18.4996 23.1413 18.4996 23.2742C18.4996 23.4071 18.4469 23.5345 18.3532 23.6285C18.2594 23.7225 18.1322 23.7753 17.9996 23.7753ZM21.9996 21.7709H13.9996C13.867 21.7709 13.7398 21.7181 13.6461 21.6242C13.5523 21.5302 13.4996 21.4027 13.4996 21.2698C13.4996 21.1369 13.5523 21.0095 13.6461 20.9155C13.7398 20.8215 13.867 20.7688 13.9996 20.7688H21.9996C22.1322 20.7688 22.2594 20.8215 22.3532 20.9155C22.4469 21.0095 22.4996 21.1369 22.4996 21.2698C22.4996 21.4027 22.4469 21.5302 22.3532 21.6242C22.2594 21.7181 22.1322 21.7709 21.9996 21.7709Z" fill="black"/>
</svg>
