<svg width="17" height="17" viewBox="0 0 17 17" fill="none" xmlns="http://www.w3.org/2000/svg">
<g clip-path="url(#clip0_119_127)">
<path d="M11.1563 8.5C10.3157 8.5 9.49399 8.74926 8.79508 9.21625C8.09617 9.68325 7.55144 10.347 7.22976 11.1236C6.90809 11.9002 6.82393 12.7547 6.98791 13.5791C7.1519 14.4036 7.55667 15.1608 8.15105 15.7552C8.74542 16.3496 9.5027 16.7544 10.3271 16.9183C11.1515 17.0823 12.0061 16.9982 12.7827 16.6765C13.5592 16.3548 14.223 15.8101 14.69 15.1112C15.157 14.4123 15.4063 13.5906 15.4063 12.75C15.4048 11.6233 14.9565 10.5431 14.1598 9.74643C13.3631 8.94972 12.283 8.50148 11.1563 8.5ZM13.0156 15.4062H9.29688V14.3438H13.0156V15.4062ZM13.0156 13.2812H9.29688V12.2188H13.0156V13.2812ZM13.0156 11.1562H9.29688V10.0938H13.0156V11.1562Z" fill="black"/>
<path d="M7.96875 17H2.2525C2.00741 16.9998 1.77241 16.9023 1.5991 16.729C1.42579 16.5557 1.32834 16.3207 1.32812 16.0756V12.5295C1.32925 11.3203 1.81012 10.1609 2.66519 9.30582C3.52026 8.45075 4.67966 7.96988 5.88891 7.96875H7.92359C8.18631 7.96874 8.44852 7.99185 8.70719 8.03781C7.90983 8.45183 7.23054 9.06137 6.7329 9.8094C6.23525 10.5574 5.93551 11.4195 5.86174 12.3149C5.78796 13.2103 5.94256 14.1098 6.31106 14.9292C6.67955 15.7485 7.24991 16.4611 7.96875 17Z" fill="black"/>
<path d="M7.17188 0H6.64062C5.17362 0 3.98438 1.18924 3.98438 2.65625V3.71875C3.98438 5.18576 5.17362 6.375 6.64062 6.375H7.17188C8.63888 6.375 9.82812 5.18576 9.82812 3.71875V2.65625C9.82812 1.18924 8.63888 0 7.17188 0Z" fill="black"/>
</g>
<defs>
<clipPath id="clip0_119_127">
<rect width="17" height="17" fill="white"/>
</clipPath>
</defs>
</svg>
