<svg width="12" height="18" viewBox="0 0 12 18" fill="none" xmlns="http://www.w3.org/2000/svg">
<path d="M8.49453 15.5576H3.39453V17.2613H8.49453V15.5576Z" fill="black"/>
<path d="M5.94444 0.224243C4.67877 0.225428 3.44646 0.631056 2.42657 1.38218C1.40668 2.13331 0.652363 3.19079 0.273228 4.40097C-0.105908 5.61114 -0.0901043 6.91095 0.318342 8.11151C0.726787 9.31207 1.50659 10.3508 2.54444 11.0768V13.8538H9.34444V11.0768C10.3823 10.3508 11.1621 9.31207 11.5705 8.11151C11.979 6.91095 11.9948 5.61114 11.6157 4.40097C11.2365 3.19079 10.4822 2.13331 9.46231 1.38218C8.44242 0.631056 7.21011 0.225428 5.94444 0.224243Z" fill="black"/>
</svg>
