<svg width="17" height="17" viewBox="0 0 17 17" fill="none" xmlns="http://www.w3.org/2000/svg">
<g clip-path="url(#clip0_119_97)">
<path d="M8.5 0.265625C3.95782 0.265625 0.265625 3.95782 0.265625 8.5C0.265625 13.0422 3.95782 16.7344 8.5 16.7344C13.0422 16.7344 16.7344 13.0422 16.7344 8.5C16.7344 3.95782 13.0422 0.265625 8.5 0.265625ZM9.29688 12.5747C9.29688 13.0156 8.94095 13.3716 8.5 13.3716C8.05905 13.3716 7.70312 13.0156 7.70312 12.5747V7.49593C7.70312 7.05498 8.05905 6.69905 8.5 6.69905C8.94095 6.69905 9.29688 7.05498 9.29688 7.49593V12.5747ZM9.29688 5.14781C9.29688 5.58873 8.94095 5.94469 8.5 5.94469C8.05905 5.94469 7.70312 5.58873 7.70312 5.14781V4.42529C7.70312 3.98438 8.05905 3.62842 8.5 3.62842C8.94095 3.62842 9.29688 3.98438 9.29688 4.42529V5.14781Z" fill="black"/>
</g>
<defs>
<clipPath id="clip0_119_97">
<rect width="17" height="17" fill="white"/>
</clipPath>
</defs>
</svg>
