<svg width="15" height="17" viewBox="0 0 15 17" fill="none" xmlns="http://www.w3.org/2000/svg">
<g clip-path="url(#clip0_119_101)">
<path d="M15 3.1875V15.9375C15 16.2193 14.8871 16.4895 14.6862 16.6888C14.4853 16.8881 14.2127 17 13.9286 17H1.07143C0.787268 17 0.514746 16.8881 0.313814 16.6888C0.112882 16.4895 0 16.2193 0 15.9375V3.1875C0 2.90571 0.112882 2.63546 0.313814 2.4362C0.514746 2.23694 0.787268 2.125 1.07143 2.125H2.14286V1.0625C2.14286 0.780707 2.25574 0.510456 2.45667 0.311199C2.6576 0.111942 2.93012 0 3.21429 0C3.49845 0 3.77097 0.111942 3.9719 0.311199C4.17283 0.510456 4.28571 0.780707 4.28571 1.0625V2.125H6.42857V1.0625C6.42857 0.780707 6.54145 0.510456 6.74239 0.311199C6.94332 0.111942 7.21584 0 7.5 0C7.78416 0 8.05668 0.111942 8.25761 0.311199C8.45855 0.510456 8.57143 0.780707 8.57143 1.0625V2.125H10.7143V1.0625C10.7143 0.780707 10.8272 0.510456 11.0281 0.311199C11.229 0.111942 11.5016 0 11.7857 0C12.0699 0 12.3424 0.111942 12.5433 0.311199C12.7443 0.510456 12.8571 0.780707 12.8571 1.0625V2.125H13.9286C14.2127 2.125 14.4853 2.23694 14.6862 2.4362C14.8871 2.63546 15 2.90571 15 3.1875ZM12.8571 6.375H2.14286V7.4375H12.8571V6.375ZM12.8571 9.5625H2.14286V10.625H12.8571V9.5625ZM12.8571 12.75H2.14286V13.8125H12.8571V12.75Z" fill="black"/>
</g>
<defs>
<clipPath id="clip0_119_101">
<rect width="15" height="17" fill="white"/>
</clipPath>
</defs>
</svg>
