<svg width="13" height="13" viewBox="0 0 13 13" fill="none" xmlns="http://www.w3.org/2000/svg">
<path d="M9.81844 8.17745L8.73689 8.78676C8.60709 8.85983 8.45695 8.88841 8.30938 8.86814C8.16182 8.84788 8.02494 8.77988 7.91965 8.67452L4.30982 5.06469C4.20454 4.95935 4.13659 4.82248 4.11632 4.67494C4.09606 4.52739 4.12459 4.37727 4.19758 4.24745L4.80689 3.1659C4.91657 2.97124 4.95951 2.74603 4.92915 2.52468C4.8988 2.30332 4.79681 2.09798 4.63878 1.94004L3.01775 0.319002C2.92274 0.223945 2.80993 0.148539 2.68577 0.0970921C2.56161 0.045645 2.42853 0.019165 2.29413 0.019165C2.15973 0.019165 2.02665 0.045645 1.90249 0.0970921C1.77833 0.148539 1.66552 0.223945 1.57051 0.319002L0.834475 1.05452C0.404064 1.48492 0.129901 2.04687 0.0555795 2.651C-0.0187421 3.25513 0.111044 3.86677 0.424302 4.38866L0.793612 5.00417C2.6796 8.14742 5.34161 10.7533 8.5243 12.5719L8.59723 12.6138C9.68447 13.235 11.0278 13.054 11.8983 12.184L12.6669 11.4154C12.7619 11.3204 12.8374 11.2076 12.8888 11.0834C12.9402 10.9592 12.9667 10.8262 12.9667 10.6918C12.9667 10.5574 12.9402 10.4243 12.8888 10.3001C12.8374 10.176 12.7619 10.0632 12.6669 9.96814L11.0448 8.34607C10.8869 8.18784 10.6815 8.08569 10.46 8.05524C10.2386 8.02478 10.0132 8.06771 9.81844 8.17745Z" fill="black"/>
</svg>
