<svg width="21" height="21" viewBox="0 0 21 21" fill="none" xmlns="http://www.w3.org/2000/svg">
<mask id="mask0_217_1464" style="mask-type:alpha" maskUnits="userSpaceOnUse" x="0" y="0" width="21" height="21">
<rect width="21" height="21" fill="#D9D9D9"/>
</mask>
<g mask="url(#mask0_217_1464)">
<path d="M10.5 20.125L4.2 15.4C3.98125 15.2396 3.8099 15.0354 3.68594 14.7875C3.56198 14.5396 3.5 14.2771 3.5 14V3.5C3.5 3.01875 3.67135 2.60677 4.01406 2.26406C4.35677 1.92135 4.76875 1.75 5.25 1.75H15.75C16.2312 1.75 16.6432 1.92135 16.9859 2.26406C17.3286 2.60677 17.5 3.01875 17.5 3.5V14C17.5 14.2771 17.438 14.5396 17.3141 14.7875C17.1901 15.0354 17.0188 15.2396 16.8 15.4L10.5 20.125ZM9.58125 13.125L14.525 8.18125L13.3 6.9125L9.58125 10.6313L7.74375 8.79375L6.475 10.0188L9.58125 13.125Z" fill="#1C1B1F"/>
</g>
</svg>
