<svg width="22" height="22" viewBox="0 0 22 22" fill="none" xmlns="http://www.w3.org/2000/svg">
<mask id="mask0_217_1488" style="mask-type:alpha" maskUnits="userSpaceOnUse" x="0" y="0" width="22" height="22">
<rect width="22" height="22" fill="#D9D9D9"/>
</mask>
<g mask="url(#mask0_217_1488)">
<path d="M11 20.1667L10.7708 17.4167H10.5417C8.37222 17.4167 6.53125 16.6605 5.01875 15.148C3.50625 13.6355 2.75 11.7945 2.75 9.62504C2.75 7.4556 3.50625 5.61462 5.01875 4.10212C6.53125 2.58962 8.37222 1.83337 10.5417 1.83337C11.6264 1.83337 12.6385 2.0358 13.5781 2.44067C14.5177 2.84553 15.3427 3.40317 16.0531 4.11358C16.7635 4.824 17.3212 5.649 17.726 6.58858C18.1309 7.52817 18.3333 8.54032 18.3333 9.62504C18.3333 10.7709 18.1462 11.8709 17.7719 12.925C17.3976 13.9792 16.8858 14.957 16.2365 15.8584C15.5872 16.7598 14.8156 17.5771 13.9219 18.3105C13.0281 19.0438 12.0542 19.6625 11 20.1667ZM10.5188 14.6438C10.7785 14.6438 11 14.5521 11.1833 14.3688C11.3667 14.1855 11.4583 13.9639 11.4583 13.7042C11.4583 13.4445 11.3667 13.223 11.1833 13.0396C11 12.8563 10.7785 12.7646 10.5188 12.7646C10.259 12.7646 10.0375 12.8563 9.85417 13.0396C9.67083 13.223 9.57917 13.4445 9.57917 13.7042C9.57917 13.9639 9.67083 14.1855 9.85417 14.3688C10.0375 14.5521 10.259 14.6438 10.5188 14.6438ZM9.85417 11.7334H11.2292C11.2292 11.275 11.275 10.9542 11.3667 10.7709C11.4583 10.5875 11.7486 10.2514 12.2375 9.76254C12.5125 9.48754 12.7417 9.18962 12.925 8.86879C13.1083 8.54796 13.2 8.20421 13.2 7.83754C13.2 7.05837 12.9365 6.474 12.4094 6.08442C11.8823 5.69483 11.2597 5.50004 10.5417 5.50004C9.86944 5.50004 9.30417 5.68719 8.84583 6.0615C8.3875 6.4358 8.06667 6.89032 7.88333 7.42504L9.16667 7.92921C9.24306 7.66949 9.38819 7.41358 9.60208 7.1615C9.81597 6.90942 10.1292 6.78337 10.5417 6.78337C10.9542 6.78337 11.2635 6.89796 11.4698 7.12712C11.676 7.35629 11.7792 7.60837 11.7792 7.88337C11.7792 8.1431 11.7028 8.37608 11.55 8.58233C11.3972 8.78858 11.2139 8.99865 11 9.21254C10.4653 9.67087 10.1406 10.0337 10.026 10.3011C9.91146 10.5684 9.85417 11.0459 9.85417 11.7334Z" fill="#1C1B1F"/>
</g>
</svg>
