<svg width="20" height="20" viewBox="0 0 20 20" fill="none" xmlns="http://www.w3.org/2000/svg">
<path d="M11.6693 1.66669C7.5276 1.66669 4.16927 5.13919 4.16927 9.28002V15L2.08594 12.9167L0.835938 14.1667L5.0026 18.3334L9.16927 14.1667L7.91927 12.9167L5.83594 15V9.28002C5.83594 6.05752 8.44677 3.33335 11.6693 3.33335C14.8918 3.33335 17.5134 5.95502 17.5134 9.17752C17.5125 9.99071 17.3423 10.7948 17.0138 11.5387C16.6852 12.2825 16.2055 12.9499 15.6051 13.4984L16.7284 14.73C17.4985 14.0224 18.1131 13.1624 18.5333 12.2048C18.9534 11.2471 19.17 10.2125 19.1693 9.16669C19.1693 7.17756 18.3791 5.26991 16.9726 3.86339C15.566 2.45686 13.6584 1.66669 11.6693 1.66669Z" fill="#191919"/>
</svg>
