<svg width="18" height="18" viewBox="0 0 18 18" fill="none" xmlns="http://www.w3.org/2000/svg">
<path d="M8.14468 1.41199C8.53389 0.769471 9.46611 0.76947 9.85532 1.41199L11.7553 4.54855C11.8945 4.77844 12.1205 4.94259 12.3822 5.004L15.9523 5.84172C16.6837 6.01333 16.9717 6.89992 16.4809 7.46863L14.085 10.2449C13.9094 10.4483 13.8231 10.7139 13.8456 10.9818L14.1521 14.6361C14.2149 15.3847 13.4607 15.9326 12.7682 15.6416L9.38743 14.2208C9.13964 14.1167 8.86036 14.1167 8.61257 14.2208L5.23185 15.6416C4.53931 15.9326 3.78513 15.3847 3.84792 14.6361L4.15443 10.9818C4.1769 10.7139 4.09059 10.4483 3.91499 10.2449L1.51907 7.46863C1.02827 6.89992 1.31634 6.01333 2.04768 5.84172L5.61784 5.004C5.87952 4.94259 6.10546 4.77844 6.24472 4.54855L8.14468 1.41199Z" fill="#191919"/>
</svg>
