<svg width="40" height="51" viewBox="0 0 40 51" fill="none" xmlns="http://www.w3.org/2000/svg">
<path d="M0.901784 3.91978C0.751384 3.68819 0.817204 3.37853 1.0488 3.22813L4.8228 0.777228C5.05439 0.626829 5.36405 0.692648 5.51445 0.92424C5.66485 1.15583 5.59903 1.4655 5.36744 1.6159L2.01277 3.79447L4.19135 7.14914C4.34175 7.38073 4.27593 7.6904 4.04434 7.8408C3.81275 7.9912 3.50308 7.92538 3.35268 7.69379L0.901784 3.91978ZM38.3324 50.2853C39.6438 44.208 39.3753 34.584 34.2853 25.5314C29.2064 16.4987 19.2957 7.97914 1.21716 4.13654L1.42507 3.15839C19.7465 7.05261 29.9191 15.726 35.1569 25.0413C40.3836 34.3368 40.6651 44.2161 39.3099 50.4962L38.3324 50.2853Z" fill="#FF5757"/>
</svg>
